M48
; DRILL file {KiCad 9.0.3} date 2025-09-29T14:44:40+0800
; FORMAT={-:-/ absolute / metric / decimal}
; #@! TF.CreationDate,2025-09-29T14:44:40+08:00
; #@! TF.GenerationSoftware,Kicad,Pcbnew,9.0.3
; #@! TF.FileFunction,MixedPlating,1,4
FMAT,2
METRIC
; #@! TA.AperFunction,Plated,PTH,ComponentDrill
T1C0.250
; #@! TA.AperFunction,Plated,PTH,ViaDrill
T2C0.300
; #@! TA.AperFunction,Plated,PTH,ComponentDrill
T3C0.920
; #@! TA.AperFunction,Plated,PTH,ComponentDrill
T4C1.000
; #@! TA.AperFunction,Plated,PTH,ComponentDrill
T5C1.500
; #@! TA.AperFunction,NonPlated,NPTH,ComponentDrill
T6C0.900
; #@! TA.AperFunction,NonPlated,NPTH,ComponentDrill
T7C1.000
; #@! TA.AperFunction,NonPlated,NPTH,ComponentDrill
T8C2.200
%
G90
G05
T1
X113.76Y-51.35
X113.76Y-52.35
T2
X77.91Y-68.42
X78.0Y-70.0
X78.0Y-72.0
X78.47Y-43.22
X79.89Y-68.4
X80.0Y-70.0
X80.0Y-72.0
X81.17Y-43.29
X81.25Y-62.5
X81.25Y-63.75
X81.4Y-50.75
X81.5Y-46.25
X82.01Y-52.39
X82.1Y-49.05
X82.36Y-67.95
X82.43Y-69.82
X82.97Y-44.85
X83.0Y-37.75
X83.11Y-41.02
X83.14Y-77.88
X83.17Y-75.37
X83.55Y-47.85
X83.7Y-60.5
X84.28Y-67.83
X84.35Y-69.7
X84.5Y-57.3
X84.75Y-59.3
X85.02Y-77.88
X85.05Y-75.37
X85.11Y-45.01
X85.2Y-53.7
X85.8Y-60.35
X87.15Y-50.35
X87.816Y-77.88
X87.846Y-75.37
X88.1Y-48.1
X88.1Y-52.8
X88.15Y-60.15
X88.8Y-55.9
X89.2Y-45.5
X89.5Y-58.0
X89.67Y-47.25
X89.7Y-48.33
X90.2Y-68.6
X90.49Y-72.525
X90.612Y-77.88
X90.642Y-75.37
X92.15Y-55.25
X92.25Y-49.25
X92.25Y-51.75
X92.3Y-44.05
X93.3Y-49.25
X93.409Y-77.88
X93.439Y-75.37
X93.5Y-57.75
X93.8Y-61.85
X94.25Y-52.25
X94.34Y-54.78
X95.25Y-67.09
X95.42Y-64.42
X95.47Y-57.67
X95.68Y-60.766
X96.02Y-72.82
X96.16Y-49.25
X96.205Y-77.88
X96.235Y-75.37
X96.24Y-56.03
X96.5Y-51.0
X96.55Y-69.85
X96.91Y-57.7
X97.35Y-67.16
X97.5Y-61.75
X97.52Y-64.49
X98.09Y-49.47
X98.5Y-52.5
X98.5Y-54.75
X98.72Y-72.21
X99.001Y-77.88
X99.031Y-75.37
X99.5Y-57.75
X99.5Y-61.0
X100.0Y-62.0
X100.19Y-51.82
X100.54Y-54.23
X100.58Y-67.69
X100.78Y-70.79
X100.81Y-69.98
X100.838Y-49.784
X101.757Y-73.24
X101.797Y-77.88
X101.828Y-75.37
X102.25Y-59.35
X102.25Y-60.5
X102.54Y-66.43
X102.55Y-46.9
X102.68Y-67.76
X103.55Y-48.65
X104.05Y-64.23
X104.3Y-55.1
X104.594Y-77.88
X104.62Y-66.8
X104.624Y-75.37
X104.7Y-65.6
X105.4Y-56.7
X105.8Y-70.21
X105.85Y-71.19
X105.88Y-64.14
X106.6Y-61.6
X107.3Y-45.9
X107.4Y-49.1
X107.42Y-75.37
X107.59Y-77.83
X107.7Y-47.7
X108.0Y-64.0
X108.1Y-39.1
X108.2Y-37.6
X109.1Y-43.1
X109.1Y-43.9
X109.641Y-47.96
X110.81Y-45.5
X111.1Y-43.0
X111.35Y-75.37
X111.4Y-61.7
X111.42Y-77.88
X111.53Y-51.51
X112.4Y-37.4
X112.61Y-50.18
X112.64Y-55.43
X113.0Y-60.9
X113.3Y-62.0
X113.32Y-58.74
X113.4Y-62.9
X113.46Y-45.55
X113.7Y-59.95
X113.88Y-53.45
X114.09Y-75.39
X114.16Y-77.9
X114.47Y-47.96
X115.1Y-64.1
X115.43Y-57.35
X115.44Y-58.31
X115.61Y-52.33
X115.9Y-37.4
X116.05Y-50.37
X116.09Y-53.26
X116.66Y-55.61
X116.7Y-64.2
X117.7Y-46.5
X117.8Y-61.8
X118.2Y-41.7
X118.3Y-37.8
X118.3Y-39.4
X118.51Y-75.37
X118.58Y-77.88
X119.25Y-63.6
X119.675Y-54.725
X120.975Y-55.35
X121.65Y-62.9
X122.1Y-56.3
X125.36Y-60.18
X125.36Y-62.77
X125.51Y-55.02
X125.51Y-57.61
T3
X108.21Y-68.9
X110.21Y-68.9
X112.21Y-68.9
X114.21Y-68.9
T4
X79.1Y-56.78
X79.1Y-59.32
X79.1Y-61.86
X79.1Y-64.4
X86.15Y-39.35
X88.3Y-63.48
X88.3Y-66.02
X88.3Y-68.56
X88.3Y-71.1
X88.69Y-39.35
X91.23Y-39.35
X92.7Y-65.675
X92.7Y-68.215
X92.7Y-70.755
X97.32Y-39.4
X99.44Y-43.7
X99.86Y-39.4
X101.98Y-43.7
X102.4Y-39.4
X104.52Y-43.7
X107.06Y-43.7
T5
X107.94Y-66.18
X107.94Y-71.62
X114.94Y-66.18
X114.94Y-71.62
T6
X78.39Y-46.95
X78.39Y-49.95
T7
X120.358Y-46.58
X120.358Y-50.98
T8
X79.89Y-75.74
X80.0Y-40.0
X121.75Y-76.0
X121.866Y-40.025
M30
