%TF.GenerationSoftware,KiCad,Pcbnew,9.0.3*%
%TF.CreationDate,2025-09-29T14:44:43+08:00*%
%TF.ProjectId,Final Design,46696e61-6c20-4446-9573-69676e2e6b69,rev?*%
%TF.SameCoordinates,Original*%
%TF.FileFunction,Paste,Top*%
%TF.FilePolarity,Positive*%
%FSLAX46Y46*%
G04 Gerber Fmt 4.6, Leading zero omitted, Abs format (unit mm)*
G04 Created by KiCad (PCBNEW 9.0.3) date 2025-09-29 14:44:43*
%MOMM*%
%LPD*%
G01*
G04 APERTURE LIST*
G04 Aperture macros list*
%AMRoundRect*
0 Rectangle with rounded corners*
0 $1 Rounding radius*
0 $2 $3 $4 $5 $6 $7 $8 $9 X,Y pos of 4 corners*
0 Add a 4 corners polygon primitive as box body*
4,1,4,$2,$3,$4,$5,$6,$7,$8,$9,$2,$3,0*
0 Add four circle primitives for the rounded corners*
1,1,$1+$1,$2,$3*
1,1,$1+$1,$4,$5*
1,1,$1+$1,$6,$7*
1,1,$1+$1,$8,$9*
0 Add four rect primitives between the rounded corners*
20,1,$1+$1,$2,$3,$4,$5,0*
20,1,$1+$1,$4,$5,$6,$7,0*
20,1,$1+$1,$6,$7,$8,$9,0*
20,1,$1+$1,$8,$9,$2,$3,0*%
G04 Aperture macros list end*
%ADD10RoundRect,0.140000X0.140000X0.170000X-0.140000X0.170000X-0.140000X-0.170000X0.140000X-0.170000X0*%
%ADD11R,0.800000X1.000000*%
%ADD12R,1.500000X0.700000*%
%ADD13RoundRect,0.140000X-0.140000X-0.170000X0.140000X-0.170000X0.140000X0.170000X-0.140000X0.170000X0*%
%ADD14RoundRect,0.140000X0.170000X-0.140000X0.170000X0.140000X-0.170000X0.140000X-0.170000X-0.140000X0*%
%ADD15RoundRect,0.135000X0.185000X-0.135000X0.185000X0.135000X-0.185000X0.135000X-0.185000X-0.135000X0*%
%ADD16RoundRect,0.150000X0.512500X0.150000X-0.512500X0.150000X-0.512500X-0.150000X0.512500X-0.150000X0*%
%ADD17RoundRect,0.218750X-0.256250X0.218750X-0.256250X-0.218750X0.256250X-0.218750X0.256250X0.218750X0*%
%ADD18RoundRect,0.140000X-0.170000X0.140000X-0.170000X-0.140000X0.170000X-0.140000X0.170000X0.140000X0*%
%ADD19RoundRect,0.075000X-0.700000X-0.075000X0.700000X-0.075000X0.700000X0.075000X-0.700000X0.075000X0*%
%ADD20RoundRect,0.075000X-0.075000X-0.700000X0.075000X-0.700000X0.075000X0.700000X-0.075000X0.700000X0*%
%ADD21R,0.750000X0.650000*%
%ADD22RoundRect,0.062500X0.187500X0.062500X-0.187500X0.062500X-0.187500X-0.062500X0.187500X-0.062500X0*%
%ADD23RoundRect,0.218750X0.256250X-0.218750X0.256250X0.218750X-0.256250X0.218750X-0.256250X-0.218750X0*%
%ADD24RoundRect,0.135000X-0.185000X0.135000X-0.185000X-0.135000X0.185000X-0.135000X0.185000X0.135000X0*%
%ADD25RoundRect,0.250000X-0.450000X-0.350000X0.450000X-0.350000X0.450000X0.350000X-0.450000X0.350000X0*%
%ADD26RoundRect,0.250000X-0.250000X-0.475000X0.250000X-0.475000X0.250000X0.475000X-0.250000X0.475000X0*%
%ADD27R,2.000000X0.500000*%
%ADD28R,1.700000X2.000000*%
%ADD29RoundRect,0.250000X0.250000X0.475000X-0.250000X0.475000X-0.250000X-0.475000X0.250000X-0.475000X0*%
%ADD30RoundRect,0.250000X0.650000X-0.325000X0.650000X0.325000X-0.650000X0.325000X-0.650000X-0.325000X0*%
%ADD31RoundRect,0.249999X-0.900001X0.450001X-0.900001X-0.450001X0.900001X-0.450001X0.900001X0.450001X0*%
%ADD32RoundRect,0.250000X-0.475000X0.250000X-0.475000X-0.250000X0.475000X-0.250000X0.475000X0.250000X0*%
G04 APERTURE END LIST*
D10*
%TO.C,C16*%
X101960000Y-62000000D03*
X101000000Y-62000000D03*
%TD*%
D11*
%TO.C,SW1*%
X79500000Y-44800000D03*
X77290000Y-44800000D03*
X79500000Y-52100000D03*
X77290000Y-52100000D03*
D12*
X80150000Y-46200000D03*
X80150000Y-49200000D03*
X80150000Y-50700000D03*
%TD*%
D13*
%TO.C,C18*%
X99690000Y-72250000D03*
X100650000Y-72250000D03*
%TD*%
D10*
%TO.C,C17*%
X112640000Y-45500000D03*
X111680000Y-45500000D03*
%TD*%
D14*
%TO.C,C10*%
X87150000Y-57480000D03*
X87150000Y-56520000D03*
%TD*%
D15*
%TO.C,R4*%
X120975000Y-57270000D03*
X120975000Y-56250000D03*
%TD*%
D16*
%TO.C,U3*%
X104445000Y-72140000D03*
X104445000Y-71190000D03*
X104445000Y-70240000D03*
X102170000Y-70240000D03*
X102170000Y-72140000D03*
%TD*%
D13*
%TO.C,C3*%
X97500000Y-61000000D03*
X98460000Y-61000000D03*
%TD*%
D17*
%TO.C,FB1*%
X85800000Y-57650000D03*
X85800000Y-59225000D03*
%TD*%
D15*
%TO.C,R2*%
X104620000Y-68840000D03*
X104620000Y-67820000D03*
%TD*%
D18*
%TO.C,C5*%
X101350000Y-59350000D03*
X101350000Y-60310000D03*
%TD*%
D19*
%TO.C,U2*%
X90825000Y-49750000D03*
X90825000Y-50250000D03*
X90825000Y-50750000D03*
X90825000Y-51250000D03*
X90825000Y-51750000D03*
X90825000Y-52250000D03*
X90825000Y-52750000D03*
X90825000Y-53250000D03*
X90825000Y-53750000D03*
X90825000Y-54250000D03*
X90825000Y-54750000D03*
X90825000Y-55250000D03*
X90825000Y-55750000D03*
X90825000Y-56250000D03*
X90825000Y-56750000D03*
X90825000Y-57250000D03*
D20*
X92750000Y-59175000D03*
X93250000Y-59175000D03*
X93750000Y-59175000D03*
X94250000Y-59175000D03*
X94750000Y-59175000D03*
X95250000Y-59175000D03*
X95750000Y-59175000D03*
X96250000Y-59175000D03*
X96750000Y-59175000D03*
X97250000Y-59175000D03*
X97750000Y-59175000D03*
X98250000Y-59175000D03*
X98750000Y-59175000D03*
X99250000Y-59175000D03*
X99750000Y-59175000D03*
X100250000Y-59175000D03*
D19*
X102175000Y-57250000D03*
X102175000Y-56750000D03*
X102175000Y-56250000D03*
X102175000Y-55750000D03*
X102175000Y-55250000D03*
X102175000Y-54750000D03*
X102175000Y-54250000D03*
X102175000Y-53750000D03*
X102175000Y-53250000D03*
X102175000Y-52750000D03*
X102175000Y-52250000D03*
X102175000Y-51750000D03*
X102175000Y-51250000D03*
X102175000Y-50750000D03*
X102175000Y-50250000D03*
X102175000Y-49750000D03*
D20*
X100250000Y-47825000D03*
X99750000Y-47825000D03*
X99250000Y-47825000D03*
X98750000Y-47825000D03*
X98250000Y-47825000D03*
X97750000Y-47825000D03*
X97250000Y-47825000D03*
X96750000Y-47825000D03*
X96250000Y-47825000D03*
X95750000Y-47825000D03*
X95250000Y-47825000D03*
X94750000Y-47825000D03*
X94250000Y-47825000D03*
X93750000Y-47825000D03*
X93250000Y-47825000D03*
X92750000Y-47825000D03*
%TD*%
D21*
%TO.C,U1*%
X113760000Y-52250000D03*
X113760000Y-51450000D03*
D22*
X114710000Y-52600000D03*
X114710000Y-52100000D03*
X114710000Y-51600000D03*
X114710000Y-51100000D03*
X112810000Y-51100000D03*
X112810000Y-51600000D03*
X112810000Y-52100000D03*
X112810000Y-52600000D03*
%TD*%
D23*
%TO.C,D1*%
X119075000Y-57425000D03*
X119075000Y-55850000D03*
%TD*%
D24*
%TO.C,R3*%
X111800000Y-54360000D03*
X111800000Y-55380000D03*
%TD*%
D14*
%TO.C,C9*%
X88250000Y-57480000D03*
X88250000Y-56520000D03*
%TD*%
D25*
%TO.C,Y1*%
X83550000Y-50950000D03*
X85750000Y-50950000D03*
X85750000Y-49250000D03*
X83550000Y-49250000D03*
%TD*%
D14*
%TO.C,C19*%
X117800000Y-60950000D03*
X117800000Y-59990000D03*
%TD*%
%TO.C,C6*%
X90630000Y-48220000D03*
X90630000Y-47260000D03*
%TD*%
D26*
%TO.C,C7*%
X112460000Y-57760000D03*
X114360000Y-57760000D03*
%TD*%
D16*
%TO.C,USB_EDC_PROT1*%
X113214654Y-48960000D03*
X113214654Y-48010000D03*
X113214654Y-47060000D03*
X110939654Y-47060000D03*
X110939654Y-48010000D03*
X110939654Y-48960000D03*
%TD*%
D27*
%TO.C,J5*%
X117658000Y-50380000D03*
X117658000Y-49580000D03*
X117658000Y-48780000D03*
X117658000Y-47980000D03*
X117658000Y-47180000D03*
D28*
X117758000Y-53230000D03*
X123208000Y-53230000D03*
X117758000Y-44330000D03*
X123208000Y-44330000D03*
%TD*%
D29*
%TO.C,C1*%
X92250000Y-45550000D03*
X90350000Y-45550000D03*
%TD*%
D10*
%TO.C,C12*%
X87000000Y-53750000D03*
X86040000Y-53750000D03*
%TD*%
D16*
%TO.C,USB_EDC_PROT2*%
X110100000Y-62600000D03*
X110100000Y-61650000D03*
X110100000Y-60700000D03*
X107825000Y-60700000D03*
X107825000Y-61650000D03*
X107825000Y-62600000D03*
%TD*%
D13*
%TO.C,C11*%
X87150000Y-59250000D03*
X88110000Y-59250000D03*
%TD*%
D17*
%TO.C,D2*%
X105450000Y-54125000D03*
X105450000Y-55700000D03*
%TD*%
D24*
%TO.C,R1*%
X94250000Y-44930000D03*
X94250000Y-45950000D03*
%TD*%
D13*
%TO.C,C4*%
X93890000Y-60850000D03*
X94850000Y-60850000D03*
%TD*%
D30*
%TO.C,C20*%
X115600000Y-62750000D03*
X115600000Y-59800000D03*
%TD*%
D15*
%TO.C,R5*%
X104050000Y-54320000D03*
X104050000Y-53300000D03*
%TD*%
D31*
%TO.C,L1*%
X108670000Y-53670000D03*
X108670000Y-57220000D03*
%TD*%
D32*
%TO.C,C8*%
X115250000Y-54050000D03*
X115250000Y-55950000D03*
%TD*%
D14*
%TO.C,C2*%
X102550000Y-48700000D03*
X102550000Y-47740000D03*
%TD*%
D18*
%TO.C,C13*%
X88100000Y-51000000D03*
X88100000Y-51960000D03*
%TD*%
D14*
%TO.C,C14*%
X88100000Y-50000000D03*
X88100000Y-49040000D03*
%TD*%
M02*
