%TF.GenerationSoftware,KiCad,Pcbnew,9.0.3*%
%TF.CreationDate,2025-09-29T14:44:43+08:00*%
%TF.ProjectId,Final Design,46696e61-6c20-4446-9573-69676e2e6b69,rev?*%
%TF.SameCoordinates,Original*%
%TF.FileFunction,Copper,L3,Inr*%
%TF.FilePolarity,Positive*%
%FSLAX46Y46*%
G04 Gerber Fmt 4.6, Leading zero omitted, Abs format (unit mm)*
G04 Created by KiCad (PCBNEW 9.0.3) date 2025-09-29 14:44:43*
%MOMM*%
%LPD*%
G01*
G04 APERTURE LIST*
%TA.AperFunction,ComponentPad*%
%ADD10R,1.700000X1.700000*%
%TD*%
%TA.AperFunction,ComponentPad*%
%ADD11C,1.700000*%
%TD*%
%TA.AperFunction,HeatsinkPad*%
%ADD12C,0.600000*%
%TD*%
%TA.AperFunction,ComponentPad*%
%ADD13R,1.600000X1.600000*%
%TD*%
%TA.AperFunction,ComponentPad*%
%ADD14C,1.600000*%
%TD*%
%TA.AperFunction,ComponentPad*%
%ADD15C,2.150000*%
%TD*%
%TA.AperFunction,ViaPad*%
%ADD16C,0.700000*%
%TD*%
G04 APERTURE END LIST*
D10*
%TO.N,+3.3V*%
%TO.C,J6*%
X79100000Y-56780000D03*
D11*
%TO.N,Net-(J6-Pin_2)*%
X79100000Y-59320000D03*
%TO.N,Net-(J6-Pin_3)*%
X79100000Y-61860000D03*
%TO.N,GND*%
X79100000Y-64400000D03*
%TD*%
D10*
%TO.N,GND*%
%TO.C,L_1*%
X88300000Y-71100000D03*
D11*
%TO.N,+3.3V*%
X88300000Y-68560000D03*
%TO.N,/LASER_1_OUT*%
X88300000Y-66020000D03*
%TO.N,+5V_SYS*%
X88300000Y-63480000D03*
%TD*%
D10*
%TO.N,+5V_SYS*%
%TO.C,R_2*%
X86150000Y-39350000D03*
D11*
%TO.N,/RECEIVER_2_IN*%
X88690000Y-39350000D03*
%TO.N,GND*%
X91230000Y-39350000D03*
%TD*%
D12*
%TO.N,GND*%
%TO.C,U1*%
X113760000Y-52350000D03*
X113760000Y-51350000D03*
%TD*%
D10*
%TO.N,+5V_SYS*%
%TO.C,R_1*%
X92700000Y-65675000D03*
D11*
%TO.N,/RECEIVER_1_IN*%
X92700000Y-68215000D03*
%TO.N,GND*%
X92700000Y-70755000D03*
%TD*%
D10*
%TO.N,+3.3V*%
%TO.C,J1*%
X99440000Y-43700000D03*
D11*
%TO.N,/SWCLK*%
X101980000Y-43700000D03*
%TO.N,/SWDIO*%
X104520000Y-43700000D03*
%TO.N,GND*%
X107060000Y-43700000D03*
%TD*%
D13*
%TO.N,/V_BUS_HOST*%
%TO.C,J4*%
X114210000Y-68900000D03*
D14*
%TO.N,/USB_HOST_N*%
X112210000Y-68900000D03*
%TO.N,/USB_HOST_P*%
X110210000Y-68900000D03*
%TO.N,GND*%
X108210000Y-68900000D03*
D15*
X114940000Y-71620000D03*
X114940000Y-66180000D03*
X107940000Y-71620000D03*
X107940000Y-66180000D03*
%TD*%
D10*
%TO.N,+5V_SYS*%
%TO.C,L_2*%
X102400000Y-39400000D03*
D11*
%TO.N,/LASER_2_OUT*%
X99860000Y-39400000D03*
%TO.N,GND*%
X97320000Y-39400000D03*
%TD*%
D16*
%TO.N,GND*%
X83700000Y-60500000D03*
X111400000Y-61700000D03*
X108000000Y-64000000D03*
X95470000Y-57670000D03*
X115900000Y-37400000D03*
X93408750Y-77880000D03*
X112610000Y-50180000D03*
X122100000Y-56300000D03*
X96500000Y-51000000D03*
X118300000Y-39400000D03*
X117700000Y-46500000D03*
X89200000Y-45500000D03*
X107700000Y-47700000D03*
X83000000Y-37750000D03*
X98090000Y-49470000D03*
X100780000Y-70790000D03*
X90642500Y-75370000D03*
X125360000Y-62770000D03*
X117800000Y-61800000D03*
X116700000Y-64200000D03*
X113880000Y-53450000D03*
X78000000Y-72000000D03*
X120975000Y-55350000D03*
X112400000Y-37400000D03*
X107400000Y-49100000D03*
X82360000Y-67950000D03*
X82100000Y-49050000D03*
X81250000Y-62500000D03*
X105880000Y-64140000D03*
X81250000Y-63750000D03*
X111420000Y-77880000D03*
X109100000Y-43100000D03*
X114160000Y-77900000D03*
X114470000Y-47960000D03*
X87150000Y-50350000D03*
X87816250Y-77880000D03*
X107420000Y-75370000D03*
X99500000Y-57750000D03*
X118580000Y-77880000D03*
X82430000Y-69820000D03*
X101827500Y-75370000D03*
X84350000Y-69700000D03*
X79890000Y-68400000D03*
X81170000Y-43290000D03*
X109100000Y-43900000D03*
X102250000Y-60500000D03*
X101797500Y-77880000D03*
X118200000Y-41700000D03*
X96240000Y-56030000D03*
X88100000Y-48100000D03*
X104623750Y-75370000D03*
X100838000Y-49784000D03*
X82970000Y-44850000D03*
X85110000Y-45010000D03*
X96205000Y-77880000D03*
X125510000Y-57610000D03*
X99500000Y-61000000D03*
X83140000Y-77880000D03*
X95680000Y-60766084D03*
X78000000Y-70000000D03*
X104593750Y-77880000D03*
X90490000Y-72525000D03*
X92250000Y-51750000D03*
X102540000Y-66430000D03*
X97520000Y-64490000D03*
X96910000Y-57700000D03*
X84500000Y-57300000D03*
X102680000Y-67760000D03*
X83550000Y-47850000D03*
X85200000Y-53700000D03*
X100190000Y-51820000D03*
X94340000Y-54780000D03*
X107300000Y-45900000D03*
X92250000Y-49250000D03*
X113460000Y-45550000D03*
X125510000Y-55020000D03*
X85020000Y-77880000D03*
X93300000Y-49250000D03*
X80000000Y-72000000D03*
X98500000Y-54750000D03*
X96160000Y-49250000D03*
X113000000Y-60900000D03*
X88100000Y-52800000D03*
X85050000Y-75370000D03*
X100580000Y-67690000D03*
X102550000Y-46900000D03*
X78470000Y-43220000D03*
X96020000Y-72820000D03*
X104700000Y-65600000D03*
X105850000Y-71190000D03*
X100810000Y-69980000D03*
X93438750Y-75370000D03*
X80000000Y-70000000D03*
X85800000Y-60350000D03*
X100540000Y-54230000D03*
X104300000Y-55100000D03*
X87846250Y-75370000D03*
X118510000Y-75370000D03*
X98500000Y-52500000D03*
X114090000Y-75390000D03*
X83110000Y-41020000D03*
X121650000Y-62900000D03*
X108200000Y-37600000D03*
X82010000Y-52390000D03*
X119250000Y-63600000D03*
X115100000Y-64100000D03*
X113300000Y-62000000D03*
X95420000Y-64420000D03*
X81500000Y-46250000D03*
X107590000Y-77830000D03*
X111350000Y-75370000D03*
X100000000Y-62000000D03*
X116660000Y-55610000D03*
X115440000Y-58310000D03*
X93500000Y-57750000D03*
X94250000Y-52250000D03*
X89670000Y-47250000D03*
X108100000Y-39100000D03*
X83170000Y-75370000D03*
X125360000Y-60180000D03*
X118300000Y-37800000D03*
X90612500Y-77880000D03*
X88150000Y-60150000D03*
X92150000Y-55250000D03*
X99031250Y-75370000D03*
X115430000Y-57350000D03*
X113400000Y-62900000D03*
X84280000Y-67830000D03*
X104050000Y-64230000D03*
X96235000Y-75370000D03*
X88800000Y-55900000D03*
X95250000Y-67090000D03*
X111100000Y-43000000D03*
X77910000Y-68420000D03*
X99001250Y-77880000D03*
X97350000Y-67160000D03*
X98720000Y-72210000D03*
%TD*%
%TA.AperFunction,Conductor*%
%TO.N,GND*%
G36*
X123265824Y-36765577D02*
G01*
X123270867Y-36765579D01*
X123270911Y-36765595D01*
X123311884Y-36765595D01*
X123318325Y-36765765D01*
X123646685Y-36782972D01*
X123659570Y-36784325D01*
X123981159Y-36835258D01*
X123993816Y-36837948D01*
X124308307Y-36922214D01*
X124320629Y-36926218D01*
X124624569Y-37042888D01*
X124636424Y-37048166D01*
X124926505Y-37195969D01*
X124937745Y-37202459D01*
X125210778Y-37379767D01*
X125221278Y-37387396D01*
X125474280Y-37592271D01*
X125483926Y-37600956D01*
X125714127Y-37831156D01*
X125722812Y-37840801D01*
X125914322Y-38077295D01*
X125927693Y-38093806D01*
X125935322Y-38104306D01*
X126112634Y-38377341D01*
X126119124Y-38388582D01*
X126129409Y-38408768D01*
X126264871Y-38674626D01*
X126266924Y-38678654D01*
X126272203Y-38690511D01*
X126388871Y-38994441D01*
X126392882Y-39006785D01*
X126477144Y-39321255D01*
X126479842Y-39333951D01*
X126530768Y-39655489D01*
X126532125Y-39668397D01*
X126549330Y-39996660D01*
X126549500Y-40003150D01*
X126549500Y-40005723D01*
X126474739Y-75394827D01*
X126474626Y-75396116D01*
X126474626Y-75446876D01*
X126474456Y-75453364D01*
X126457163Y-75783300D01*
X126455806Y-75796209D01*
X126404629Y-76119309D01*
X126401931Y-76132004D01*
X126317259Y-76447997D01*
X126313248Y-76460341D01*
X126196014Y-76765744D01*
X126190735Y-76777601D01*
X126042216Y-77069083D01*
X126035726Y-77080324D01*
X125857560Y-77354674D01*
X125849931Y-77365174D01*
X125644053Y-77619411D01*
X125635368Y-77629056D01*
X125404056Y-77860368D01*
X125394411Y-77869053D01*
X125140174Y-78074931D01*
X125129674Y-78082560D01*
X124855324Y-78260726D01*
X124844083Y-78267216D01*
X124552601Y-78415735D01*
X124540744Y-78421014D01*
X124235341Y-78538248D01*
X124222997Y-78542259D01*
X123907004Y-78626931D01*
X123894309Y-78629629D01*
X123571209Y-78680806D01*
X123558300Y-78682163D01*
X123228367Y-78699456D01*
X123221877Y-78699626D01*
X80027451Y-78699626D01*
X80020963Y-78699456D01*
X79999930Y-78698353D01*
X79692602Y-78682247D01*
X79679695Y-78680890D01*
X79358155Y-78629965D01*
X79345459Y-78627267D01*
X79030993Y-78543007D01*
X79018648Y-78538996D01*
X78714716Y-78422327D01*
X78702860Y-78417048D01*
X78412782Y-78269247D01*
X78401541Y-78262757D01*
X78128508Y-78085449D01*
X78118008Y-78077820D01*
X77865013Y-77872950D01*
X77855367Y-77864266D01*
X77625155Y-77634056D01*
X77616470Y-77624410D01*
X77424965Y-77387923D01*
X77411590Y-77371407D01*
X77403964Y-77360910D01*
X77399914Y-77354674D01*
X77270274Y-77155048D01*
X77226651Y-77087875D01*
X77220162Y-77076635D01*
X77072361Y-76786564D01*
X77067085Y-76774717D01*
X76950410Y-76470770D01*
X76946401Y-76458432D01*
X76943605Y-76447997D01*
X76862135Y-76143953D01*
X76859442Y-76131280D01*
X76808508Y-75809711D01*
X76807154Y-75796835D01*
X76798604Y-75633713D01*
X78539500Y-75633713D01*
X78539500Y-75846287D01*
X78543168Y-75869443D01*
X78572753Y-76056239D01*
X78572753Y-76056241D01*
X78572754Y-76056243D01*
X78601256Y-76143964D01*
X78638444Y-76258414D01*
X78734951Y-76447820D01*
X78859890Y-76619786D01*
X79010213Y-76770109D01*
X79182179Y-76895048D01*
X79182181Y-76895049D01*
X79182184Y-76895051D01*
X79371588Y-76991557D01*
X79573757Y-77057246D01*
X79783713Y-77090500D01*
X79783714Y-77090500D01*
X79996286Y-77090500D01*
X79996287Y-77090500D01*
X80206243Y-77057246D01*
X80408412Y-76991557D01*
X80597816Y-76895051D01*
X80747137Y-76786564D01*
X80769786Y-76770109D01*
X80769788Y-76770106D01*
X80769792Y-76770104D01*
X80920104Y-76619792D01*
X80920106Y-76619788D01*
X80920109Y-76619786D01*
X81045048Y-76447820D01*
X81045047Y-76447820D01*
X81045051Y-76447816D01*
X81141557Y-76258412D01*
X81207246Y-76056243D01*
X81232988Y-75893713D01*
X120399500Y-75893713D01*
X120399500Y-76106287D01*
X120409534Y-76169644D01*
X120423594Y-76258414D01*
X120432754Y-76316243D01*
X120480993Y-76464708D01*
X120498444Y-76518414D01*
X120594951Y-76707820D01*
X120719890Y-76879786D01*
X120870213Y-77030109D01*
X121042179Y-77155048D01*
X121042181Y-77155049D01*
X121042184Y-77155051D01*
X121231588Y-77251557D01*
X121433757Y-77317246D01*
X121643713Y-77350500D01*
X121643714Y-77350500D01*
X121856286Y-77350500D01*
X121856287Y-77350500D01*
X122066243Y-77317246D01*
X122268412Y-77251557D01*
X122457816Y-77155051D01*
X122479789Y-77139086D01*
X122629786Y-77030109D01*
X122629788Y-77030106D01*
X122629792Y-77030104D01*
X122780104Y-76879792D01*
X122780106Y-76879788D01*
X122780109Y-76879786D01*
X122905048Y-76707820D01*
X122905047Y-76707820D01*
X122905051Y-76707816D01*
X123001557Y-76518412D01*
X123067246Y-76316243D01*
X123100500Y-76106287D01*
X123100500Y-75893713D01*
X123067246Y-75683757D01*
X123001557Y-75481588D01*
X122905051Y-75292184D01*
X122905049Y-75292181D01*
X122905048Y-75292179D01*
X122780109Y-75120213D01*
X122629786Y-74969890D01*
X122457820Y-74844951D01*
X122268414Y-74748444D01*
X122268413Y-74748443D01*
X122268412Y-74748443D01*
X122066243Y-74682754D01*
X122066241Y-74682753D01*
X122066240Y-74682753D01*
X121904957Y-74657208D01*
X121856287Y-74649500D01*
X121643713Y-74649500D01*
X121595042Y-74657208D01*
X121433760Y-74682753D01*
X121231585Y-74748444D01*
X121042179Y-74844951D01*
X120870213Y-74969890D01*
X120719890Y-75120213D01*
X120594951Y-75292179D01*
X120498444Y-75481585D01*
X120432753Y-75683760D01*
X120403344Y-75869442D01*
X120399500Y-75893713D01*
X81232988Y-75893713D01*
X81240500Y-75846287D01*
X81240500Y-75633713D01*
X81207246Y-75423757D01*
X81141557Y-75221588D01*
X81045051Y-75032184D01*
X81045049Y-75032181D01*
X81045048Y-75032179D01*
X80920109Y-74860213D01*
X80769786Y-74709890D01*
X80597820Y-74584951D01*
X80408414Y-74488444D01*
X80408413Y-74488443D01*
X80408412Y-74488443D01*
X80206243Y-74422754D01*
X80206241Y-74422753D01*
X80206240Y-74422753D01*
X80044957Y-74397208D01*
X79996287Y-74389500D01*
X79783713Y-74389500D01*
X79735042Y-74397208D01*
X79573760Y-74422753D01*
X79371585Y-74488444D01*
X79182179Y-74584951D01*
X79010213Y-74709890D01*
X78859890Y-74860213D01*
X78734951Y-75032179D01*
X78638444Y-75221585D01*
X78572753Y-75423760D01*
X78563594Y-75481588D01*
X78539500Y-75633713D01*
X76798604Y-75633713D01*
X76789960Y-75468785D01*
X76789791Y-75462445D01*
X76789784Y-75456163D01*
X76789784Y-75410518D01*
X76789732Y-75409950D01*
X76787270Y-73187273D01*
X101357000Y-73187273D01*
X101357000Y-73292727D01*
X101384293Y-73394587D01*
X101437020Y-73485913D01*
X101511587Y-73560480D01*
X101602913Y-73613207D01*
X101704773Y-73640500D01*
X101704775Y-73640500D01*
X101810225Y-73640500D01*
X101810227Y-73640500D01*
X101912087Y-73613207D01*
X102003413Y-73560480D01*
X102077980Y-73485913D01*
X102130707Y-73394587D01*
X102158000Y-73292727D01*
X102158000Y-73187273D01*
X102130707Y-73085413D01*
X102077980Y-72994087D01*
X102003413Y-72919520D01*
X101912087Y-72866793D01*
X101810227Y-72839500D01*
X101704773Y-72839500D01*
X101602913Y-72866793D01*
X101602910Y-72866794D01*
X101511585Y-72919521D01*
X101437021Y-72994085D01*
X101384294Y-73085410D01*
X101384293Y-73085413D01*
X101357000Y-73187273D01*
X76787270Y-73187273D01*
X76783963Y-70202155D01*
X86950000Y-70202155D01*
X86950000Y-70850000D01*
X87866988Y-70850000D01*
X87834075Y-70907007D01*
X87800000Y-71034174D01*
X87800000Y-71165826D01*
X87834075Y-71292993D01*
X87866988Y-71350000D01*
X86950000Y-71350000D01*
X86950000Y-71997844D01*
X86956401Y-72057372D01*
X86956403Y-72057379D01*
X87006645Y-72192086D01*
X87006649Y-72192093D01*
X87092809Y-72307187D01*
X87092812Y-72307190D01*
X87207906Y-72393350D01*
X87207913Y-72393354D01*
X87342620Y-72443596D01*
X87342627Y-72443598D01*
X87402155Y-72449999D01*
X87402172Y-72450000D01*
X88050000Y-72450000D01*
X88050000Y-71533012D01*
X88107007Y-71565925D01*
X88234174Y-71600000D01*
X88365826Y-71600000D01*
X88492993Y-71565925D01*
X88550000Y-71533012D01*
X88550000Y-72450000D01*
X89197828Y-72450000D01*
X89197844Y-72449999D01*
X89257372Y-72443598D01*
X89257379Y-72443596D01*
X89392086Y-72393354D01*
X89392093Y-72393350D01*
X89507187Y-72307190D01*
X89507190Y-72307187D01*
X89593350Y-72192093D01*
X89593354Y-72192086D01*
X89643596Y-72057379D01*
X89643598Y-72057372D01*
X89649999Y-71997844D01*
X89650000Y-71997827D01*
X89650000Y-71350000D01*
X88733012Y-71350000D01*
X88765925Y-71292993D01*
X88800000Y-71165826D01*
X88800000Y-71034174D01*
X88765925Y-70907007D01*
X88733012Y-70850000D01*
X89650000Y-70850000D01*
X89650000Y-70648753D01*
X91350000Y-70648753D01*
X91350000Y-70861246D01*
X91383242Y-71071127D01*
X91383242Y-71071130D01*
X91448904Y-71273217D01*
X91545375Y-71462550D01*
X91584728Y-71516716D01*
X92217037Y-70884408D01*
X92234075Y-70947993D01*
X92299901Y-71062007D01*
X92392993Y-71155099D01*
X92507007Y-71220925D01*
X92570590Y-71237962D01*
X91938282Y-71870269D01*
X91938282Y-71870270D01*
X91992449Y-71909624D01*
X92181782Y-72006095D01*
X92383870Y-72071757D01*
X92593754Y-72105000D01*
X92806246Y-72105000D01*
X93016127Y-72071757D01*
X93016130Y-72071757D01*
X93218217Y-72006095D01*
X93407554Y-71909622D01*
X93461716Y-71870270D01*
X93461717Y-71870270D01*
X92829408Y-71237962D01*
X92892993Y-71220925D01*
X93007007Y-71155099D01*
X93100099Y-71062007D01*
X93165925Y-70947993D01*
X93182962Y-70884408D01*
X93815270Y-71516717D01*
X93815270Y-71516716D01*
X93854624Y-71462551D01*
X93868726Y-71434877D01*
X93951095Y-71273217D01*
X94016757Y-71071130D01*
X94016757Y-71071127D01*
X94050000Y-70861246D01*
X94050000Y-70648753D01*
X94016757Y-70438872D01*
X94016757Y-70438869D01*
X93951095Y-70236782D01*
X93854624Y-70047449D01*
X93815270Y-69993282D01*
X93815269Y-69993282D01*
X93182962Y-70625590D01*
X93165925Y-70562007D01*
X93100099Y-70447993D01*
X93007007Y-70354901D01*
X92892993Y-70289075D01*
X92829409Y-70272037D01*
X93304172Y-69797273D01*
X96149500Y-69797273D01*
X96149500Y-69902727D01*
X96176793Y-70004587D01*
X96229520Y-70095913D01*
X96304087Y-70170480D01*
X96395413Y-70223207D01*
X96497273Y-70250500D01*
X96497275Y-70250500D01*
X96602725Y-70250500D01*
X96602727Y-70250500D01*
X96704587Y-70223207D01*
X96795913Y-70170480D01*
X96809120Y-70157273D01*
X105399500Y-70157273D01*
X105399500Y-70262727D01*
X105426793Y-70364587D01*
X105479520Y-70455913D01*
X105554087Y-70530480D01*
X105645413Y-70583207D01*
X105747273Y-70610500D01*
X105747275Y-70610500D01*
X105852725Y-70610500D01*
X105852727Y-70610500D01*
X105954587Y-70583207D01*
X106045913Y-70530480D01*
X106120480Y-70455913D01*
X106173207Y-70364587D01*
X106175803Y-70354901D01*
X106180233Y-70338364D01*
X106200500Y-70262727D01*
X106200500Y-70157273D01*
X106173207Y-70055413D01*
X106120480Y-69964087D01*
X106045913Y-69889520D01*
X105954587Y-69836793D01*
X105852727Y-69809500D01*
X105747273Y-69809500D01*
X105645413Y-69836793D01*
X105645410Y-69836794D01*
X105554085Y-69889521D01*
X105479521Y-69964085D01*
X105426794Y-70055410D01*
X105426793Y-70055413D01*
X105399500Y-70157273D01*
X96809120Y-70157273D01*
X96870480Y-70095913D01*
X96923207Y-70004587D01*
X96950500Y-69902727D01*
X96950500Y-69797273D01*
X96923207Y-69695413D01*
X96870480Y-69604087D01*
X96795913Y-69529520D01*
X96704587Y-69476793D01*
X96602727Y-69449500D01*
X96497273Y-69449500D01*
X96395413Y-69476793D01*
X96395410Y-69476794D01*
X96304085Y-69529521D01*
X96229521Y-69604085D01*
X96176794Y-69695410D01*
X96176793Y-69695413D01*
X96149500Y-69797273D01*
X93304172Y-69797273D01*
X93399980Y-69701465D01*
X93461716Y-69639728D01*
X93407550Y-69600375D01*
X93218217Y-69503904D01*
X93119287Y-69471760D01*
X93061611Y-69432323D01*
X93034413Y-69367964D01*
X93046328Y-69299118D01*
X93093572Y-69247642D01*
X93119290Y-69235897D01*
X93122445Y-69234873D01*
X93276788Y-69156232D01*
X93416928Y-69054414D01*
X93539414Y-68931928D01*
X93641232Y-68791788D01*
X93719873Y-68637445D01*
X93773402Y-68472701D01*
X93800500Y-68301611D01*
X93800500Y-68128389D01*
X93773402Y-67957299D01*
X93719873Y-67792555D01*
X93641232Y-67638212D01*
X93539414Y-67498072D01*
X93416928Y-67375586D01*
X93276788Y-67273768D01*
X93122445Y-67195127D01*
X92957701Y-67141598D01*
X92957699Y-67141597D01*
X92957698Y-67141597D01*
X92826271Y-67120781D01*
X92786611Y-67114500D01*
X92613389Y-67114500D01*
X92573728Y-67120781D01*
X92442302Y-67141597D01*
X92277552Y-67195128D01*
X92123211Y-67273768D01*
X92043256Y-67331859D01*
X91983072Y-67375586D01*
X91983070Y-67375588D01*
X91983069Y-67375588D01*
X91860588Y-67498069D01*
X91860588Y-67498070D01*
X91860586Y-67498072D01*
X91820856Y-67552756D01*
X91758768Y-67638211D01*
X91680128Y-67792552D01*
X91626597Y-67957302D01*
X91619476Y-68002264D01*
X91599500Y-68128389D01*
X91599500Y-68301611D01*
X91607394Y-68351451D01*
X91622275Y-68445410D01*
X91626598Y-68472701D01*
X91680127Y-68637445D01*
X91758768Y-68791788D01*
X91860586Y-68931928D01*
X91983072Y-69054414D01*
X92123212Y-69156232D01*
X92277555Y-69234873D01*
X92280708Y-69235897D01*
X92281752Y-69236611D01*
X92282048Y-69236734D01*
X92282022Y-69236795D01*
X92338383Y-69275330D01*
X92365585Y-69339688D01*
X92353674Y-69408535D01*
X92306433Y-69460013D01*
X92280712Y-69471760D01*
X92181783Y-69503904D01*
X91992439Y-69600380D01*
X91938282Y-69639727D01*
X91938282Y-69639728D01*
X92570591Y-70272037D01*
X92507007Y-70289075D01*
X92392993Y-70354901D01*
X92299901Y-70447993D01*
X92234075Y-70562007D01*
X92217037Y-70625591D01*
X91584728Y-69993282D01*
X91584727Y-69993282D01*
X91545380Y-70047439D01*
X91448904Y-70236782D01*
X91383242Y-70438869D01*
X91383242Y-70438872D01*
X91350000Y-70648753D01*
X89650000Y-70648753D01*
X89650000Y-70202172D01*
X89649999Y-70202155D01*
X89643598Y-70142627D01*
X89643596Y-70142620D01*
X89593354Y-70007913D01*
X89593350Y-70007906D01*
X89507190Y-69892812D01*
X89507187Y-69892809D01*
X89392093Y-69806649D01*
X89392086Y-69806645D01*
X89257379Y-69756403D01*
X89257372Y-69756401D01*
X89197844Y-69750000D01*
X88905051Y-69750000D01*
X88838012Y-69730315D01*
X88792257Y-69677511D01*
X88782313Y-69608353D01*
X88811338Y-69544797D01*
X88848756Y-69515515D01*
X88851471Y-69514131D01*
X88876788Y-69501232D01*
X89016928Y-69399414D01*
X89139414Y-69276928D01*
X89241232Y-69136788D01*
X89319873Y-68982445D01*
X89373402Y-68817701D01*
X89400500Y-68646611D01*
X89400500Y-68547273D01*
X89799500Y-68547273D01*
X89799500Y-68652727D01*
X89826793Y-68754587D01*
X89879520Y-68845913D01*
X89954087Y-68920480D01*
X90045413Y-68973207D01*
X90147273Y-69000500D01*
X90147275Y-69000500D01*
X90252725Y-69000500D01*
X90252727Y-69000500D01*
X90354587Y-68973207D01*
X90445913Y-68920480D01*
X90520480Y-68845913D01*
X90573207Y-68754587D01*
X90600500Y-68652727D01*
X90600500Y-68547273D01*
X90573207Y-68445413D01*
X90520480Y-68354087D01*
X90445913Y-68279520D01*
X90354587Y-68226793D01*
X90252727Y-68199500D01*
X90147273Y-68199500D01*
X90045413Y-68226793D01*
X90045410Y-68226794D01*
X89954085Y-68279521D01*
X89879521Y-68354085D01*
X89826794Y-68445410D01*
X89826793Y-68445413D01*
X89799500Y-68547273D01*
X89400500Y-68547273D01*
X89400500Y-68473389D01*
X89373402Y-68302299D01*
X89319873Y-68137555D01*
X89241232Y-67983212D01*
X89139414Y-67843072D01*
X89016928Y-67720586D01*
X88876788Y-67618768D01*
X88722445Y-67540127D01*
X88557701Y-67486598D01*
X88557699Y-67486597D01*
X88557698Y-67486597D01*
X88426271Y-67465781D01*
X88386611Y-67459500D01*
X88213389Y-67459500D01*
X88173728Y-67465781D01*
X88042302Y-67486597D01*
X87877552Y-67540128D01*
X87723211Y-67618768D01*
X87662346Y-67662990D01*
X87583072Y-67720586D01*
X87583070Y-67720588D01*
X87583069Y-67720588D01*
X87460588Y-67843069D01*
X87460588Y-67843070D01*
X87460586Y-67843072D01*
X87426587Y-67889868D01*
X87358768Y-67983211D01*
X87280128Y-68137552D01*
X87226597Y-68302302D01*
X87210970Y-68400968D01*
X87199500Y-68473389D01*
X87199500Y-68646611D01*
X87200469Y-68652726D01*
X87223245Y-68796535D01*
X87226598Y-68817701D01*
X87280127Y-68982445D01*
X87358768Y-69136788D01*
X87460586Y-69276928D01*
X87583072Y-69399414D01*
X87723212Y-69501232D01*
X87746213Y-69512951D01*
X87751244Y-69515515D01*
X87802040Y-69563490D01*
X87818835Y-69631311D01*
X87796297Y-69697446D01*
X87741582Y-69740897D01*
X87694949Y-69750000D01*
X87402155Y-69750000D01*
X87342627Y-69756401D01*
X87342620Y-69756403D01*
X87207913Y-69806645D01*
X87207906Y-69806649D01*
X87092812Y-69892809D01*
X87092809Y-69892812D01*
X87006649Y-70007906D01*
X87006645Y-70007913D01*
X86956403Y-70142620D01*
X86956401Y-70142627D01*
X86950000Y-70202155D01*
X76783963Y-70202155D01*
X76779234Y-65933389D01*
X87199500Y-65933389D01*
X87199500Y-66106610D01*
X87211123Y-66179999D01*
X87226598Y-66277701D01*
X87280127Y-66442445D01*
X87358768Y-66596788D01*
X87460586Y-66736928D01*
X87583072Y-66859414D01*
X87723212Y-66961232D01*
X87877555Y-67039873D01*
X88042299Y-67093402D01*
X88213389Y-67120500D01*
X88213390Y-67120500D01*
X88386610Y-67120500D01*
X88386611Y-67120500D01*
X88557701Y-67093402D01*
X88722445Y-67039873D01*
X88876788Y-66961232D01*
X89016928Y-66859414D01*
X89139414Y-66736928D01*
X89241232Y-66596788D01*
X89319873Y-66442445D01*
X89373402Y-66277701D01*
X89400500Y-66106611D01*
X89400500Y-65933389D01*
X89373402Y-65762299D01*
X89319873Y-65597555D01*
X89241232Y-65443212D01*
X89139414Y-65303072D01*
X89016928Y-65180586D01*
X88876788Y-65078768D01*
X88722445Y-65000127D01*
X88557701Y-64946598D01*
X88557699Y-64946597D01*
X88557698Y-64946597D01*
X88426271Y-64925781D01*
X88386611Y-64919500D01*
X88213389Y-64919500D01*
X88173728Y-64925781D01*
X88042302Y-64946597D01*
X87877552Y-65000128D01*
X87723211Y-65078768D01*
X87643256Y-65136859D01*
X87583072Y-65180586D01*
X87583070Y-65180588D01*
X87583069Y-65180588D01*
X87460588Y-65303069D01*
X87460588Y-65303070D01*
X87460586Y-65303072D01*
X87423210Y-65354516D01*
X87358768Y-65443211D01*
X87280128Y-65597552D01*
X87226597Y-65762302D01*
X87199500Y-65933389D01*
X76779234Y-65933389D01*
X76777417Y-64293753D01*
X77750000Y-64293753D01*
X77750000Y-64506246D01*
X77783242Y-64716127D01*
X77783242Y-64716130D01*
X77848904Y-64918217D01*
X77945375Y-65107550D01*
X77984728Y-65161716D01*
X78617037Y-64529408D01*
X78634075Y-64592993D01*
X78699901Y-64707007D01*
X78792993Y-64800099D01*
X78907007Y-64865925D01*
X78970590Y-64882962D01*
X78338282Y-65515269D01*
X78338282Y-65515270D01*
X78392449Y-65554624D01*
X78581782Y-65651095D01*
X78783870Y-65716757D01*
X78993754Y-65750000D01*
X79206246Y-65750000D01*
X79416127Y-65716757D01*
X79416130Y-65716757D01*
X79618217Y-65651095D01*
X79807554Y-65554622D01*
X79861716Y-65515270D01*
X79861717Y-65515270D01*
X79229408Y-64882962D01*
X79292993Y-64865925D01*
X79407007Y-64800099D01*
X79500099Y-64707007D01*
X79565925Y-64592993D01*
X79582962Y-64529408D01*
X80215270Y-65161717D01*
X80215270Y-65161716D01*
X80254622Y-65107554D01*
X80351095Y-64918217D01*
X80389402Y-64800321D01*
X91599500Y-64800321D01*
X91599500Y-66549678D01*
X91614032Y-66622735D01*
X91614033Y-66622739D01*
X91614034Y-66622740D01*
X91669399Y-66705601D01*
X91731767Y-66747273D01*
X91752260Y-66760966D01*
X91752264Y-66760967D01*
X91825321Y-66775499D01*
X91825324Y-66775500D01*
X91825326Y-66775500D01*
X93574676Y-66775500D01*
X93574677Y-66775499D01*
X93647740Y-66760966D01*
X93668233Y-66747273D01*
X104219500Y-66747273D01*
X104219500Y-66852727D01*
X104246793Y-66954587D01*
X104299520Y-67045913D01*
X104374087Y-67120480D01*
X104465413Y-67173207D01*
X104567273Y-67200500D01*
X104567275Y-67200500D01*
X104672725Y-67200500D01*
X104672727Y-67200500D01*
X104774587Y-67173207D01*
X104865913Y-67120480D01*
X104940480Y-67045913D01*
X104993207Y-66954587D01*
X105020500Y-66852727D01*
X105020500Y-66747273D01*
X104993207Y-66645413D01*
X104940480Y-66554087D01*
X104865913Y-66479520D01*
X104774587Y-66426793D01*
X104672727Y-66399500D01*
X104567273Y-66399500D01*
X104465413Y-66426793D01*
X104465410Y-66426794D01*
X104374085Y-66479521D01*
X104299521Y-66554085D01*
X104246794Y-66645410D01*
X104246793Y-66645413D01*
X104219500Y-66747273D01*
X93668233Y-66747273D01*
X93730601Y-66705601D01*
X93785966Y-66622740D01*
X93800500Y-66549674D01*
X93800500Y-66056045D01*
X106365000Y-66056045D01*
X106365000Y-66303954D01*
X106403782Y-66548814D01*
X106480388Y-66784587D01*
X106480389Y-66784590D01*
X106592939Y-67005480D01*
X106663646Y-67102798D01*
X106663647Y-67102799D01*
X107262421Y-66504024D01*
X107275359Y-66535258D01*
X107357437Y-66658097D01*
X107461903Y-66762563D01*
X107584742Y-66844641D01*
X107615974Y-66857578D01*
X107017199Y-67456352D01*
X107114521Y-67527060D01*
X107114527Y-67527064D01*
X107335409Y-67639610D01*
X107335412Y-67639611D01*
X107401284Y-67661014D01*
X107458959Y-67700451D01*
X107486158Y-67764810D01*
X107486584Y-67788674D01*
X107484077Y-67820524D01*
X108113250Y-68449697D01*
X108032447Y-68471349D01*
X107927554Y-68531909D01*
X107841909Y-68617554D01*
X107781349Y-68722447D01*
X107759697Y-68803250D01*
X107130524Y-68174077D01*
X107130523Y-68174077D01*
X107098143Y-68218644D01*
X107005244Y-68400968D01*
X106942009Y-68595582D01*
X106910000Y-68797682D01*
X106910000Y-69002317D01*
X106942009Y-69204417D01*
X107005244Y-69399031D01*
X107098141Y-69581350D01*
X107098147Y-69581359D01*
X107130523Y-69625921D01*
X107130524Y-69625922D01*
X107759697Y-68996749D01*
X107781349Y-69077553D01*
X107841909Y-69182446D01*
X107927554Y-69268091D01*
X108032447Y-69328651D01*
X108113249Y-69350302D01*
X107484076Y-69979474D01*
X107486583Y-70011327D01*
X107472218Y-70079704D01*
X107423166Y-70129461D01*
X107401283Y-70138986D01*
X107335412Y-70160388D01*
X107335409Y-70160389D01*
X107114516Y-70272941D01*
X107017200Y-70343644D01*
X107017199Y-70343646D01*
X107615975Y-70942421D01*
X107584742Y-70955359D01*
X107461903Y-71037437D01*
X107357437Y-71141903D01*
X107275359Y-71264742D01*
X107262421Y-71295974D01*
X106663646Y-70697199D01*
X106663644Y-70697200D01*
X106592941Y-70794516D01*
X106480389Y-71015409D01*
X106480388Y-71015412D01*
X106403782Y-71251185D01*
X106365000Y-71496045D01*
X106365000Y-71743954D01*
X106403782Y-71988814D01*
X106480388Y-72224587D01*
X106480389Y-72224590D01*
X106592939Y-72445480D01*
X106663646Y-72542798D01*
X106663647Y-72542799D01*
X107262421Y-71944024D01*
X107275359Y-71975258D01*
X107357437Y-72098097D01*
X107461903Y-72202563D01*
X107584742Y-72284641D01*
X107615974Y-72297578D01*
X107017199Y-72896352D01*
X107114521Y-72967060D01*
X107114527Y-72967064D01*
X107335409Y-73079610D01*
X107335412Y-73079611D01*
X107571185Y-73156217D01*
X107816046Y-73195000D01*
X108063954Y-73195000D01*
X108308814Y-73156217D01*
X108544587Y-73079611D01*
X108544590Y-73079610D01*
X108765480Y-72967060D01*
X108862798Y-72896352D01*
X108264024Y-72297578D01*
X108295258Y-72284641D01*
X108418097Y-72202563D01*
X108522563Y-72098097D01*
X108604641Y-71975258D01*
X108617578Y-71944025D01*
X109216352Y-72542799D01*
X109216352Y-72542798D01*
X109287060Y-72445480D01*
X109399610Y-72224590D01*
X109399611Y-72224587D01*
X109476217Y-71988814D01*
X109515000Y-71743954D01*
X109515000Y-71496045D01*
X109476217Y-71251185D01*
X109399611Y-71015412D01*
X109399610Y-71015409D01*
X109287064Y-70794527D01*
X109287060Y-70794521D01*
X109216352Y-70697200D01*
X109216352Y-70697199D01*
X108617577Y-71295974D01*
X108604641Y-71264742D01*
X108522563Y-71141903D01*
X108418097Y-71037437D01*
X108295258Y-70955359D01*
X108264024Y-70942421D01*
X108862799Y-70343647D01*
X108862798Y-70343646D01*
X108769851Y-70276115D01*
X108727186Y-70220785D01*
X108721207Y-70151171D01*
X108753813Y-70089376D01*
X108786443Y-70065312D01*
X108891346Y-70011861D01*
X108891347Y-70011861D01*
X108935921Y-69979474D01*
X108306749Y-69350302D01*
X108387553Y-69328651D01*
X108492446Y-69268091D01*
X108578091Y-69182446D01*
X108638651Y-69077553D01*
X108660302Y-68996750D01*
X109289474Y-69625922D01*
X109304913Y-69624706D01*
X109327134Y-69607571D01*
X109396748Y-69601590D01*
X109458544Y-69634194D01*
X109459807Y-69635440D01*
X109540342Y-69715975D01*
X109540345Y-69715977D01*
X109712402Y-69830941D01*
X109903580Y-69910130D01*
X110106530Y-69950499D01*
X110106534Y-69950500D01*
X110106535Y-69950500D01*
X110313466Y-69950500D01*
X110313467Y-69950499D01*
X110516420Y-69910130D01*
X110707598Y-69830941D01*
X110879655Y-69715977D01*
X111025977Y-69569655D01*
X111106898Y-69448546D01*
X111160509Y-69403742D01*
X111229834Y-69395035D01*
X111292862Y-69425189D01*
X111313100Y-69448545D01*
X111328612Y-69471760D01*
X111394024Y-69569657D01*
X111540342Y-69715975D01*
X111540345Y-69715977D01*
X111712402Y-69830941D01*
X111903580Y-69910130D01*
X112106530Y-69950499D01*
X112106534Y-69950500D01*
X112106535Y-69950500D01*
X112313466Y-69950500D01*
X112313467Y-69950499D01*
X112516420Y-69910130D01*
X112707598Y-69830941D01*
X112879655Y-69715977D01*
X112948243Y-69647388D01*
X113009564Y-69613905D01*
X113079256Y-69618889D01*
X113135190Y-69660760D01*
X113157736Y-69718814D01*
X113158311Y-69718700D01*
X113158960Y-69721965D01*
X113159325Y-69722904D01*
X113159499Y-69724675D01*
X113174032Y-69797735D01*
X113174033Y-69797739D01*
X113192405Y-69825235D01*
X113229399Y-69880601D01*
X113312260Y-69935966D01*
X113312264Y-69935967D01*
X113385321Y-69950499D01*
X113385324Y-69950500D01*
X114230844Y-69950500D01*
X114297883Y-69970185D01*
X114343638Y-70022989D01*
X114353582Y-70092147D01*
X114324557Y-70155703D01*
X114287139Y-70184985D01*
X114114516Y-70272941D01*
X114017200Y-70343644D01*
X114017199Y-70343646D01*
X114615975Y-70942421D01*
X114584742Y-70955359D01*
X114461903Y-71037437D01*
X114357437Y-71141903D01*
X114275359Y-71264742D01*
X114262421Y-71295974D01*
X113663646Y-70697199D01*
X113663644Y-70697200D01*
X113592941Y-70794516D01*
X113480389Y-71015409D01*
X113480388Y-71015412D01*
X113403782Y-71251185D01*
X113365000Y-71496045D01*
X113365000Y-71743954D01*
X113403782Y-71988814D01*
X113480388Y-72224587D01*
X113480389Y-72224590D01*
X113592939Y-72445480D01*
X113663646Y-72542798D01*
X113663647Y-72542799D01*
X114262421Y-71944024D01*
X114275359Y-71975258D01*
X114357437Y-72098097D01*
X114461903Y-72202563D01*
X114584742Y-72284641D01*
X114615974Y-72297578D01*
X114017199Y-72896352D01*
X114114521Y-72967060D01*
X114114527Y-72967064D01*
X114335409Y-73079610D01*
X114335412Y-73079611D01*
X114571185Y-73156217D01*
X114816046Y-73195000D01*
X115063954Y-73195000D01*
X115308814Y-73156217D01*
X115544587Y-73079611D01*
X115544590Y-73079610D01*
X115765480Y-72967060D01*
X115862798Y-72896352D01*
X115264024Y-72297578D01*
X115295258Y-72284641D01*
X115418097Y-72202563D01*
X115522563Y-72098097D01*
X115604641Y-71975258D01*
X115617578Y-71944025D01*
X116216352Y-72542799D01*
X116216352Y-72542798D01*
X116287060Y-72445480D01*
X116399610Y-72224590D01*
X116399611Y-72224587D01*
X116476217Y-71988814D01*
X116515000Y-71743954D01*
X116515000Y-71496045D01*
X116476217Y-71251185D01*
X116399611Y-71015412D01*
X116399610Y-71015409D01*
X116287064Y-70794527D01*
X116287060Y-70794521D01*
X116216352Y-70697200D01*
X116216352Y-70697199D01*
X115617577Y-71295974D01*
X115604641Y-71264742D01*
X115522563Y-71141903D01*
X115418097Y-71037437D01*
X115295258Y-70955359D01*
X115264024Y-70942421D01*
X115862799Y-70343647D01*
X115862798Y-70343646D01*
X115765480Y-70272939D01*
X115544590Y-70160389D01*
X115544587Y-70160388D01*
X115308814Y-70083782D01*
X115270466Y-70077708D01*
X115207331Y-70047778D01*
X115170401Y-69988466D01*
X115171399Y-69918604D01*
X115186763Y-69886345D01*
X115245964Y-69797743D01*
X115245964Y-69797742D01*
X115245966Y-69797740D01*
X115246059Y-69797275D01*
X115246342Y-69795847D01*
X115260500Y-69724674D01*
X115260500Y-68075326D01*
X115260500Y-68075323D01*
X115260499Y-68075321D01*
X115245967Y-68002264D01*
X115245966Y-68002260D01*
X115223782Y-67969059D01*
X115190601Y-67919399D01*
X115190600Y-67919398D01*
X115186762Y-67913654D01*
X115165885Y-67846976D01*
X115184370Y-67779596D01*
X115236349Y-67732907D01*
X115270469Y-67722290D01*
X115308818Y-67716216D01*
X115544587Y-67639611D01*
X115544590Y-67639610D01*
X115765480Y-67527060D01*
X115862798Y-67456352D01*
X115264024Y-66857578D01*
X115295258Y-66844641D01*
X115418097Y-66762563D01*
X115522563Y-66658097D01*
X115604641Y-66535258D01*
X115617578Y-66504024D01*
X116216352Y-67102798D01*
X116287060Y-67005480D01*
X116399610Y-66784590D01*
X116399611Y-66784587D01*
X116476217Y-66548814D01*
X116515000Y-66303954D01*
X116515000Y-66056045D01*
X116476217Y-65811185D01*
X116399611Y-65575412D01*
X116399610Y-65575409D01*
X116287064Y-65354527D01*
X116287060Y-65354521D01*
X116216352Y-65257200D01*
X116216352Y-65257199D01*
X115617577Y-65855974D01*
X115604641Y-65824742D01*
X115522563Y-65701903D01*
X115418097Y-65597437D01*
X115295258Y-65515359D01*
X115264024Y-65502421D01*
X115862799Y-64903647D01*
X115862798Y-64903646D01*
X115765480Y-64832939D01*
X115544590Y-64720389D01*
X115544587Y-64720388D01*
X115308814Y-64643782D01*
X115063954Y-64605000D01*
X114816046Y-64605000D01*
X114571185Y-64643782D01*
X114335412Y-64720388D01*
X114335409Y-64720389D01*
X114114516Y-64832941D01*
X114017200Y-64903644D01*
X114017199Y-64903646D01*
X114615975Y-65502421D01*
X114584742Y-65515359D01*
X114461903Y-65597437D01*
X114357437Y-65701903D01*
X114275359Y-65824742D01*
X114262421Y-65855974D01*
X113663646Y-65257199D01*
X113663644Y-65257200D01*
X113592941Y-65354516D01*
X113480389Y-65575409D01*
X113480388Y-65575412D01*
X113403782Y-65811185D01*
X113365000Y-66056045D01*
X113365000Y-66303954D01*
X113403782Y-66548814D01*
X113480388Y-66784587D01*
X113480389Y-66784590D01*
X113592939Y-67005480D01*
X113663646Y-67102798D01*
X113663647Y-67102799D01*
X114262421Y-66504024D01*
X114275359Y-66535258D01*
X114357437Y-66658097D01*
X114461903Y-66762563D01*
X114584742Y-66844641D01*
X114615974Y-66857578D01*
X114017199Y-67456352D01*
X114114521Y-67527060D01*
X114114527Y-67527064D01*
X114287139Y-67615015D01*
X114337935Y-67662990D01*
X114354730Y-67730811D01*
X114332193Y-67796946D01*
X114277477Y-67840397D01*
X114230844Y-67849500D01*
X113385323Y-67849500D01*
X113312264Y-67864032D01*
X113312260Y-67864033D01*
X113229399Y-67919399D01*
X113174033Y-68002260D01*
X113174032Y-68002264D01*
X113159499Y-68075323D01*
X113159325Y-68077096D01*
X113158974Y-68077963D01*
X113158311Y-68081300D01*
X113157677Y-68081174D01*
X113133156Y-68141880D01*
X113076117Y-68182233D01*
X113006317Y-68185342D01*
X112948242Y-68152609D01*
X112879657Y-68084024D01*
X112757287Y-68002260D01*
X112707598Y-67969059D01*
X112679214Y-67957302D01*
X112516420Y-67889870D01*
X112516412Y-67889868D01*
X112313469Y-67849500D01*
X112313465Y-67849500D01*
X112106535Y-67849500D01*
X112106530Y-67849500D01*
X111903587Y-67889868D01*
X111903579Y-67889870D01*
X111712403Y-67969058D01*
X111540342Y-68084024D01*
X111394025Y-68230341D01*
X111394019Y-68230349D01*
X111313102Y-68351451D01*
X111259490Y-68396257D01*
X111190165Y-68404964D01*
X111127138Y-68374810D01*
X111106898Y-68351451D01*
X111025980Y-68230349D01*
X111025974Y-68230341D01*
X110879657Y-68084024D01*
X110757287Y-68002260D01*
X110707598Y-67969059D01*
X110679214Y-67957302D01*
X110516420Y-67889870D01*
X110516412Y-67889868D01*
X110313469Y-67849500D01*
X110313465Y-67849500D01*
X110106535Y-67849500D01*
X110106530Y-67849500D01*
X109903587Y-67889868D01*
X109903579Y-67889870D01*
X109712403Y-67969058D01*
X109540344Y-68084023D01*
X109459808Y-68164559D01*
X109398484Y-68198043D01*
X109328793Y-68193059D01*
X109305076Y-68175304D01*
X109289474Y-68174076D01*
X108660302Y-68803249D01*
X108638651Y-68722447D01*
X108578091Y-68617554D01*
X108492446Y-68531909D01*
X108387553Y-68471349D01*
X108306748Y-68449697D01*
X108935922Y-67820524D01*
X108935921Y-67820523D01*
X108891359Y-67788147D01*
X108891345Y-67788138D01*
X108786441Y-67734686D01*
X108735646Y-67686712D01*
X108718851Y-67618891D01*
X108741389Y-67552756D01*
X108769851Y-67523885D01*
X108862798Y-67456353D01*
X108862798Y-67456352D01*
X108264024Y-66857578D01*
X108295258Y-66844641D01*
X108418097Y-66762563D01*
X108522563Y-66658097D01*
X108604641Y-66535258D01*
X108617578Y-66504025D01*
X109216352Y-67102799D01*
X109216352Y-67102798D01*
X109287060Y-67005480D01*
X109399610Y-66784590D01*
X109399611Y-66784587D01*
X109476217Y-66548814D01*
X109515000Y-66303954D01*
X109515000Y-66056045D01*
X109476217Y-65811185D01*
X109399611Y-65575412D01*
X109399610Y-65575409D01*
X109287064Y-65354527D01*
X109287060Y-65354521D01*
X109216352Y-65257200D01*
X109216352Y-65257199D01*
X108617577Y-65855974D01*
X108604641Y-65824742D01*
X108522563Y-65701903D01*
X108418097Y-65597437D01*
X108295258Y-65515359D01*
X108264024Y-65502421D01*
X108862799Y-64903647D01*
X108862798Y-64903646D01*
X108765480Y-64832939D01*
X108544590Y-64720389D01*
X108544587Y-64720388D01*
X108308814Y-64643782D01*
X108063954Y-64605000D01*
X107816046Y-64605000D01*
X107571185Y-64643782D01*
X107335412Y-64720388D01*
X107335409Y-64720389D01*
X107114516Y-64832941D01*
X107017200Y-64903644D01*
X107017199Y-64903646D01*
X107615975Y-65502421D01*
X107584742Y-65515359D01*
X107461903Y-65597437D01*
X107357437Y-65701903D01*
X107275359Y-65824742D01*
X107262421Y-65855974D01*
X106663646Y-65257199D01*
X106663644Y-65257200D01*
X106592941Y-65354516D01*
X106480389Y-65575409D01*
X106480388Y-65575412D01*
X106403782Y-65811185D01*
X106365000Y-66056045D01*
X93800500Y-66056045D01*
X93800500Y-64800326D01*
X93800500Y-64800323D01*
X93800499Y-64800321D01*
X93785967Y-64727264D01*
X93785966Y-64727260D01*
X93778527Y-64716127D01*
X93730601Y-64644399D01*
X93671635Y-64605000D01*
X93647739Y-64589033D01*
X93647735Y-64589032D01*
X93574677Y-64574500D01*
X93574674Y-64574500D01*
X91825326Y-64574500D01*
X91825323Y-64574500D01*
X91752264Y-64589032D01*
X91752260Y-64589033D01*
X91669399Y-64644399D01*
X91614033Y-64727260D01*
X91614032Y-64727264D01*
X91599500Y-64800321D01*
X80389402Y-64800321D01*
X80403830Y-64755916D01*
X80416757Y-64716130D01*
X80416757Y-64716127D01*
X80450000Y-64506246D01*
X80450000Y-64293753D01*
X80416757Y-64083872D01*
X80416757Y-64083869D01*
X80351095Y-63881782D01*
X80254624Y-63692449D01*
X80215270Y-63638282D01*
X80215269Y-63638282D01*
X79582962Y-64270590D01*
X79565925Y-64207007D01*
X79500099Y-64092993D01*
X79407007Y-63999901D01*
X79292993Y-63934075D01*
X79229409Y-63917037D01*
X79753056Y-63393389D01*
X87199500Y-63393389D01*
X87199500Y-63566611D01*
X87226598Y-63737701D01*
X87280127Y-63902445D01*
X87358768Y-64056788D01*
X87460586Y-64196928D01*
X87583072Y-64319414D01*
X87723212Y-64421232D01*
X87877555Y-64499873D01*
X88042299Y-64553402D01*
X88213389Y-64580500D01*
X88213390Y-64580500D01*
X88386610Y-64580500D01*
X88386611Y-64580500D01*
X88557701Y-64553402D01*
X88722445Y-64499873D01*
X88876788Y-64421232D01*
X89016928Y-64319414D01*
X89139414Y-64196928D01*
X89241232Y-64056788D01*
X89319873Y-63902445D01*
X89373402Y-63737701D01*
X89400500Y-63566611D01*
X89400500Y-63393389D01*
X89373402Y-63222299D01*
X89319873Y-63057555D01*
X89241232Y-62903212D01*
X89139414Y-62763072D01*
X89016928Y-62640586D01*
X88876788Y-62538768D01*
X88722445Y-62460127D01*
X88557701Y-62406598D01*
X88557699Y-62406597D01*
X88557698Y-62406597D01*
X88426271Y-62385781D01*
X88386611Y-62379500D01*
X88213389Y-62379500D01*
X88173728Y-62385781D01*
X88042302Y-62406597D01*
X87877552Y-62460128D01*
X87723211Y-62538768D01*
X87643256Y-62596859D01*
X87583072Y-62640586D01*
X87583070Y-62640588D01*
X87583069Y-62640588D01*
X87460588Y-62763069D01*
X87460588Y-62763070D01*
X87460586Y-62763072D01*
X87432862Y-62801231D01*
X87358768Y-62903211D01*
X87280128Y-63057552D01*
X87226597Y-63222302D01*
X87222943Y-63245375D01*
X87199500Y-63393389D01*
X79753056Y-63393389D01*
X79845609Y-63300836D01*
X79861716Y-63284728D01*
X79807550Y-63245375D01*
X79618217Y-63148904D01*
X79519287Y-63116760D01*
X79461611Y-63077323D01*
X79434413Y-63012964D01*
X79446328Y-62944118D01*
X79493572Y-62892642D01*
X79519290Y-62880897D01*
X79522445Y-62879873D01*
X79676788Y-62801232D01*
X79816928Y-62699414D01*
X79939414Y-62576928D01*
X80041232Y-62436788D01*
X80119873Y-62282445D01*
X80173402Y-62117701D01*
X80200500Y-61946611D01*
X80200500Y-61797273D01*
X93399500Y-61797273D01*
X93399500Y-61902727D01*
X93426793Y-62004587D01*
X93479520Y-62095913D01*
X93554087Y-62170480D01*
X93645413Y-62223207D01*
X93747273Y-62250500D01*
X93747275Y-62250500D01*
X93852725Y-62250500D01*
X93852727Y-62250500D01*
X93954587Y-62223207D01*
X94045913Y-62170480D01*
X94120480Y-62095913D01*
X94173207Y-62004587D01*
X94200500Y-61902727D01*
X94200500Y-61797273D01*
X94173705Y-61697273D01*
X97099500Y-61697273D01*
X97099500Y-61802727D01*
X97126793Y-61904587D01*
X97179520Y-61995913D01*
X97254087Y-62070480D01*
X97345413Y-62123207D01*
X97447273Y-62150500D01*
X97447275Y-62150500D01*
X97552725Y-62150500D01*
X97552727Y-62150500D01*
X97654587Y-62123207D01*
X97745913Y-62070480D01*
X97820480Y-61995913D01*
X97873207Y-61904587D01*
X97900500Y-61802727D01*
X97900500Y-61697273D01*
X97873207Y-61595413D01*
X97845413Y-61547273D01*
X106199500Y-61547273D01*
X106199500Y-61652727D01*
X106226793Y-61754587D01*
X106279520Y-61845913D01*
X106354087Y-61920480D01*
X106445413Y-61973207D01*
X106547273Y-62000500D01*
X106547275Y-62000500D01*
X106652725Y-62000500D01*
X106652727Y-62000500D01*
X106754587Y-61973207D01*
X106845913Y-61920480D01*
X106920480Y-61845913D01*
X106973207Y-61754587D01*
X107000500Y-61652727D01*
X107000500Y-61547273D01*
X106973207Y-61445413D01*
X106920480Y-61354087D01*
X106845913Y-61279520D01*
X106754587Y-61226793D01*
X106652727Y-61199500D01*
X106547273Y-61199500D01*
X106445413Y-61226793D01*
X106445410Y-61226794D01*
X106354085Y-61279521D01*
X106279521Y-61354085D01*
X106226794Y-61445410D01*
X106226793Y-61445413D01*
X106199500Y-61547273D01*
X97845413Y-61547273D01*
X97820480Y-61504087D01*
X97745913Y-61429520D01*
X97654587Y-61376793D01*
X97552727Y-61349500D01*
X97447273Y-61349500D01*
X97345413Y-61376793D01*
X97345410Y-61376794D01*
X97254085Y-61429521D01*
X97179521Y-61504085D01*
X97126794Y-61595410D01*
X97126793Y-61595413D01*
X97099500Y-61697273D01*
X94173705Y-61697273D01*
X94173207Y-61695413D01*
X94120480Y-61604087D01*
X94045913Y-61529520D01*
X93954587Y-61476793D01*
X93852727Y-61449500D01*
X93747273Y-61449500D01*
X93645413Y-61476793D01*
X93645410Y-61476794D01*
X93554085Y-61529521D01*
X93479521Y-61604085D01*
X93426794Y-61695410D01*
X93426794Y-61695411D01*
X93426793Y-61695413D01*
X93399500Y-61797273D01*
X80200500Y-61797273D01*
X80200500Y-61773389D01*
X80173402Y-61602299D01*
X80119873Y-61437555D01*
X80041232Y-61283212D01*
X79939414Y-61143072D01*
X79816928Y-61020586D01*
X79676788Y-60918768D01*
X79522445Y-60840127D01*
X79357701Y-60786598D01*
X79357699Y-60786597D01*
X79357698Y-60786597D01*
X79226271Y-60765781D01*
X79186611Y-60759500D01*
X79013389Y-60759500D01*
X78973728Y-60765781D01*
X78842302Y-60786597D01*
X78677552Y-60840128D01*
X78523211Y-60918768D01*
X78443256Y-60976859D01*
X78383072Y-61020586D01*
X78383070Y-61020588D01*
X78383069Y-61020588D01*
X78260588Y-61143069D01*
X78260588Y-61143070D01*
X78260586Y-61143072D01*
X78219589Y-61199500D01*
X78158768Y-61283211D01*
X78080128Y-61437552D01*
X78026597Y-61602302D01*
X77999500Y-61773389D01*
X77999500Y-61946610D01*
X78019118Y-62070478D01*
X78026598Y-62117701D01*
X78080127Y-62282445D01*
X78158768Y-62436788D01*
X78260586Y-62576928D01*
X78383072Y-62699414D01*
X78523212Y-62801232D01*
X78677555Y-62879873D01*
X78680708Y-62880897D01*
X78681752Y-62881611D01*
X78682048Y-62881734D01*
X78682022Y-62881795D01*
X78738383Y-62920330D01*
X78765585Y-62984688D01*
X78753674Y-63053535D01*
X78706433Y-63105013D01*
X78680712Y-63116760D01*
X78581783Y-63148904D01*
X78392439Y-63245380D01*
X78338282Y-63284727D01*
X78338282Y-63284728D01*
X78970591Y-63917037D01*
X78907007Y-63934075D01*
X78792993Y-63999901D01*
X78699901Y-64092993D01*
X78634075Y-64207007D01*
X78617037Y-64270591D01*
X77984728Y-63638282D01*
X77984727Y-63638282D01*
X77945380Y-63692439D01*
X77848904Y-63881782D01*
X77783242Y-64083869D01*
X77783242Y-64083872D01*
X77750000Y-64293753D01*
X76777417Y-64293753D01*
X76775153Y-62250499D01*
X76774619Y-61768654D01*
X76771810Y-59233389D01*
X77999500Y-59233389D01*
X77999500Y-59406611D01*
X78026598Y-59577701D01*
X78080127Y-59742445D01*
X78158768Y-59896788D01*
X78260586Y-60036928D01*
X78383072Y-60159414D01*
X78523212Y-60261232D01*
X78677555Y-60339873D01*
X78842299Y-60393402D01*
X79013389Y-60420500D01*
X79013390Y-60420500D01*
X79186610Y-60420500D01*
X79186611Y-60420500D01*
X79357701Y-60393402D01*
X79522445Y-60339873D01*
X79676788Y-60261232D01*
X79816928Y-60159414D01*
X79939414Y-60036928D01*
X80040880Y-59897273D01*
X113299500Y-59897273D01*
X113299500Y-60002727D01*
X113326793Y-60104587D01*
X113379520Y-60195913D01*
X113454087Y-60270480D01*
X113545413Y-60323207D01*
X113647273Y-60350500D01*
X113647275Y-60350500D01*
X113752725Y-60350500D01*
X113752727Y-60350500D01*
X113854587Y-60323207D01*
X113945913Y-60270480D01*
X114020480Y-60195913D01*
X114073207Y-60104587D01*
X114100500Y-60002727D01*
X114100500Y-59897273D01*
X114073207Y-59795413D01*
X114020480Y-59704087D01*
X113945913Y-59629520D01*
X113854587Y-59576793D01*
X113752727Y-59549500D01*
X113647273Y-59549500D01*
X113545413Y-59576793D01*
X113545410Y-59576794D01*
X113454085Y-59629521D01*
X113379521Y-59704085D01*
X113326794Y-59795410D01*
X113326793Y-59795413D01*
X113299500Y-59897273D01*
X80040880Y-59897273D01*
X80041232Y-59896788D01*
X80119873Y-59742445D01*
X80173402Y-59577701D01*
X80200500Y-59406611D01*
X80200500Y-59247273D01*
X84349500Y-59247273D01*
X84349500Y-59352727D01*
X84376793Y-59454587D01*
X84429520Y-59545913D01*
X84504087Y-59620480D01*
X84595413Y-59673207D01*
X84697273Y-59700500D01*
X84697275Y-59700500D01*
X84802725Y-59700500D01*
X84802727Y-59700500D01*
X84904587Y-59673207D01*
X84995913Y-59620480D01*
X85070480Y-59545913D01*
X85123207Y-59454587D01*
X85150500Y-59352727D01*
X85150500Y-59297273D01*
X101849500Y-59297273D01*
X101849500Y-59402727D01*
X101876793Y-59504587D01*
X101929520Y-59595913D01*
X102004087Y-59670480D01*
X102095413Y-59723207D01*
X102197273Y-59750500D01*
X102197275Y-59750500D01*
X102302725Y-59750500D01*
X102302727Y-59750500D01*
X102404587Y-59723207D01*
X102495913Y-59670480D01*
X102570480Y-59595913D01*
X102623207Y-59504587D01*
X102650500Y-59402727D01*
X102650500Y-59297273D01*
X102623207Y-59195413D01*
X102570480Y-59104087D01*
X102495913Y-59029520D01*
X102409312Y-58979521D01*
X102404589Y-58976794D01*
X102404588Y-58976793D01*
X102404587Y-58976793D01*
X102302727Y-58949500D01*
X102197273Y-58949500D01*
X102095413Y-58976793D01*
X102095410Y-58976794D01*
X102004085Y-59029521D01*
X101929521Y-59104085D01*
X101876794Y-59195410D01*
X101876793Y-59195413D01*
X101849500Y-59297273D01*
X85150500Y-59297273D01*
X85150500Y-59247273D01*
X85123207Y-59145413D01*
X85070480Y-59054087D01*
X84995913Y-58979520D01*
X84904587Y-58926793D01*
X84802727Y-58899500D01*
X84697273Y-58899500D01*
X84595413Y-58926793D01*
X84595410Y-58926794D01*
X84504085Y-58979521D01*
X84429521Y-59054085D01*
X84376794Y-59145410D01*
X84376793Y-59145413D01*
X84349500Y-59247273D01*
X80200500Y-59247273D01*
X80200500Y-59233389D01*
X80173402Y-59062299D01*
X80119873Y-58897555D01*
X80041232Y-58743212D01*
X80000590Y-58687273D01*
X112919500Y-58687273D01*
X112919500Y-58792726D01*
X112946793Y-58894586D01*
X112946794Y-58894589D01*
X112960922Y-58919059D01*
X112999520Y-58985913D01*
X113074087Y-59060480D01*
X113165413Y-59113207D01*
X113267273Y-59140500D01*
X113267275Y-59140500D01*
X113372725Y-59140500D01*
X113372727Y-59140500D01*
X113474587Y-59113207D01*
X113565913Y-59060480D01*
X113640480Y-58985913D01*
X113693207Y-58894587D01*
X113720500Y-58792727D01*
X113720500Y-58687273D01*
X113693207Y-58585413D01*
X113640480Y-58494087D01*
X113565913Y-58419520D01*
X113495328Y-58378768D01*
X113474589Y-58366794D01*
X113474588Y-58366793D01*
X113474587Y-58366793D01*
X113372727Y-58339500D01*
X113267273Y-58339500D01*
X113165413Y-58366793D01*
X113165410Y-58366794D01*
X113074085Y-58419521D01*
X112999521Y-58494085D01*
X112946794Y-58585410D01*
X112946793Y-58585413D01*
X112919500Y-58687273D01*
X80000590Y-58687273D01*
X79939414Y-58603072D01*
X79816928Y-58480586D01*
X79676788Y-58378768D01*
X79665870Y-58373205D01*
X79522447Y-58300128D01*
X79522446Y-58300127D01*
X79522445Y-58300127D01*
X79357701Y-58246598D01*
X79357699Y-58246597D01*
X79357698Y-58246597D01*
X79226271Y-58225781D01*
X79186611Y-58219500D01*
X79013389Y-58219500D01*
X78973728Y-58225781D01*
X78842302Y-58246597D01*
X78677552Y-58300128D01*
X78523211Y-58378768D01*
X78467122Y-58419520D01*
X78383072Y-58480586D01*
X78383070Y-58480588D01*
X78383069Y-58480588D01*
X78260588Y-58603069D01*
X78260588Y-58603070D01*
X78260586Y-58603072D01*
X78216859Y-58663256D01*
X78158768Y-58743211D01*
X78080128Y-58897552D01*
X78026597Y-59062302D01*
X78013434Y-59145413D01*
X77999500Y-59233389D01*
X76771810Y-59233389D01*
X76771805Y-59228654D01*
X76770385Y-57947273D01*
X89099500Y-57947273D01*
X89099500Y-58052727D01*
X89126793Y-58154587D01*
X89179520Y-58245913D01*
X89254087Y-58320480D01*
X89345413Y-58373207D01*
X89447273Y-58400500D01*
X89447275Y-58400500D01*
X89552725Y-58400500D01*
X89552727Y-58400500D01*
X89654587Y-58373207D01*
X89745913Y-58320480D01*
X89820480Y-58245913D01*
X89873207Y-58154587D01*
X89900500Y-58052727D01*
X89900500Y-57947273D01*
X89873207Y-57845413D01*
X89820480Y-57754087D01*
X89745913Y-57679520D01*
X89654587Y-57626793D01*
X89552727Y-57599500D01*
X89447273Y-57599500D01*
X89345413Y-57626793D01*
X89345410Y-57626794D01*
X89254085Y-57679521D01*
X89179521Y-57754085D01*
X89126794Y-57845410D01*
X89126793Y-57845413D01*
X89099500Y-57947273D01*
X76770385Y-57947273D01*
X76768123Y-55905321D01*
X77999500Y-55905321D01*
X77999500Y-57654678D01*
X78014032Y-57727735D01*
X78014033Y-57727739D01*
X78014034Y-57727740D01*
X78069399Y-57810601D01*
X78121500Y-57845413D01*
X78152260Y-57865966D01*
X78152264Y-57865967D01*
X78225321Y-57880499D01*
X78225324Y-57880500D01*
X78225326Y-57880500D01*
X79974676Y-57880500D01*
X79974677Y-57880499D01*
X80047740Y-57865966D01*
X80130601Y-57810601D01*
X80185966Y-57727740D01*
X80200500Y-57654674D01*
X80200500Y-56647273D01*
X104999500Y-56647273D01*
X104999500Y-56752727D01*
X105026793Y-56854587D01*
X105079520Y-56945913D01*
X105154087Y-57020480D01*
X105245413Y-57073207D01*
X105347273Y-57100500D01*
X105347275Y-57100500D01*
X105452725Y-57100500D01*
X105452727Y-57100500D01*
X105554587Y-57073207D01*
X105645913Y-57020480D01*
X105720480Y-56945913D01*
X105773207Y-56854587D01*
X105800500Y-56752727D01*
X105800500Y-56647273D01*
X105773207Y-56545413D01*
X105720480Y-56454087D01*
X105645913Y-56379520D01*
X105554587Y-56326793D01*
X105452727Y-56299500D01*
X105347273Y-56299500D01*
X105245413Y-56326793D01*
X105245410Y-56326794D01*
X105154085Y-56379521D01*
X105079521Y-56454085D01*
X105026794Y-56545410D01*
X105026793Y-56545413D01*
X104999500Y-56647273D01*
X80200500Y-56647273D01*
X80200500Y-55905326D01*
X80200500Y-55905323D01*
X80200499Y-55905321D01*
X80185967Y-55832264D01*
X80185966Y-55832260D01*
X80184789Y-55830499D01*
X80130601Y-55749399D01*
X80047740Y-55694034D01*
X80047739Y-55694033D01*
X80047735Y-55694032D01*
X79974677Y-55679500D01*
X79974674Y-55679500D01*
X78225326Y-55679500D01*
X78225323Y-55679500D01*
X78152264Y-55694032D01*
X78152260Y-55694033D01*
X78069399Y-55749399D01*
X78014033Y-55832260D01*
X78014032Y-55832264D01*
X77999500Y-55905321D01*
X76768123Y-55905321D01*
X76768116Y-55899371D01*
X76767538Y-55377273D01*
X112239500Y-55377273D01*
X112239500Y-55482727D01*
X112266793Y-55584587D01*
X112319520Y-55675913D01*
X112394087Y-55750480D01*
X112485413Y-55803207D01*
X112587273Y-55830500D01*
X112587275Y-55830500D01*
X112692725Y-55830500D01*
X112692727Y-55830500D01*
X112794587Y-55803207D01*
X112885913Y-55750480D01*
X112960480Y-55675913D01*
X113013207Y-55584587D01*
X113040500Y-55482727D01*
X113040500Y-55377273D01*
X113013207Y-55275413D01*
X112960480Y-55184087D01*
X112885913Y-55109520D01*
X112794587Y-55056793D01*
X112692727Y-55029500D01*
X112587273Y-55029500D01*
X112485413Y-55056793D01*
X112485410Y-55056794D01*
X112394085Y-55109521D01*
X112319521Y-55184085D01*
X112266794Y-55275410D01*
X112266793Y-55275413D01*
X112239500Y-55377273D01*
X76767538Y-55377273D01*
X76767529Y-55369283D01*
X76766757Y-54672273D01*
X119274500Y-54672273D01*
X119274500Y-54777727D01*
X119301793Y-54879587D01*
X119354520Y-54970913D01*
X119429087Y-55045480D01*
X119520413Y-55098207D01*
X119622273Y-55125500D01*
X119622275Y-55125500D01*
X119727725Y-55125500D01*
X119727727Y-55125500D01*
X119829587Y-55098207D01*
X119920913Y-55045480D01*
X119995480Y-54970913D01*
X120048207Y-54879587D01*
X120075500Y-54777727D01*
X120075500Y-54672273D01*
X120048207Y-54570413D01*
X119995480Y-54479087D01*
X119920913Y-54404520D01*
X119829587Y-54351793D01*
X119727727Y-54324500D01*
X119622273Y-54324500D01*
X119520413Y-54351793D01*
X119520410Y-54351794D01*
X119429085Y-54404521D01*
X119354521Y-54479085D01*
X119301794Y-54570410D01*
X119301793Y-54570413D01*
X119274500Y-54672273D01*
X76766757Y-54672273D01*
X76766748Y-54664283D01*
X76765133Y-53207273D01*
X115689500Y-53207273D01*
X115689500Y-53312727D01*
X115716793Y-53414587D01*
X115769520Y-53505913D01*
X115844087Y-53580480D01*
X115935413Y-53633207D01*
X116037273Y-53660500D01*
X116037275Y-53660500D01*
X116142725Y-53660500D01*
X116142727Y-53660500D01*
X116244587Y-53633207D01*
X116335913Y-53580480D01*
X116410480Y-53505913D01*
X116463207Y-53414587D01*
X116490500Y-53312727D01*
X116490500Y-53207273D01*
X116463207Y-53105413D01*
X116410480Y-53014087D01*
X116335913Y-52939520D01*
X116244587Y-52886793D01*
X116142727Y-52859500D01*
X116037273Y-52859500D01*
X116037271Y-52859500D01*
X115946943Y-52883702D01*
X115946937Y-52883705D01*
X115935413Y-52886793D01*
X115859389Y-52930684D01*
X115859358Y-52930702D01*
X115844085Y-52939521D01*
X115769521Y-53014085D01*
X115716794Y-53105410D01*
X115716793Y-53105413D01*
X115689500Y-53207273D01*
X76765133Y-53207273D01*
X76764976Y-53065845D01*
X113397706Y-53065845D01*
X113526652Y-53119257D01*
X113526656Y-53119258D01*
X113681202Y-53149999D01*
X113681206Y-53150000D01*
X113838794Y-53150000D01*
X113838797Y-53149999D01*
X113993343Y-53119258D01*
X113993347Y-53119257D01*
X114122293Y-53065845D01*
X113760001Y-52703553D01*
X113760000Y-52703553D01*
X113397706Y-53065845D01*
X76764976Y-53065845D01*
X76764096Y-52271202D01*
X112960000Y-52271202D01*
X112960000Y-52428797D01*
X112990741Y-52583343D01*
X112990743Y-52583351D01*
X113044153Y-52712293D01*
X113406446Y-52350001D01*
X113406446Y-52349999D01*
X113381583Y-52325136D01*
X113635000Y-52325136D01*
X113635000Y-52374864D01*
X113654030Y-52420807D01*
X113689193Y-52455970D01*
X113735136Y-52475000D01*
X113784864Y-52475000D01*
X113830807Y-52455970D01*
X113865970Y-52420807D01*
X113885000Y-52374864D01*
X113885000Y-52349999D01*
X114113553Y-52349999D01*
X114113553Y-52350001D01*
X114475845Y-52712293D01*
X114529257Y-52583347D01*
X114529258Y-52583343D01*
X114559999Y-52428797D01*
X114560000Y-52428794D01*
X114560000Y-52277273D01*
X115209500Y-52277273D01*
X115209500Y-52382727D01*
X115236793Y-52484587D01*
X115289520Y-52575913D01*
X115364087Y-52650480D01*
X115455413Y-52703207D01*
X115557273Y-52730500D01*
X115557275Y-52730500D01*
X115662724Y-52730500D01*
X115662727Y-52730500D01*
X115764587Y-52703207D01*
X115855913Y-52650480D01*
X115930480Y-52575913D01*
X115983207Y-52484587D01*
X116010500Y-52382727D01*
X116010500Y-52277273D01*
X115983207Y-52175413D01*
X115930480Y-52084087D01*
X115855913Y-52009520D01*
X115764587Y-51956793D01*
X115662727Y-51929500D01*
X115557273Y-51929500D01*
X115455413Y-51956793D01*
X115455410Y-51956794D01*
X115364085Y-52009521D01*
X115289521Y-52084085D01*
X115236794Y-52175410D01*
X115236793Y-52175413D01*
X115209500Y-52277273D01*
X114560000Y-52277273D01*
X114560000Y-52271206D01*
X114559999Y-52271202D01*
X114529258Y-52116656D01*
X114529257Y-52116652D01*
X114475845Y-51987706D01*
X114113553Y-52349999D01*
X113885000Y-52349999D01*
X113885000Y-52325136D01*
X113865970Y-52279193D01*
X113830807Y-52244030D01*
X113784864Y-52225000D01*
X113735136Y-52225000D01*
X113689193Y-52244030D01*
X113654030Y-52279193D01*
X113635000Y-52325136D01*
X113381583Y-52325136D01*
X113044153Y-51987705D01*
X112990743Y-52116648D01*
X112990741Y-52116656D01*
X112960000Y-52271202D01*
X76764096Y-52271202D01*
X76763194Y-51457273D01*
X111129500Y-51457273D01*
X111129500Y-51562727D01*
X111156793Y-51664587D01*
X111209520Y-51755913D01*
X111284087Y-51830480D01*
X111375413Y-51883207D01*
X111477273Y-51910500D01*
X111477275Y-51910500D01*
X111582725Y-51910500D01*
X111582727Y-51910500D01*
X111684587Y-51883207D01*
X111742105Y-51849999D01*
X113613553Y-51849999D01*
X113760000Y-51996446D01*
X113906446Y-51850001D01*
X113906446Y-51850000D01*
X113760000Y-51703553D01*
X113613553Y-51849999D01*
X111742105Y-51849999D01*
X111775913Y-51830480D01*
X111850480Y-51755913D01*
X111903207Y-51664587D01*
X111930500Y-51562727D01*
X111930500Y-51457273D01*
X111903207Y-51355413D01*
X111854588Y-51271202D01*
X112960000Y-51271202D01*
X112960000Y-51428797D01*
X112990741Y-51583343D01*
X112990743Y-51583351D01*
X113044153Y-51712293D01*
X113045490Y-51710957D01*
X113406446Y-51350001D01*
X113406446Y-51349999D01*
X113381583Y-51325136D01*
X113635000Y-51325136D01*
X113635000Y-51374864D01*
X113654030Y-51420807D01*
X113689193Y-51455970D01*
X113735136Y-51475000D01*
X113784864Y-51475000D01*
X113830807Y-51455970D01*
X113865970Y-51420807D01*
X113885000Y-51374864D01*
X113885000Y-51349999D01*
X114113553Y-51349999D01*
X114113553Y-51350001D01*
X114475845Y-51712293D01*
X114529257Y-51583347D01*
X114529258Y-51583343D01*
X114559999Y-51428797D01*
X114560000Y-51428794D01*
X114560000Y-51271206D01*
X114559999Y-51271202D01*
X114529258Y-51116656D01*
X114529257Y-51116652D01*
X114503272Y-51053920D01*
X119607499Y-51053920D01*
X119636340Y-51198907D01*
X119636343Y-51198917D01*
X119692912Y-51335488D01*
X119692919Y-51335501D01*
X119775048Y-51458415D01*
X119775051Y-51458419D01*
X119879580Y-51562948D01*
X119879584Y-51562951D01*
X120002498Y-51645080D01*
X120002511Y-51645087D01*
X120139082Y-51701656D01*
X120139087Y-51701658D01*
X120139091Y-51701658D01*
X120139092Y-51701659D01*
X120284079Y-51730500D01*
X120284082Y-51730500D01*
X120431920Y-51730500D01*
X120567386Y-51703553D01*
X120576913Y-51701658D01*
X120713495Y-51645084D01*
X120836416Y-51562951D01*
X120940951Y-51458416D01*
X121023084Y-51335495D01*
X121079658Y-51198913D01*
X121094717Y-51123207D01*
X121108500Y-51053920D01*
X121108500Y-50906079D01*
X121079659Y-50761092D01*
X121079658Y-50761091D01*
X121079658Y-50761087D01*
X121072252Y-50743207D01*
X121023087Y-50624511D01*
X121023080Y-50624498D01*
X120940951Y-50501584D01*
X120940948Y-50501580D01*
X120836419Y-50397051D01*
X120836415Y-50397048D01*
X120713501Y-50314919D01*
X120713488Y-50314912D01*
X120576917Y-50258343D01*
X120576907Y-50258340D01*
X120431920Y-50229500D01*
X120431918Y-50229500D01*
X120284082Y-50229500D01*
X120284080Y-50229500D01*
X120139092Y-50258340D01*
X120139082Y-50258343D01*
X120002511Y-50314912D01*
X120002498Y-50314919D01*
X119879584Y-50397048D01*
X119879580Y-50397051D01*
X119775051Y-50501580D01*
X119775048Y-50501584D01*
X119692919Y-50624498D01*
X119692912Y-50624511D01*
X119636343Y-50761082D01*
X119636340Y-50761092D01*
X119607500Y-50906079D01*
X119607500Y-50906082D01*
X119607500Y-51053918D01*
X119607500Y-51053920D01*
X119607499Y-51053920D01*
X114503272Y-51053920D01*
X114475845Y-50987705D01*
X114113553Y-51349999D01*
X113885000Y-51349999D01*
X113885000Y-51325136D01*
X113865970Y-51279193D01*
X113830807Y-51244030D01*
X113784864Y-51225000D01*
X113735136Y-51225000D01*
X113689193Y-51244030D01*
X113654030Y-51279193D01*
X113635000Y-51325136D01*
X113381583Y-51325136D01*
X113044153Y-50987705D01*
X112990743Y-51116648D01*
X112990741Y-51116656D01*
X112960000Y-51271202D01*
X111854588Y-51271202D01*
X111850480Y-51264087D01*
X111775913Y-51189520D01*
X111684587Y-51136793D01*
X111582727Y-51109500D01*
X111477273Y-51109500D01*
X111375413Y-51136793D01*
X111375410Y-51136794D01*
X111284085Y-51189521D01*
X111209521Y-51264085D01*
X111156794Y-51355410D01*
X111156793Y-51355413D01*
X111129500Y-51457273D01*
X76763194Y-51457273D01*
X76762352Y-50697273D01*
X80999500Y-50697273D01*
X80999500Y-50802727D01*
X81026793Y-50904587D01*
X81079520Y-50995913D01*
X81154087Y-51070480D01*
X81245413Y-51123207D01*
X81347273Y-51150500D01*
X81347275Y-51150500D01*
X81452725Y-51150500D01*
X81452727Y-51150500D01*
X81554587Y-51123207D01*
X81645913Y-51070480D01*
X81720480Y-50995913D01*
X81773207Y-50904587D01*
X81800500Y-50802727D01*
X81800500Y-50697273D01*
X81783587Y-50634153D01*
X113397705Y-50634153D01*
X113760000Y-50996446D01*
X113760001Y-50996446D01*
X114122293Y-50634153D01*
X113993351Y-50580743D01*
X113993343Y-50580741D01*
X113838797Y-50550000D01*
X113681202Y-50550000D01*
X113526656Y-50580741D01*
X113526648Y-50580743D01*
X113397705Y-50634153D01*
X81783587Y-50634153D01*
X81773207Y-50595413D01*
X81720480Y-50504087D01*
X81645913Y-50429520D01*
X81554587Y-50376793D01*
X81452727Y-50349500D01*
X81347273Y-50349500D01*
X81245413Y-50376793D01*
X81245410Y-50376794D01*
X81154085Y-50429521D01*
X81079521Y-50504085D01*
X81026794Y-50595410D01*
X81026793Y-50595413D01*
X80999500Y-50697273D01*
X76762352Y-50697273D01*
X76761601Y-50018995D01*
X77689499Y-50018995D01*
X77716418Y-50154322D01*
X77716421Y-50154332D01*
X77769221Y-50281804D01*
X77769228Y-50281817D01*
X77845885Y-50396541D01*
X77845888Y-50396545D01*
X77943454Y-50494111D01*
X77943458Y-50494114D01*
X78058182Y-50570771D01*
X78058195Y-50570778D01*
X78185667Y-50623578D01*
X78185672Y-50623580D01*
X78185676Y-50623580D01*
X78185677Y-50623581D01*
X78321004Y-50650500D01*
X78321007Y-50650500D01*
X78458995Y-50650500D01*
X78550041Y-50632389D01*
X78594328Y-50623580D01*
X78642967Y-50603432D01*
X78712614Y-50574585D01*
X78721804Y-50570778D01*
X78721804Y-50570777D01*
X78721811Y-50570775D01*
X78836542Y-50494114D01*
X78934114Y-50396542D01*
X78987080Y-50317273D01*
X115649500Y-50317273D01*
X115649500Y-50422727D01*
X115676793Y-50524587D01*
X115729520Y-50615913D01*
X115804087Y-50690480D01*
X115895413Y-50743207D01*
X115997273Y-50770500D01*
X115997275Y-50770500D01*
X116102725Y-50770500D01*
X116102727Y-50770500D01*
X116204587Y-50743207D01*
X116295913Y-50690480D01*
X116370480Y-50615913D01*
X116423207Y-50524587D01*
X116450500Y-50422727D01*
X116450500Y-50317273D01*
X116423207Y-50215413D01*
X116370480Y-50124087D01*
X116295913Y-50049520D01*
X116204587Y-49996793D01*
X116102727Y-49969500D01*
X115997273Y-49969500D01*
X115895413Y-49996793D01*
X115895410Y-49996794D01*
X115804085Y-50049521D01*
X115729521Y-50124085D01*
X115676794Y-50215410D01*
X115676793Y-50215413D01*
X115649500Y-50317273D01*
X78987080Y-50317273D01*
X79010775Y-50281811D01*
X79063580Y-50154328D01*
X79090500Y-50018993D01*
X79090500Y-49881007D01*
X79090500Y-49881004D01*
X79063581Y-49745677D01*
X79063580Y-49745676D01*
X79063580Y-49745672D01*
X79063578Y-49745667D01*
X79010778Y-49618195D01*
X79010771Y-49618182D01*
X78934114Y-49503458D01*
X78934111Y-49503454D01*
X78836545Y-49405888D01*
X78836541Y-49405885D01*
X78721817Y-49329228D01*
X78721804Y-49329221D01*
X78594332Y-49276421D01*
X78594322Y-49276418D01*
X78458995Y-49249500D01*
X78458993Y-49249500D01*
X78321007Y-49249500D01*
X78321005Y-49249500D01*
X78185677Y-49276418D01*
X78185667Y-49276421D01*
X78058195Y-49329221D01*
X78058182Y-49329228D01*
X77943458Y-49405885D01*
X77943454Y-49405888D01*
X77845888Y-49503454D01*
X77845885Y-49503458D01*
X77769228Y-49618182D01*
X77769221Y-49618195D01*
X77716421Y-49745667D01*
X77716418Y-49745677D01*
X77689500Y-49881004D01*
X77689500Y-49881007D01*
X77689500Y-50018993D01*
X77689500Y-50018995D01*
X77689499Y-50018995D01*
X76761601Y-50018995D01*
X76759671Y-48277273D01*
X89299500Y-48277273D01*
X89299500Y-48382727D01*
X89326793Y-48484587D01*
X89379520Y-48575913D01*
X89454087Y-48650480D01*
X89545413Y-48703207D01*
X89647273Y-48730500D01*
X89647275Y-48730500D01*
X89752725Y-48730500D01*
X89752727Y-48730500D01*
X89854587Y-48703207D01*
X89945913Y-48650480D01*
X89999120Y-48597273D01*
X103149500Y-48597273D01*
X103149500Y-48702727D01*
X103176793Y-48804587D01*
X103229520Y-48895913D01*
X103304087Y-48970480D01*
X103395413Y-49023207D01*
X103497273Y-49050500D01*
X103497275Y-49050500D01*
X103602725Y-49050500D01*
X103602727Y-49050500D01*
X103704587Y-49023207D01*
X103795913Y-48970480D01*
X103870480Y-48895913D01*
X103923207Y-48804587D01*
X103950500Y-48702727D01*
X103950500Y-48597273D01*
X103923207Y-48495413D01*
X103870480Y-48404087D01*
X103795913Y-48329520D01*
X103705422Y-48277275D01*
X103704589Y-48276794D01*
X103704588Y-48276793D01*
X103704587Y-48276793D01*
X103602727Y-48249500D01*
X103497273Y-48249500D01*
X103395413Y-48276793D01*
X103395410Y-48276794D01*
X103304085Y-48329521D01*
X103229521Y-48404085D01*
X103176794Y-48495410D01*
X103176793Y-48495413D01*
X103149500Y-48597273D01*
X89999120Y-48597273D01*
X90020480Y-48575913D01*
X90073207Y-48484587D01*
X90100500Y-48382727D01*
X90100500Y-48277273D01*
X90073207Y-48175413D01*
X90020480Y-48084087D01*
X89945913Y-48009520D01*
X89854587Y-47956793D01*
X89752727Y-47929500D01*
X89647273Y-47929500D01*
X89545413Y-47956793D01*
X89545410Y-47956794D01*
X89454085Y-48009521D01*
X89379521Y-48084085D01*
X89326794Y-48175410D01*
X89326793Y-48175413D01*
X89299500Y-48277273D01*
X76759671Y-48277273D01*
X76759261Y-47907273D01*
X109240154Y-47907273D01*
X109240154Y-48012727D01*
X109267447Y-48114587D01*
X109320174Y-48205913D01*
X109394741Y-48280480D01*
X109486067Y-48333207D01*
X109587927Y-48360500D01*
X109587929Y-48360500D01*
X109693379Y-48360500D01*
X109693381Y-48360500D01*
X109795241Y-48333207D01*
X109886567Y-48280480D01*
X109961134Y-48205913D01*
X110013861Y-48114587D01*
X110041154Y-48012727D01*
X110041154Y-47907273D01*
X110013861Y-47805413D01*
X109961134Y-47714087D01*
X109886567Y-47639520D01*
X109795241Y-47586793D01*
X109693381Y-47559500D01*
X109587927Y-47559500D01*
X109486067Y-47586793D01*
X109486064Y-47586794D01*
X109394739Y-47639521D01*
X109320175Y-47714085D01*
X109267448Y-47805410D01*
X109267447Y-47805413D01*
X109240154Y-47907273D01*
X76759261Y-47907273D01*
X76758277Y-47018995D01*
X77689499Y-47018995D01*
X77716418Y-47154322D01*
X77716421Y-47154332D01*
X77769221Y-47281804D01*
X77769228Y-47281817D01*
X77845885Y-47396541D01*
X77845888Y-47396545D01*
X77943454Y-47494111D01*
X77943458Y-47494114D01*
X78058182Y-47570771D01*
X78058195Y-47570778D01*
X78096862Y-47586794D01*
X78185672Y-47623580D01*
X78185676Y-47623580D01*
X78185677Y-47623581D01*
X78321004Y-47650500D01*
X78321007Y-47650500D01*
X78458995Y-47650500D01*
X78550041Y-47632389D01*
X78594328Y-47623580D01*
X78721811Y-47570775D01*
X78836542Y-47494114D01*
X78934114Y-47396542D01*
X79010775Y-47281811D01*
X79063580Y-47154328D01*
X79082658Y-47058416D01*
X79090500Y-47018995D01*
X79090500Y-46881004D01*
X79063581Y-46745677D01*
X79063580Y-46745676D01*
X79063580Y-46745672D01*
X79063578Y-46745667D01*
X79025576Y-46653920D01*
X119607499Y-46653920D01*
X119636340Y-46798907D01*
X119636343Y-46798917D01*
X119692912Y-46935488D01*
X119692919Y-46935501D01*
X119775048Y-47058415D01*
X119775051Y-47058419D01*
X119879580Y-47162948D01*
X119879584Y-47162951D01*
X120002498Y-47245080D01*
X120002511Y-47245087D01*
X120091186Y-47281817D01*
X120139087Y-47301658D01*
X120139091Y-47301658D01*
X120139092Y-47301659D01*
X120284079Y-47330500D01*
X120284082Y-47330500D01*
X120431920Y-47330500D01*
X120529462Y-47311096D01*
X120576913Y-47301658D01*
X120713495Y-47245084D01*
X120836416Y-47162951D01*
X120940951Y-47058416D01*
X121023084Y-46935495D01*
X121079658Y-46798913D01*
X121108500Y-46653918D01*
X121108500Y-46506082D01*
X121108500Y-46506079D01*
X121079659Y-46361092D01*
X121079658Y-46361091D01*
X121079658Y-46361087D01*
X121066462Y-46329228D01*
X121023087Y-46224511D01*
X121023080Y-46224498D01*
X120940951Y-46101584D01*
X120940948Y-46101580D01*
X120836419Y-45997051D01*
X120836415Y-45997048D01*
X120713501Y-45914919D01*
X120713488Y-45914912D01*
X120576917Y-45858343D01*
X120576907Y-45858340D01*
X120431920Y-45829500D01*
X120431918Y-45829500D01*
X120284082Y-45829500D01*
X120284080Y-45829500D01*
X120139092Y-45858340D01*
X120139082Y-45858343D01*
X120002511Y-45914912D01*
X120002498Y-45914919D01*
X119879584Y-45997048D01*
X119879580Y-45997051D01*
X119775051Y-46101580D01*
X119775048Y-46101584D01*
X119692919Y-46224498D01*
X119692912Y-46224511D01*
X119636343Y-46361082D01*
X119636340Y-46361092D01*
X119607500Y-46506079D01*
X119607500Y-46506082D01*
X119607500Y-46653918D01*
X119607500Y-46653920D01*
X119607499Y-46653920D01*
X79025576Y-46653920D01*
X79010778Y-46618195D01*
X79010771Y-46618182D01*
X78977829Y-46568881D01*
X78934114Y-46503458D01*
X78934111Y-46503454D01*
X78836545Y-46405888D01*
X78836541Y-46405885D01*
X78721817Y-46329228D01*
X78721804Y-46329221D01*
X78594332Y-46276421D01*
X78594322Y-46276418D01*
X78458995Y-46249500D01*
X78458993Y-46249500D01*
X78321007Y-46249500D01*
X78321005Y-46249500D01*
X78185677Y-46276418D01*
X78185667Y-46276421D01*
X78058195Y-46329221D01*
X78058182Y-46329228D01*
X77943458Y-46405885D01*
X77943454Y-46405888D01*
X77845888Y-46503454D01*
X77845885Y-46503458D01*
X77769228Y-46618182D01*
X77769221Y-46618195D01*
X77716421Y-46745667D01*
X77716418Y-46745677D01*
X77689500Y-46881004D01*
X77689500Y-46881007D01*
X77689500Y-47018993D01*
X77689500Y-47018995D01*
X77689499Y-47018995D01*
X76758277Y-47018995D01*
X76756536Y-45447273D01*
X110409500Y-45447273D01*
X110409500Y-45552727D01*
X110436793Y-45654587D01*
X110489520Y-45745913D01*
X110564087Y-45820480D01*
X110655413Y-45873207D01*
X110757273Y-45900500D01*
X110757275Y-45900500D01*
X110862725Y-45900500D01*
X110862727Y-45900500D01*
X110964587Y-45873207D01*
X111055913Y-45820480D01*
X111130480Y-45745913D01*
X111183207Y-45654587D01*
X111210500Y-45552727D01*
X111210500Y-45447273D01*
X111183207Y-45345413D01*
X111130480Y-45254087D01*
X111055913Y-45179520D01*
X110964587Y-45126793D01*
X110862727Y-45099500D01*
X110757273Y-45099500D01*
X110655413Y-45126793D01*
X110655410Y-45126794D01*
X110564085Y-45179521D01*
X110489521Y-45254085D01*
X110436794Y-45345410D01*
X110436793Y-45345413D01*
X110409500Y-45447273D01*
X76756536Y-45447273D01*
X76754929Y-43997273D01*
X91899500Y-43997273D01*
X91899500Y-44102727D01*
X91926793Y-44204587D01*
X91979520Y-44295913D01*
X92054087Y-44370480D01*
X92145413Y-44423207D01*
X92247273Y-44450500D01*
X92247275Y-44450500D01*
X92352725Y-44450500D01*
X92352727Y-44450500D01*
X92454587Y-44423207D01*
X92545913Y-44370480D01*
X92620480Y-44295913D01*
X92673207Y-44204587D01*
X92700500Y-44102727D01*
X92700500Y-43997273D01*
X92673207Y-43895413D01*
X92620480Y-43804087D01*
X92545913Y-43729520D01*
X92454587Y-43676793D01*
X92352727Y-43649500D01*
X92247273Y-43649500D01*
X92145413Y-43676793D01*
X92145410Y-43676794D01*
X92054085Y-43729521D01*
X91979521Y-43804085D01*
X91926794Y-43895410D01*
X91926793Y-43895413D01*
X91899500Y-43997273D01*
X76754929Y-43997273D01*
X76754632Y-43729520D01*
X76753631Y-42825321D01*
X98339500Y-42825321D01*
X98339500Y-44574678D01*
X98354032Y-44647735D01*
X98354033Y-44647739D01*
X98372405Y-44675235D01*
X98409399Y-44730601D01*
X98492260Y-44785966D01*
X98492264Y-44785967D01*
X98565321Y-44800499D01*
X98565324Y-44800500D01*
X98565326Y-44800500D01*
X100314676Y-44800500D01*
X100314677Y-44800499D01*
X100387740Y-44785966D01*
X100470601Y-44730601D01*
X100525966Y-44647740D01*
X100540500Y-44574674D01*
X100540500Y-43613389D01*
X100879500Y-43613389D01*
X100879500Y-43786610D01*
X100896732Y-43895413D01*
X100906598Y-43957701D01*
X100960127Y-44122445D01*
X101038768Y-44276788D01*
X101140586Y-44416928D01*
X101263072Y-44539414D01*
X101403212Y-44641232D01*
X101557555Y-44719873D01*
X101722299Y-44773402D01*
X101893389Y-44800500D01*
X101893390Y-44800500D01*
X102066610Y-44800500D01*
X102066611Y-44800500D01*
X102237701Y-44773402D01*
X102402445Y-44719873D01*
X102556788Y-44641232D01*
X102696928Y-44539414D01*
X102819414Y-44416928D01*
X102921232Y-44276788D01*
X102999873Y-44122445D01*
X103053402Y-43957701D01*
X103080500Y-43786611D01*
X103080500Y-43613389D01*
X103419500Y-43613389D01*
X103419500Y-43786610D01*
X103436732Y-43895413D01*
X103446598Y-43957701D01*
X103500127Y-44122445D01*
X103578768Y-44276788D01*
X103680586Y-44416928D01*
X103803072Y-44539414D01*
X103943212Y-44641232D01*
X104097555Y-44719873D01*
X104262299Y-44773402D01*
X104433389Y-44800500D01*
X104433390Y-44800500D01*
X104606610Y-44800500D01*
X104606611Y-44800500D01*
X104777701Y-44773402D01*
X104942445Y-44719873D01*
X105096788Y-44641232D01*
X105236928Y-44539414D01*
X105359414Y-44416928D01*
X105461232Y-44276788D01*
X105539873Y-44122445D01*
X105540896Y-44119294D01*
X105541610Y-44118250D01*
X105541734Y-44117952D01*
X105541796Y-44117977D01*
X105580327Y-44061618D01*
X105644683Y-44034415D01*
X105713530Y-44046323D01*
X105765011Y-44093562D01*
X105776760Y-44119287D01*
X105808904Y-44218217D01*
X105905375Y-44407550D01*
X105944728Y-44461716D01*
X106577037Y-43829408D01*
X106594075Y-43892993D01*
X106659901Y-44007007D01*
X106752993Y-44100099D01*
X106867007Y-44165925D01*
X106930590Y-44182962D01*
X106298282Y-44815269D01*
X106298282Y-44815270D01*
X106352449Y-44854624D01*
X106541782Y-44951095D01*
X106743870Y-45016757D01*
X106953754Y-45050000D01*
X107166246Y-45050000D01*
X107376127Y-45016757D01*
X107376130Y-45016757D01*
X107578217Y-44951095D01*
X107767554Y-44854622D01*
X107821716Y-44815270D01*
X107821717Y-44815270D01*
X107189408Y-44182962D01*
X107252993Y-44165925D01*
X107367007Y-44100099D01*
X107460099Y-44007007D01*
X107525925Y-43892993D01*
X107542962Y-43829408D01*
X108175270Y-44461717D01*
X108175270Y-44461716D01*
X108214622Y-44407554D01*
X108311095Y-44218217D01*
X108376757Y-44016130D01*
X108376757Y-44016127D01*
X108410000Y-43806246D01*
X108410000Y-43593753D01*
X108376757Y-43383872D01*
X108376757Y-43383869D01*
X108311095Y-43181782D01*
X108214624Y-42992449D01*
X108175270Y-42938282D01*
X108175269Y-42938282D01*
X107542962Y-43570590D01*
X107525925Y-43507007D01*
X107460099Y-43392993D01*
X107367007Y-43299901D01*
X107252993Y-43234075D01*
X107189409Y-43217037D01*
X107821716Y-42584728D01*
X107767550Y-42545375D01*
X107578217Y-42448904D01*
X107376129Y-42383242D01*
X107166246Y-42350000D01*
X106953754Y-42350000D01*
X106743872Y-42383242D01*
X106743869Y-42383242D01*
X106541782Y-42448904D01*
X106352439Y-42545380D01*
X106298282Y-42584727D01*
X106298282Y-42584728D01*
X106930591Y-43217037D01*
X106867007Y-43234075D01*
X106752993Y-43299901D01*
X106659901Y-43392993D01*
X106594075Y-43507007D01*
X106577037Y-43570591D01*
X105944728Y-42938282D01*
X105944727Y-42938282D01*
X105905380Y-42992439D01*
X105808904Y-43181783D01*
X105776760Y-43280712D01*
X105737322Y-43338388D01*
X105672964Y-43365586D01*
X105604117Y-43353671D01*
X105552642Y-43306427D01*
X105540898Y-43280712D01*
X105539873Y-43277555D01*
X105461232Y-43123212D01*
X105359414Y-42983072D01*
X105236928Y-42860586D01*
X105096788Y-42758768D01*
X104942445Y-42680127D01*
X104777701Y-42626598D01*
X104777699Y-42626597D01*
X104777698Y-42626597D01*
X104646271Y-42605781D01*
X104606611Y-42599500D01*
X104433389Y-42599500D01*
X104393728Y-42605781D01*
X104262302Y-42626597D01*
X104097552Y-42680128D01*
X103943211Y-42758768D01*
X103863256Y-42816859D01*
X103803072Y-42860586D01*
X103803070Y-42860588D01*
X103803069Y-42860588D01*
X103680588Y-42983069D01*
X103680588Y-42983070D01*
X103680586Y-42983072D01*
X103636859Y-43043256D01*
X103578768Y-43123211D01*
X103500128Y-43277552D01*
X103446597Y-43442302D01*
X103419500Y-43613389D01*
X103080500Y-43613389D01*
X103053402Y-43442299D01*
X102999873Y-43277555D01*
X102921232Y-43123212D01*
X102819414Y-42983072D01*
X102696928Y-42860586D01*
X102556788Y-42758768D01*
X102402445Y-42680127D01*
X102237701Y-42626598D01*
X102237699Y-42626597D01*
X102237698Y-42626597D01*
X102106271Y-42605781D01*
X102066611Y-42599500D01*
X101893389Y-42599500D01*
X101853728Y-42605781D01*
X101722302Y-42626597D01*
X101557552Y-42680128D01*
X101403211Y-42758768D01*
X101323256Y-42816859D01*
X101263072Y-42860586D01*
X101263070Y-42860588D01*
X101263069Y-42860588D01*
X101140588Y-42983069D01*
X101140588Y-42983070D01*
X101140586Y-42983072D01*
X101096859Y-43043256D01*
X101038768Y-43123211D01*
X100960128Y-43277552D01*
X100906597Y-43442302D01*
X100879500Y-43613389D01*
X100540500Y-43613389D01*
X100540500Y-42825326D01*
X100540500Y-42825323D01*
X100540499Y-42825321D01*
X100525967Y-42752264D01*
X100525966Y-42752260D01*
X100519426Y-42742472D01*
X100470601Y-42669399D01*
X100387740Y-42614034D01*
X100387739Y-42614033D01*
X100387735Y-42614032D01*
X100314677Y-42599500D01*
X100314674Y-42599500D01*
X98565326Y-42599500D01*
X98565323Y-42599500D01*
X98492264Y-42614032D01*
X98492260Y-42614033D01*
X98409399Y-42669399D01*
X98354033Y-42752260D01*
X98354032Y-42752264D01*
X98339500Y-42825321D01*
X76753631Y-42825321D01*
X76753624Y-42819371D01*
X76751959Y-41317246D01*
X76750503Y-40003277D01*
X76750672Y-39996701D01*
X76756070Y-39893713D01*
X78649500Y-39893713D01*
X78649500Y-40106287D01*
X78653480Y-40131413D01*
X78679822Y-40297735D01*
X78682754Y-40316243D01*
X78743962Y-40504622D01*
X78748444Y-40518414D01*
X78844951Y-40707820D01*
X78969890Y-40879786D01*
X79120213Y-41030109D01*
X79292179Y-41155048D01*
X79292181Y-41155049D01*
X79292184Y-41155051D01*
X79481588Y-41251557D01*
X79683757Y-41317246D01*
X79893713Y-41350500D01*
X79893714Y-41350500D01*
X80106286Y-41350500D01*
X80106287Y-41350500D01*
X80316243Y-41317246D01*
X80518412Y-41251557D01*
X80707816Y-41155051D01*
X80729789Y-41139086D01*
X80879786Y-41030109D01*
X80879788Y-41030106D01*
X80879792Y-41030104D01*
X81030104Y-40879792D01*
X81030106Y-40879788D01*
X81030109Y-40879786D01*
X81155048Y-40707820D01*
X81155047Y-40707820D01*
X81155051Y-40707816D01*
X81251557Y-40518412D01*
X81317246Y-40316243D01*
X81350500Y-40106287D01*
X81350500Y-39893713D01*
X81317246Y-39683757D01*
X81251557Y-39481588D01*
X81155051Y-39292184D01*
X81155049Y-39292181D01*
X81155048Y-39292179D01*
X81030109Y-39120213D01*
X80879786Y-38969890D01*
X80707820Y-38844951D01*
X80518414Y-38748444D01*
X80518413Y-38748443D01*
X80518412Y-38748443D01*
X80316243Y-38682754D01*
X80316241Y-38682753D01*
X80316240Y-38682753D01*
X80154957Y-38657208D01*
X80106287Y-38649500D01*
X79893713Y-38649500D01*
X79845042Y-38657208D01*
X79683760Y-38682753D01*
X79481585Y-38748444D01*
X79292179Y-38844951D01*
X79120213Y-38969890D01*
X78969890Y-39120213D01*
X78844951Y-39292179D01*
X78748444Y-39481585D01*
X78682753Y-39683760D01*
X78653901Y-39865925D01*
X78649500Y-39893713D01*
X76756070Y-39893713D01*
X76767961Y-39666819D01*
X76769318Y-39653913D01*
X76792632Y-39506714D01*
X76820493Y-39330804D01*
X76823186Y-39318129D01*
X76907863Y-39002113D01*
X76911871Y-38989781D01*
X76912406Y-38988388D01*
X77029109Y-38684365D01*
X77034375Y-38672536D01*
X77134860Y-38475321D01*
X85049500Y-38475321D01*
X85049500Y-40224678D01*
X85064032Y-40297735D01*
X85064033Y-40297739D01*
X85076394Y-40316239D01*
X85119399Y-40380601D01*
X85194229Y-40430600D01*
X85202260Y-40435966D01*
X85202264Y-40435967D01*
X85275321Y-40450499D01*
X85275324Y-40450500D01*
X85275326Y-40450500D01*
X87024676Y-40450500D01*
X87024677Y-40450499D01*
X87097740Y-40435966D01*
X87180601Y-40380601D01*
X87235966Y-40297740D01*
X87250500Y-40224674D01*
X87250500Y-39263389D01*
X87589500Y-39263389D01*
X87589500Y-39436611D01*
X87616598Y-39607701D01*
X87670127Y-39772445D01*
X87748768Y-39926788D01*
X87850586Y-40066928D01*
X87973072Y-40189414D01*
X88113212Y-40291232D01*
X88267555Y-40369873D01*
X88432299Y-40423402D01*
X88603389Y-40450500D01*
X88603390Y-40450500D01*
X88776610Y-40450500D01*
X88776611Y-40450500D01*
X88947701Y-40423402D01*
X89112445Y-40369873D01*
X89266788Y-40291232D01*
X89406928Y-40189414D01*
X89529414Y-40066928D01*
X89631232Y-39926788D01*
X89709873Y-39772445D01*
X89710896Y-39769294D01*
X89711610Y-39768250D01*
X89711734Y-39767952D01*
X89711796Y-39767977D01*
X89750327Y-39711618D01*
X89814683Y-39684415D01*
X89883530Y-39696323D01*
X89935011Y-39743562D01*
X89946760Y-39769287D01*
X89978904Y-39868217D01*
X90075375Y-40057550D01*
X90114728Y-40111716D01*
X90747037Y-39479408D01*
X90764075Y-39542993D01*
X90829901Y-39657007D01*
X90922993Y-39750099D01*
X91037007Y-39815925D01*
X91100590Y-39832962D01*
X90468282Y-40465269D01*
X90468282Y-40465270D01*
X90522449Y-40504624D01*
X90711782Y-40601095D01*
X90913870Y-40666757D01*
X91123754Y-40700000D01*
X91336246Y-40700000D01*
X91546127Y-40666757D01*
X91546130Y-40666757D01*
X91748217Y-40601095D01*
X91937554Y-40504622D01*
X91991716Y-40465270D01*
X91991717Y-40465270D01*
X91359408Y-39832962D01*
X91422993Y-39815925D01*
X91537007Y-39750099D01*
X91630099Y-39657007D01*
X91695925Y-39542993D01*
X91712962Y-39479408D01*
X92345270Y-40111717D01*
X92345270Y-40111716D01*
X92384622Y-40057554D01*
X92481095Y-39868217D01*
X92546757Y-39666130D01*
X92546757Y-39666127D01*
X92580000Y-39456246D01*
X92580000Y-39293753D01*
X95970000Y-39293753D01*
X95970000Y-39506246D01*
X96003242Y-39716127D01*
X96003242Y-39716130D01*
X96068904Y-39918217D01*
X96165375Y-40107550D01*
X96204728Y-40161716D01*
X96837037Y-39529408D01*
X96854075Y-39592993D01*
X96919901Y-39707007D01*
X97012993Y-39800099D01*
X97127007Y-39865925D01*
X97190590Y-39882962D01*
X96558282Y-40515269D01*
X96558282Y-40515270D01*
X96612449Y-40554624D01*
X96801782Y-40651095D01*
X97003870Y-40716757D01*
X97213754Y-40750000D01*
X97426246Y-40750000D01*
X97636127Y-40716757D01*
X97636130Y-40716757D01*
X97838217Y-40651095D01*
X98027554Y-40554622D01*
X98081716Y-40515270D01*
X98081717Y-40515270D01*
X97449408Y-39882962D01*
X97512993Y-39865925D01*
X97627007Y-39800099D01*
X97720099Y-39707007D01*
X97785925Y-39592993D01*
X97802962Y-39529409D01*
X98435270Y-40161717D01*
X98435270Y-40161716D01*
X98474622Y-40107554D01*
X98571096Y-39918215D01*
X98603239Y-39819288D01*
X98642676Y-39761612D01*
X98707034Y-39734413D01*
X98775880Y-39746327D01*
X98827357Y-39793571D01*
X98839100Y-39819284D01*
X98840127Y-39822446D01*
X98879643Y-39900000D01*
X98918768Y-39976788D01*
X99020586Y-40116928D01*
X99143072Y-40239414D01*
X99283212Y-40341232D01*
X99437555Y-40419873D01*
X99602299Y-40473402D01*
X99773389Y-40500500D01*
X99773390Y-40500500D01*
X99946610Y-40500500D01*
X99946611Y-40500500D01*
X100117701Y-40473402D01*
X100282445Y-40419873D01*
X100436788Y-40341232D01*
X100576928Y-40239414D01*
X100699414Y-40116928D01*
X100801232Y-39976788D01*
X100879873Y-39822445D01*
X100933402Y-39657701D01*
X100960500Y-39486611D01*
X100960500Y-39313389D01*
X100933402Y-39142299D01*
X100879873Y-38977555D01*
X100801232Y-38823212D01*
X100699414Y-38683072D01*
X100576928Y-38560586D01*
X100528390Y-38525321D01*
X101299500Y-38525321D01*
X101299500Y-40274678D01*
X101314032Y-40347735D01*
X101314033Y-40347739D01*
X101332405Y-40375235D01*
X101369399Y-40430601D01*
X101452260Y-40485966D01*
X101452264Y-40485967D01*
X101525321Y-40500499D01*
X101525324Y-40500500D01*
X101525326Y-40500500D01*
X103274676Y-40500500D01*
X103274677Y-40500499D01*
X103347740Y-40485966D01*
X103430601Y-40430601D01*
X103485966Y-40347740D01*
X103500500Y-40274674D01*
X103500500Y-39918839D01*
X120515445Y-39918839D01*
X120515445Y-40131412D01*
X120544718Y-40316239D01*
X120548699Y-40341369D01*
X120601743Y-40504622D01*
X120614389Y-40543540D01*
X120710896Y-40732946D01*
X120835835Y-40904912D01*
X120986158Y-41055235D01*
X121158124Y-41180174D01*
X121158126Y-41180175D01*
X121158129Y-41180177D01*
X121347533Y-41276683D01*
X121549702Y-41342372D01*
X121759658Y-41375626D01*
X121759659Y-41375626D01*
X121972231Y-41375626D01*
X121972232Y-41375626D01*
X122182188Y-41342372D01*
X122384357Y-41276683D01*
X122573761Y-41180177D01*
X122608348Y-41155048D01*
X122745731Y-41055235D01*
X122745733Y-41055232D01*
X122745737Y-41055230D01*
X122896049Y-40904918D01*
X122896051Y-40904914D01*
X122896054Y-40904912D01*
X123020993Y-40732946D01*
X123020992Y-40732946D01*
X123020996Y-40732942D01*
X123117502Y-40543538D01*
X123183191Y-40341369D01*
X123216445Y-40131413D01*
X123216445Y-39918839D01*
X123183191Y-39708883D01*
X123117502Y-39506714D01*
X123020996Y-39317310D01*
X123020994Y-39317307D01*
X123020993Y-39317305D01*
X122896054Y-39145339D01*
X122745731Y-38995016D01*
X122573765Y-38870077D01*
X122384359Y-38773570D01*
X122384358Y-38773569D01*
X122384357Y-38773569D01*
X122182188Y-38707880D01*
X122182186Y-38707879D01*
X122182185Y-38707879D01*
X122020902Y-38682334D01*
X121972232Y-38674626D01*
X121759658Y-38674626D01*
X121710987Y-38682334D01*
X121549705Y-38707879D01*
X121347530Y-38773570D01*
X121158124Y-38870077D01*
X120986158Y-38995016D01*
X120835835Y-39145339D01*
X120710896Y-39317305D01*
X120614389Y-39506711D01*
X120548698Y-39708886D01*
X120515445Y-39918839D01*
X103500500Y-39918839D01*
X103500500Y-38525326D01*
X103500500Y-38525323D01*
X103500499Y-38525321D01*
X103485967Y-38452264D01*
X103485966Y-38452260D01*
X103452560Y-38402264D01*
X103430601Y-38369399D01*
X103366542Y-38326597D01*
X103347739Y-38314033D01*
X103347735Y-38314032D01*
X103274677Y-38299500D01*
X103274674Y-38299500D01*
X101525326Y-38299500D01*
X101525323Y-38299500D01*
X101452264Y-38314032D01*
X101452260Y-38314033D01*
X101369399Y-38369399D01*
X101314033Y-38452260D01*
X101314032Y-38452264D01*
X101299500Y-38525321D01*
X100528390Y-38525321D01*
X100436788Y-38458768D01*
X100282445Y-38380127D01*
X100117701Y-38326598D01*
X100117699Y-38326597D01*
X100117698Y-38326597D01*
X99986271Y-38305781D01*
X99946611Y-38299500D01*
X99773389Y-38299500D01*
X99733728Y-38305781D01*
X99602302Y-38326597D01*
X99437552Y-38380128D01*
X99283211Y-38458768D01*
X99211891Y-38510586D01*
X99143072Y-38560586D01*
X99143070Y-38560588D01*
X99143069Y-38560588D01*
X99020588Y-38683069D01*
X99020588Y-38683070D01*
X99020586Y-38683072D01*
X99002563Y-38707879D01*
X98918768Y-38823211D01*
X98840128Y-38977550D01*
X98839099Y-38980720D01*
X98838381Y-38981769D01*
X98838266Y-38982048D01*
X98838207Y-38982023D01*
X98799657Y-39038393D01*
X98735297Y-39065587D01*
X98666451Y-39053668D01*
X98614979Y-39006420D01*
X98603239Y-38980711D01*
X98571096Y-38881784D01*
X98474624Y-38692449D01*
X98435270Y-38638282D01*
X98435269Y-38638282D01*
X97802962Y-39270590D01*
X97785925Y-39207007D01*
X97720099Y-39092993D01*
X97627007Y-38999901D01*
X97512993Y-38934075D01*
X97449409Y-38917037D01*
X98081716Y-38284728D01*
X98027550Y-38245375D01*
X97838217Y-38148904D01*
X97636129Y-38083242D01*
X97426246Y-38050000D01*
X97213754Y-38050000D01*
X97003872Y-38083242D01*
X97003869Y-38083242D01*
X96801782Y-38148904D01*
X96612439Y-38245380D01*
X96558282Y-38284727D01*
X96558282Y-38284728D01*
X97190591Y-38917037D01*
X97127007Y-38934075D01*
X97012993Y-38999901D01*
X96919901Y-39092993D01*
X96854075Y-39207007D01*
X96837037Y-39270591D01*
X96204728Y-38638282D01*
X96204727Y-38638282D01*
X96165380Y-38692439D01*
X96068904Y-38881782D01*
X96003242Y-39083869D01*
X96003242Y-39083872D01*
X95970000Y-39293753D01*
X92580000Y-39293753D01*
X92580000Y-39243753D01*
X92546757Y-39033872D01*
X92546757Y-39033869D01*
X92481095Y-38831782D01*
X92384624Y-38642449D01*
X92345270Y-38588282D01*
X92345269Y-38588282D01*
X91712962Y-39220590D01*
X91695925Y-39157007D01*
X91630099Y-39042993D01*
X91537007Y-38949901D01*
X91422993Y-38884075D01*
X91359409Y-38867037D01*
X91982139Y-38244306D01*
X91991716Y-38234728D01*
X91937550Y-38195375D01*
X91748217Y-38098904D01*
X91546129Y-38033242D01*
X91336246Y-38000000D01*
X91123754Y-38000000D01*
X90913872Y-38033242D01*
X90913869Y-38033242D01*
X90711782Y-38098904D01*
X90522439Y-38195380D01*
X90468282Y-38234727D01*
X90468282Y-38234728D01*
X91100591Y-38867037D01*
X91037007Y-38884075D01*
X90922993Y-38949901D01*
X90829901Y-39042993D01*
X90764075Y-39157007D01*
X90747037Y-39220591D01*
X90114728Y-38588282D01*
X90114727Y-38588282D01*
X90075380Y-38642439D01*
X89978904Y-38831783D01*
X89946760Y-38930712D01*
X89907322Y-38988388D01*
X89842964Y-39015586D01*
X89774117Y-39003671D01*
X89722642Y-38956427D01*
X89710898Y-38930712D01*
X89709873Y-38927555D01*
X89631232Y-38773212D01*
X89529414Y-38633072D01*
X89406928Y-38510586D01*
X89266788Y-38408768D01*
X89112445Y-38330127D01*
X88947701Y-38276598D01*
X88947699Y-38276597D01*
X88947698Y-38276597D01*
X88816271Y-38255781D01*
X88776611Y-38249500D01*
X88603389Y-38249500D01*
X88563728Y-38255781D01*
X88432302Y-38276597D01*
X88267552Y-38330128D01*
X88113211Y-38408768D01*
X88053345Y-38452264D01*
X87973072Y-38510586D01*
X87973070Y-38510588D01*
X87973069Y-38510588D01*
X87850588Y-38633069D01*
X87850588Y-38633070D01*
X87850586Y-38633072D01*
X87821926Y-38672519D01*
X87748768Y-38773211D01*
X87670128Y-38927552D01*
X87616597Y-39092302D01*
X87608678Y-39142302D01*
X87589500Y-39263389D01*
X87250500Y-39263389D01*
X87250500Y-38475326D01*
X87250500Y-38475323D01*
X87250499Y-38475321D01*
X87235967Y-38402264D01*
X87235966Y-38402260D01*
X87219316Y-38377341D01*
X87180601Y-38319399D01*
X87097740Y-38264034D01*
X87097739Y-38264033D01*
X87097735Y-38264032D01*
X87024677Y-38249500D01*
X87024674Y-38249500D01*
X85275326Y-38249500D01*
X85275323Y-38249500D01*
X85202264Y-38264032D01*
X85202260Y-38264033D01*
X85119399Y-38319399D01*
X85064033Y-38402260D01*
X85064032Y-38402264D01*
X85049500Y-38475321D01*
X77134860Y-38475321D01*
X77182912Y-38381014D01*
X77189373Y-38369824D01*
X77367570Y-38095425D01*
X77375179Y-38084953D01*
X77581072Y-37830696D01*
X77589739Y-37821071D01*
X77821071Y-37589739D01*
X77830696Y-37581072D01*
X78084953Y-37375179D01*
X78095425Y-37367570D01*
X78369824Y-37189373D01*
X78381014Y-37182912D01*
X78672536Y-37034375D01*
X78684365Y-37029109D01*
X78989785Y-36911869D01*
X79002113Y-36907863D01*
X79318129Y-36823186D01*
X79330804Y-36820493D01*
X79653915Y-36769317D01*
X79666819Y-36767961D01*
X79996732Y-36750670D01*
X80003253Y-36750501D01*
X123265824Y-36765577D01*
G37*
%TD.AperFunction*%
%TD*%
M02*
