%TF.GenerationSoftware,KiCad,Pcbnew,9.0.3*%
%TF.CreationDate,2025-09-29T14:03:59+08:00*%
%TF.ProjectId,RUSSELS LASER FINAL,52555353-454c-4532-904c-415345522046,rev?*%
%TF.SameCoordinates,Original*%
%TF.FileFunction,Legend,Top*%
%TF.FilePolarity,Positive*%
%FSLAX46Y46*%
G04 Gerber Fmt 4.6, Leading zero omitted, Abs format (unit mm)*
G04 Created by KiCad (PCBNEW 9.0.3) date 2025-09-29 14:03:59*
%MOMM*%
%LPD*%
G01*
G04 APERTURE LIST*
%ADD10C,0.000000*%
%ADD11C,0.400000*%
%ADD12C,0.125000*%
%ADD13C,0.150000*%
%ADD14C,0.120000*%
G04 APERTURE END LIST*
D10*
G36*
X217120624Y-68324374D02*
G01*
X217120624Y-69382708D01*
X217147083Y-69409167D01*
X217252916Y-69382708D01*
X217385208Y-69303333D01*
X217438125Y-69303333D01*
X217887916Y-69065208D01*
X217755624Y-68959375D01*
X217543958Y-68853542D01*
X217543958Y-68827083D01*
X217676249Y-68694791D01*
X218099583Y-68906458D01*
X218284791Y-69038749D01*
X218364166Y-69065208D01*
X218417082Y-69118125D01*
X218258333Y-69276875D01*
X218205417Y-69276875D01*
X218073124Y-69171041D01*
X217464583Y-69488541D01*
X217411666Y-69488541D01*
X217279374Y-69567916D01*
X217226458Y-69567916D01*
X217147083Y-69620834D01*
X217094166Y-69620834D01*
X217014791Y-69673750D01*
X216882499Y-69700208D01*
X216856041Y-69753124D01*
X216829583Y-69753124D01*
X216776666Y-69700208D01*
X216776666Y-69673750D01*
X216697291Y-69567916D01*
X216856041Y-69515000D01*
X216908957Y-69409167D01*
X216908957Y-68483125D01*
X216882499Y-68456667D01*
X216882499Y-68324374D01*
X217147083Y-68297916D01*
X217120624Y-68324374D01*
G37*
G36*
X215612500Y-68668333D02*
G01*
X215612500Y-68747708D01*
X215638958Y-68774166D01*
X215638958Y-68880000D01*
X215665416Y-68906458D01*
X215665416Y-69012292D01*
X215718333Y-69118125D01*
X215744791Y-69091666D01*
X215877083Y-69091666D01*
X215903541Y-69118125D01*
X216221041Y-69144582D01*
X216247500Y-69171041D01*
X216406250Y-69171041D01*
X216432708Y-69197500D01*
X216432708Y-69276875D01*
X216353333Y-69409167D01*
X216326874Y-69382708D01*
X216221041Y-69382708D01*
X216194583Y-69356249D01*
X216088749Y-69356249D01*
X216062291Y-69329792D01*
X215956458Y-69329792D01*
X215929999Y-69303333D01*
X215797708Y-69303333D01*
X215771249Y-69276875D01*
X215718333Y-69329792D01*
X215744791Y-69356249D01*
X215744791Y-69462083D01*
X215771249Y-69488541D01*
X215771249Y-69594375D01*
X215797708Y-69620834D01*
X215824166Y-69911875D01*
X215850625Y-69938332D01*
X215850625Y-70070625D01*
X215797708Y-70070625D01*
X215771249Y-70097083D01*
X215612500Y-70097083D01*
X215586041Y-69832499D01*
X215559583Y-69806042D01*
X215559583Y-69647291D01*
X215533124Y-69620834D01*
X215533124Y-69488541D01*
X215506666Y-69462083D01*
X215506666Y-69303333D01*
X215480208Y-69276875D01*
X215480208Y-69144582D01*
X215453750Y-69118125D01*
X215453750Y-68959375D01*
X215427291Y-68932916D01*
X215427291Y-68800625D01*
X215400833Y-68774166D01*
X215400833Y-68668333D01*
X215427291Y-68641875D01*
X215612500Y-68641875D01*
X215638958Y-68615417D01*
X215612500Y-68668333D01*
G37*
G36*
X214210208Y-69250416D02*
G01*
X214395416Y-69250416D01*
X214342499Y-69303333D01*
X214342499Y-69435624D01*
X214316041Y-69462083D01*
X214316041Y-69541457D01*
X214263125Y-69647291D01*
X214263125Y-69700208D01*
X214130833Y-69938332D01*
X213919166Y-70149999D01*
X213892708Y-70149999D01*
X213786875Y-70229374D01*
X213575208Y-70097083D01*
X213733958Y-70017709D01*
X213945624Y-69806042D01*
X213945624Y-69779583D01*
X213998541Y-69726667D01*
X214051458Y-69620834D01*
X214051458Y-69567916D01*
X214077916Y-69541457D01*
X214130833Y-69223959D01*
X214183750Y-69223959D01*
X214210208Y-69250416D01*
G37*
G36*
X215294999Y-66472292D02*
G01*
X215347916Y-66525208D01*
X215400833Y-66551666D01*
X215480208Y-66551666D01*
X215586041Y-66683958D01*
X215586041Y-66816250D01*
X215559583Y-66869167D01*
X215427291Y-66948541D01*
X215321458Y-66948541D01*
X215294999Y-66895625D01*
X215374374Y-66895625D01*
X215480208Y-66842708D01*
X215533124Y-66763333D01*
X215533124Y-66710416D01*
X215427291Y-66604583D01*
X215294999Y-66604583D01*
X215136249Y-66736875D01*
X215136249Y-66763333D01*
X215083333Y-66763333D01*
X215109791Y-66657500D01*
X215268541Y-66525208D01*
X215268541Y-66472292D01*
X215242083Y-66445833D01*
X215294999Y-66445833D01*
X215294999Y-66472292D01*
G37*
G36*
X216326874Y-63323750D02*
G01*
X216459166Y-63456042D01*
X216512082Y-63561875D01*
X216538541Y-63720625D01*
X216564999Y-63747083D01*
X216564999Y-63879375D01*
X216591458Y-63905833D01*
X216591458Y-64038125D01*
X216564999Y-64064584D01*
X216538541Y-64011667D01*
X216512082Y-63800000D01*
X216406250Y-63588333D01*
X216247500Y-63429583D01*
X216141666Y-63429583D01*
X215982916Y-63588333D01*
X215771249Y-63985208D01*
X215771249Y-64038125D01*
X215797708Y-64064584D01*
X215850625Y-64064584D01*
X215903541Y-64011667D01*
X215929999Y-63932291D01*
X215982916Y-63879375D01*
X216009375Y-63879375D01*
X216009375Y-63958750D01*
X215956458Y-64064584D01*
X216088749Y-64143958D01*
X216194583Y-64011667D01*
X216221041Y-64011667D01*
X216221041Y-64064584D01*
X216168124Y-64143958D01*
X216168124Y-64223333D01*
X216273958Y-64355625D01*
X216273958Y-64408542D01*
X216326874Y-64461459D01*
X216406250Y-64355625D01*
X216432708Y-64355625D01*
X216432708Y-64408542D01*
X216379791Y-64514375D01*
X216326874Y-64567291D01*
X216326874Y-64673125D01*
X216353333Y-64699583D01*
X216353333Y-64884792D01*
X216379791Y-64911250D01*
X216379791Y-65175833D01*
X216353333Y-65202292D01*
X216353333Y-65625625D01*
X216326874Y-65652083D01*
X216326874Y-65784375D01*
X216300416Y-65810833D01*
X216300416Y-65943125D01*
X216273958Y-65969583D01*
X216273958Y-66048958D01*
X216247500Y-66075417D01*
X216221041Y-66207708D01*
X216168124Y-66287083D01*
X216141666Y-66392916D01*
X216035833Y-66498750D01*
X215903541Y-66525208D01*
X215877083Y-66551666D01*
X215797708Y-66551666D01*
X215771249Y-66525208D01*
X215718333Y-66525208D01*
X215612500Y-66419375D01*
X215612500Y-66366458D01*
X215533124Y-66207708D01*
X215533124Y-66154791D01*
X215453750Y-65996042D01*
X215453750Y-65810833D01*
X215427291Y-65784375D01*
X215427291Y-65149375D01*
X215453750Y-65122916D01*
X215480208Y-64646667D01*
X215453750Y-64620208D01*
X215427291Y-64646667D01*
X215374374Y-64646667D01*
X215321458Y-64593750D01*
X215321458Y-64540833D01*
X215294999Y-64514375D01*
X215294999Y-64382083D01*
X215321458Y-64329166D01*
X215347916Y-64329166D01*
X215347916Y-64408542D01*
X215400833Y-64461459D01*
X215427291Y-64435000D01*
X215506666Y-64276250D01*
X215559583Y-64223333D01*
X215612500Y-64117500D01*
X215612500Y-64064584D01*
X215718333Y-63879375D01*
X215718333Y-63826458D01*
X215771249Y-63773541D01*
X215903541Y-63508958D01*
X216062291Y-63350208D01*
X216168124Y-63297292D01*
X216273958Y-63297292D01*
X216326874Y-63323750D01*
G37*
G36*
X211987708Y-68509583D02*
G01*
X212014166Y-68536041D01*
X212119999Y-68536041D01*
X212146458Y-68562500D01*
X212252292Y-68562500D01*
X212278750Y-68588958D01*
X212252292Y-68641875D01*
X212252292Y-68774166D01*
X212225833Y-68800625D01*
X212225833Y-68906458D01*
X212199375Y-68932916D01*
X212172916Y-69197500D01*
X212146458Y-69223959D01*
X212146458Y-69329792D01*
X212119999Y-69356249D01*
X212119999Y-69462083D01*
X212146458Y-69488541D01*
X212358125Y-69488541D01*
X212463958Y-69567916D01*
X212516874Y-69488541D01*
X212543333Y-69356249D01*
X212463958Y-69303333D01*
X212411041Y-69356249D01*
X212358125Y-69488541D01*
X212146458Y-69488541D01*
X212225833Y-69409167D01*
X212358125Y-69144582D01*
X212358125Y-69065208D01*
X212331666Y-69038749D01*
X212278750Y-69038749D01*
X212331666Y-68721249D01*
X212702083Y-68774166D01*
X212728541Y-68747708D01*
X212728541Y-68615417D01*
X212781458Y-68588958D01*
X212807916Y-68615417D01*
X212940208Y-68615417D01*
X212966666Y-68641875D01*
X212913749Y-68668333D01*
X212913749Y-68774166D01*
X212940208Y-68800625D01*
X213019583Y-68800625D01*
X213046042Y-68827083D01*
X213284166Y-68827083D01*
X213284166Y-69118125D01*
X213257708Y-69144582D01*
X213098958Y-69144582D01*
X213098958Y-69012292D01*
X213046042Y-68959375D01*
X212807916Y-68959375D01*
X212781458Y-68932916D01*
X212622708Y-68932916D01*
X212596250Y-68906458D01*
X212490416Y-68906458D01*
X212463958Y-68932916D01*
X212463958Y-69012292D01*
X212543333Y-69065208D01*
X212490416Y-69144582D01*
X212543333Y-69197500D01*
X212675625Y-69197500D01*
X212728541Y-69223959D01*
X212728541Y-69303333D01*
X212702083Y-69329792D01*
X212702083Y-69409167D01*
X212649167Y-69515000D01*
X212649167Y-69567916D01*
X212516874Y-69832499D01*
X212411041Y-69938332D01*
X212411041Y-69964791D01*
X212384583Y-69964791D01*
X212278750Y-70070625D01*
X212225833Y-70097083D01*
X212172916Y-70097083D01*
X212067083Y-69991250D01*
X212172916Y-69938332D01*
X212384583Y-69726667D01*
X212384583Y-69700208D01*
X212278750Y-69594375D01*
X212199375Y-69620834D01*
X212119999Y-69541457D01*
X212067083Y-69647291D01*
X212040625Y-69911875D01*
X212014166Y-69964791D01*
X211961250Y-70017709D01*
X211908333Y-70017709D01*
X211881875Y-70044166D01*
X211828958Y-70017709D01*
X211696666Y-70017709D01*
X211696666Y-69885416D01*
X211670208Y-69832499D01*
X211723124Y-69858958D01*
X211828958Y-69858958D01*
X211881875Y-69753124D01*
X211908333Y-69488541D01*
X211881875Y-69462083D01*
X211802500Y-69462083D01*
X211776041Y-69435624D01*
X211723124Y-69488541D01*
X211696666Y-69594375D01*
X211670208Y-69620834D01*
X211670208Y-69673750D01*
X211564375Y-69885416D01*
X211511458Y-69938332D01*
X211432083Y-69911875D01*
X211352708Y-69832499D01*
X211458541Y-69700208D01*
X211511458Y-69594375D01*
X211511458Y-69541457D01*
X211537916Y-69515000D01*
X211537916Y-69462083D01*
X211590833Y-69382708D01*
X211590833Y-69303333D01*
X211604062Y-69276875D01*
X211802500Y-69276875D01*
X211828958Y-69303333D01*
X211934791Y-69303333D01*
X211987708Y-69223959D01*
X211987708Y-69091666D01*
X211961250Y-69065208D01*
X211855417Y-69065208D01*
X211802500Y-69171041D01*
X211802500Y-69276875D01*
X211604062Y-69276875D01*
X211643750Y-69197500D01*
X211643750Y-69171041D01*
X211643750Y-69118125D01*
X211670208Y-69091666D01*
X211670208Y-69012292D01*
X211696666Y-68985833D01*
X211696666Y-68906458D01*
X211723124Y-68880000D01*
X211881875Y-68880000D01*
X211908333Y-68906458D01*
X211987708Y-68906458D01*
X212014166Y-68932916D01*
X212067083Y-68853542D01*
X212067083Y-68721249D01*
X211961250Y-68668333D01*
X211908333Y-68721249D01*
X211881875Y-68880000D01*
X211723124Y-68880000D01*
X211723124Y-68800625D01*
X211749583Y-68774166D01*
X211749583Y-68668333D01*
X211776041Y-68641875D01*
X211802500Y-68483125D01*
X211987708Y-68509583D01*
G37*
G36*
X213072500Y-63932291D02*
G01*
X213125416Y-63932291D01*
X213707499Y-64461459D01*
X214236667Y-64752500D01*
X214263125Y-64752500D01*
X214316041Y-64699583D01*
X214316041Y-64567291D01*
X214289583Y-64514375D01*
X214316041Y-64514375D01*
X214368958Y-64567291D01*
X214421875Y-64673125D01*
X214421875Y-64805417D01*
X214342499Y-64911250D01*
X214183750Y-64911250D01*
X214157291Y-64937708D01*
X214210208Y-65043542D01*
X214210208Y-65149375D01*
X214236667Y-65175833D01*
X214236667Y-65599167D01*
X214263125Y-65625625D01*
X214263125Y-66234167D01*
X214236667Y-66260625D01*
X214236667Y-66498750D01*
X214210208Y-66525208D01*
X214210208Y-66604583D01*
X214157291Y-66710416D01*
X214157291Y-66763333D01*
X214077916Y-66922083D01*
X213972083Y-67027917D01*
X213919166Y-67054375D01*
X213839792Y-67054375D01*
X213813333Y-67080833D01*
X213654583Y-67080833D01*
X213628125Y-67054375D01*
X213416458Y-67054375D01*
X213310624Y-66975000D01*
X213284166Y-66975000D01*
X213178333Y-66842708D01*
X213046042Y-66578125D01*
X213019583Y-66419375D01*
X212993125Y-66392916D01*
X212993125Y-66313541D01*
X212966666Y-66287083D01*
X212966666Y-66181250D01*
X212940208Y-66154791D01*
X212940208Y-65943125D01*
X212913749Y-65916666D01*
X212913749Y-65625625D01*
X212940208Y-65599167D01*
X212940208Y-65466875D01*
X212807916Y-65361041D01*
X212807916Y-65334583D01*
X212887291Y-65361041D01*
X212966666Y-65281667D01*
X212993125Y-65070000D01*
X212887291Y-65017083D01*
X212860833Y-64937708D01*
X212993125Y-64964166D01*
X213046042Y-64911250D01*
X213098958Y-64778958D01*
X213046042Y-64726041D01*
X212993125Y-64620208D01*
X213046042Y-64620208D01*
X213098958Y-64673125D01*
X213151874Y-64673125D01*
X213257708Y-64540833D01*
X213257708Y-64514375D01*
X213337083Y-64435000D01*
X213310624Y-64382083D01*
X213072500Y-64143958D01*
X213019583Y-64117500D01*
X212860833Y-64117500D01*
X212675625Y-64223333D01*
X212384583Y-64514375D01*
X212331666Y-64620208D01*
X212225833Y-64726041D01*
X212225833Y-64752500D01*
X212172916Y-64726041D01*
X212199375Y-64620208D01*
X212358125Y-64329166D01*
X212596250Y-64091042D01*
X212622708Y-64091042D01*
X212754999Y-63985208D01*
X212860833Y-63932291D01*
X213046042Y-63905833D01*
X213072500Y-63932291D01*
G37*
G36*
X214051458Y-58376042D02*
G01*
X214051458Y-58402500D01*
X214342499Y-58720000D01*
X214342499Y-58746459D01*
X214421875Y-58825833D01*
X214527708Y-59011042D01*
X214580625Y-59063959D01*
X214686458Y-59275625D01*
X214739374Y-59328542D01*
X214792291Y-59460833D01*
X214845208Y-59513750D01*
X215030416Y-59884167D01*
X215030416Y-59937083D01*
X215109791Y-60095834D01*
X215162708Y-60148750D01*
X215189166Y-60228125D01*
X215242083Y-60281042D01*
X215321458Y-60439792D01*
X215374374Y-60492709D01*
X215824166Y-61524583D01*
X215877083Y-61577500D01*
X215877083Y-61603958D01*
X216141666Y-61868542D01*
X216141666Y-61895000D01*
X216273958Y-62053750D01*
X216300416Y-62133125D01*
X216353333Y-62186042D01*
X216564999Y-62609375D01*
X216564999Y-62662292D01*
X216617916Y-62741666D01*
X216670833Y-62953333D01*
X216697291Y-62979792D01*
X216697291Y-63032708D01*
X216750208Y-63112083D01*
X216776666Y-63297292D01*
X216803125Y-63323750D01*
X216803125Y-63403125D01*
X216829583Y-63429583D01*
X216829583Y-63535416D01*
X216856041Y-63561875D01*
X216856041Y-63667709D01*
X216882499Y-63694167D01*
X216882499Y-63826458D01*
X216908957Y-63852917D01*
X216908957Y-64038125D01*
X216935416Y-64064584D01*
X216935416Y-64937708D01*
X216908957Y-64964166D01*
X216908957Y-65149375D01*
X216882499Y-65175833D01*
X216882499Y-65255209D01*
X216856041Y-65281667D01*
X216829583Y-65493333D01*
X216776666Y-65599167D01*
X216776666Y-65652083D01*
X216750208Y-65678542D01*
X216750208Y-65757916D01*
X216882499Y-66022500D01*
X216882499Y-66154791D01*
X216908957Y-66207708D01*
X216882499Y-66234167D01*
X216882499Y-66392916D01*
X216856041Y-66419375D01*
X216856041Y-66472292D01*
X216776666Y-66578125D01*
X216776666Y-66789791D01*
X216750208Y-66816250D01*
X216750208Y-66922083D01*
X216697291Y-67027917D01*
X216697291Y-67080833D01*
X216644375Y-67133750D01*
X216617916Y-67213125D01*
X216512082Y-67318958D01*
X216512082Y-67345416D01*
X216194583Y-67662917D01*
X216035833Y-67742291D01*
X215903541Y-67848125D01*
X215718333Y-67927499D01*
X215665416Y-67980416D01*
X215612500Y-67980416D01*
X215480208Y-68059792D01*
X215427291Y-68059792D01*
X215268541Y-68139166D01*
X215215625Y-68139166D01*
X215056875Y-68218542D01*
X214871666Y-68245000D01*
X214845208Y-68271458D01*
X214765833Y-68271458D01*
X214739374Y-68297916D01*
X214633541Y-68297916D01*
X214607083Y-68324374D01*
X214395416Y-68324374D01*
X214368958Y-68350833D01*
X214157291Y-68350833D01*
X214130833Y-68324374D01*
X213839792Y-68324374D01*
X213813333Y-68297916D01*
X213628125Y-68297916D01*
X213601666Y-68271458D01*
X213495833Y-68271458D01*
X213469375Y-68245000D01*
X213363541Y-68245000D01*
X213337083Y-68218542D01*
X213257708Y-68218542D01*
X213231250Y-68192083D01*
X213151874Y-68192083D01*
X213125416Y-68165625D01*
X213046042Y-68165625D01*
X212940208Y-68112708D01*
X212887291Y-68112708D01*
X212807916Y-68059792D01*
X212754999Y-68059792D01*
X212675625Y-68006875D01*
X212622708Y-68006875D01*
X212305208Y-67848125D01*
X212252292Y-67795208D01*
X212172916Y-67768750D01*
X212119999Y-67715833D01*
X212040625Y-67689375D01*
X211908333Y-67583541D01*
X211802500Y-67530624D01*
X211564375Y-67530624D01*
X211537916Y-67504166D01*
X211432083Y-67504166D01*
X211405625Y-67477708D01*
X211273333Y-67451250D01*
X211114583Y-67371875D01*
X210902916Y-67213125D01*
X210876458Y-67213125D01*
X210797083Y-67133750D01*
X210770625Y-67133750D01*
X210585416Y-66948541D01*
X210585416Y-66922083D01*
X210506041Y-66842708D01*
X210400208Y-66657500D01*
X210347291Y-66604583D01*
X210347291Y-66551666D01*
X210320833Y-66525208D01*
X210320833Y-66419375D01*
X210479583Y-66419375D01*
X210506041Y-66445833D01*
X210506041Y-66525208D01*
X210585416Y-66683958D01*
X210638333Y-66736875D01*
X210638333Y-66763333D01*
X210902916Y-67027917D01*
X211088125Y-67133750D01*
X211141041Y-67186666D01*
X211352708Y-67292500D01*
X211405625Y-67292500D01*
X211485000Y-67345416D01*
X211617291Y-67371875D01*
X211643750Y-67398333D01*
X211802500Y-67398333D01*
X211828958Y-67371875D01*
X211881875Y-67371875D01*
X211961250Y-67292500D01*
X212067083Y-67239583D01*
X212093541Y-67292500D01*
X212040625Y-67345416D01*
X212040625Y-67398333D01*
X212172916Y-67504166D01*
X212252292Y-67530624D01*
X212305208Y-67583541D01*
X212384583Y-67610000D01*
X212437500Y-67662917D01*
X212516874Y-67689375D01*
X212569791Y-67742291D01*
X212728541Y-67821667D01*
X212781458Y-67821667D01*
X213046042Y-67953958D01*
X213178333Y-67980416D01*
X213204791Y-68006875D01*
X213284166Y-68006875D01*
X213310624Y-68033333D01*
X213575208Y-68059792D01*
X213601666Y-68086250D01*
X213760416Y-68086250D01*
X213786875Y-68112708D01*
X214025000Y-68112708D01*
X214051458Y-68139166D01*
X214501249Y-68139166D01*
X214527708Y-68112708D01*
X214712916Y-68112708D01*
X214739374Y-68086250D01*
X214951041Y-68059792D01*
X215056875Y-68006875D01*
X215109791Y-68006875D01*
X215136249Y-67980416D01*
X215189166Y-67980416D01*
X215215625Y-67953958D01*
X215268541Y-67953958D01*
X215294999Y-67927499D01*
X215347916Y-67927499D01*
X215665416Y-67768750D01*
X216115208Y-67451250D01*
X216141666Y-67451250D01*
X216459166Y-67133750D01*
X216459166Y-67107291D01*
X216591458Y-66922083D01*
X216591458Y-66842708D01*
X216617916Y-66816250D01*
X216591458Y-66578125D01*
X216459166Y-66313541D01*
X216459166Y-66234167D01*
X216617916Y-66234167D01*
X216670833Y-66313541D01*
X216670833Y-66366458D01*
X216723749Y-66392916D01*
X216776666Y-66340000D01*
X216776666Y-66154791D01*
X216750208Y-66128333D01*
X216750208Y-66075417D01*
X216697291Y-66048958D01*
X216617916Y-66181250D01*
X216617916Y-66234167D01*
X216459166Y-66234167D01*
X216459166Y-66181250D01*
X216512082Y-66075417D01*
X216538541Y-65890208D01*
X216564999Y-65863750D01*
X216591458Y-65625625D01*
X216617916Y-65599167D01*
X216617916Y-65466875D01*
X216644375Y-65440417D01*
X216644375Y-65281667D01*
X216670833Y-65255209D01*
X216697291Y-64805417D01*
X216723749Y-64778958D01*
X216723749Y-64276250D01*
X216697291Y-64249792D01*
X216697291Y-64091042D01*
X216670833Y-64064584D01*
X216670833Y-63932291D01*
X216644375Y-63905833D01*
X216644375Y-63773541D01*
X216617916Y-63747083D01*
X216617916Y-63667709D01*
X216591458Y-63641250D01*
X216591458Y-63561875D01*
X216564999Y-63535416D01*
X216564999Y-63456042D01*
X216512082Y-63376667D01*
X216512082Y-63323750D01*
X216432708Y-63165000D01*
X216194583Y-62953333D01*
X216115208Y-62953333D01*
X216035833Y-63032708D01*
X215956458Y-63191458D01*
X215850625Y-63323750D01*
X215824166Y-63403125D01*
X215718333Y-63535416D01*
X215718333Y-63561875D01*
X215638958Y-63641250D01*
X215533124Y-63826458D01*
X215480208Y-63879375D01*
X215480208Y-63905833D01*
X215400833Y-63985208D01*
X215400833Y-64011667D01*
X215189166Y-64249792D01*
X215162708Y-64249792D01*
X215056875Y-64329166D01*
X214448333Y-64038125D01*
X214395416Y-63985208D01*
X214025000Y-63800000D01*
X213972083Y-63747083D01*
X213786875Y-63667709D01*
X213733958Y-63614792D01*
X213442917Y-63482500D01*
X213390000Y-63429583D01*
X213125416Y-63297292D01*
X213072500Y-63297292D01*
X212913749Y-63217917D01*
X212834375Y-63217917D01*
X212675625Y-63297292D01*
X212384583Y-63561875D01*
X212278750Y-63747083D01*
X212225833Y-63800000D01*
X212067083Y-64117500D01*
X212040625Y-64249792D01*
X211961250Y-64382083D01*
X211908333Y-64593750D01*
X211881875Y-64620208D01*
X211881875Y-64673125D01*
X211855417Y-64699583D01*
X211855417Y-64778958D01*
X211828958Y-64805417D01*
X211828958Y-64937708D01*
X211802500Y-64964166D01*
X211802500Y-65308125D01*
X211776041Y-65334583D01*
X211776041Y-65413958D01*
X211802500Y-65440417D01*
X211802500Y-65678542D01*
X211828958Y-65705000D01*
X211828958Y-65757916D01*
X211908333Y-65916666D01*
X211987708Y-66022500D01*
X211987708Y-66128333D01*
X211934791Y-66234167D01*
X211961250Y-66287083D01*
X211934791Y-66313541D01*
X211908333Y-66419375D01*
X211855417Y-66392916D01*
X211855417Y-66366458D01*
X211670208Y-66181250D01*
X211485000Y-66075417D01*
X211432083Y-66022500D01*
X211405625Y-66022500D01*
X211352708Y-65969583D01*
X211246875Y-65916666D01*
X211193958Y-65916666D01*
X211114583Y-65863750D01*
X210902916Y-65810833D01*
X210876458Y-65784375D01*
X210770625Y-65784375D01*
X210611875Y-65863750D01*
X210558958Y-65916666D01*
X210506041Y-66022500D01*
X210506041Y-66128333D01*
X210479583Y-66154791D01*
X210479583Y-66419375D01*
X210320833Y-66419375D01*
X210294375Y-66392916D01*
X210294375Y-66181250D01*
X210320833Y-66154791D01*
X210320833Y-66048958D01*
X210347291Y-66022500D01*
X210347291Y-65969583D01*
X210400208Y-65863750D01*
X210347291Y-65810833D01*
X210241458Y-65784375D01*
X210215000Y-65757916D01*
X210056250Y-65731458D01*
X210029791Y-65705000D01*
X209976875Y-65705000D01*
X209950416Y-65678542D01*
X209897500Y-65678542D01*
X209871042Y-65652083D01*
X209818125Y-65652083D01*
X209738750Y-65599167D01*
X209527083Y-65546250D01*
X209500625Y-65519791D01*
X209447708Y-65519791D01*
X209421250Y-65493333D01*
X209368333Y-65493333D01*
X209341875Y-65466875D01*
X209288958Y-65466875D01*
X209130208Y-65387500D01*
X209077292Y-65387500D01*
X208865625Y-65281667D01*
X208812708Y-65281667D01*
X208680417Y-65202292D01*
X208627500Y-65202292D01*
X208548125Y-65149375D01*
X208495208Y-65149375D01*
X208204166Y-64990625D01*
X208151250Y-64990625D01*
X207992500Y-64911250D01*
X207939583Y-64911250D01*
X207833750Y-64831875D01*
X207833750Y-64752500D01*
X207860208Y-64726041D01*
X208574583Y-64382083D01*
X208607656Y-64355625D01*
X210373750Y-64355625D01*
X210400208Y-64382083D01*
X210400208Y-64699583D01*
X210426666Y-64726041D01*
X210426666Y-64831875D01*
X210453125Y-64858334D01*
X210453125Y-64911250D01*
X210506041Y-64964166D01*
X210638333Y-64964166D01*
X210744166Y-64884792D01*
X210717708Y-64593750D01*
X210691250Y-64567291D01*
X210691250Y-64435000D01*
X210664792Y-64408542D01*
X210664792Y-64276250D01*
X210611875Y-64223333D01*
X210426666Y-64223333D01*
X210373750Y-64276250D01*
X210373750Y-64355625D01*
X208607656Y-64355625D01*
X208706875Y-64276250D01*
X208865625Y-64196875D01*
X208918541Y-64143958D01*
X208997916Y-64117500D01*
X209034296Y-64091042D01*
X210373750Y-64091042D01*
X210426666Y-64143958D01*
X210479583Y-64143958D01*
X210506041Y-64170416D01*
X210585416Y-64170416D01*
X210664792Y-64117500D01*
X210664792Y-63826458D01*
X210691250Y-63800000D01*
X210691250Y-63614792D01*
X210717708Y-63588333D01*
X210717708Y-63508958D01*
X210770625Y-63403125D01*
X210770625Y-63350208D01*
X210823541Y-63270834D01*
X210823541Y-63244375D01*
X210770625Y-63191458D01*
X210638333Y-63191458D01*
X210558958Y-63244375D01*
X210479583Y-63403125D01*
X210453125Y-63535416D01*
X210426666Y-63561875D01*
X210426666Y-63667709D01*
X210400208Y-63694167D01*
X210400208Y-63879375D01*
X210373750Y-63905833D01*
X210373750Y-64091042D01*
X209034296Y-64091042D01*
X209288958Y-63905833D01*
X209315416Y-63905833D01*
X209500625Y-63747083D01*
X209527083Y-63747083D01*
X209791666Y-63508958D01*
X209818125Y-63403125D01*
X209844583Y-63376667D01*
X209844583Y-63244375D01*
X209897500Y-63138541D01*
X209897500Y-63085625D01*
X209923958Y-63059167D01*
X209923958Y-63006250D01*
X209950416Y-62979792D01*
X209950416Y-62926875D01*
X209976875Y-62900417D01*
X209976875Y-62847500D01*
X210109166Y-62582917D01*
X210215000Y-62450625D01*
X210215000Y-62424167D01*
X210294375Y-62344792D01*
X210294375Y-62318333D01*
X210400208Y-62212500D01*
X210400208Y-62186042D01*
X210850000Y-61736250D01*
X210876458Y-61736250D01*
X211008750Y-61603958D01*
X211035208Y-61603958D01*
X211114583Y-61524583D01*
X211299791Y-61418750D01*
X211352708Y-61365833D01*
X211432083Y-61339375D01*
X211485000Y-61286459D01*
X211749583Y-61154167D01*
X211961250Y-61101250D01*
X211987708Y-61074792D01*
X212040625Y-61074792D01*
X212067083Y-61048333D01*
X212119999Y-61048333D01*
X212146458Y-61021875D01*
X212199375Y-61021875D01*
X212225833Y-60995417D01*
X212437500Y-60968958D01*
X212463958Y-60942500D01*
X212543333Y-60942500D01*
X212569791Y-60916042D01*
X212675625Y-60916042D01*
X212702083Y-60889584D01*
X212754999Y-60889584D01*
X212807916Y-60836667D01*
X212834375Y-60651458D01*
X212860833Y-60625000D01*
X212860833Y-60545625D01*
X212913749Y-60439792D01*
X212913749Y-60360417D01*
X212966666Y-60281042D01*
X213019583Y-60069375D01*
X213046042Y-60042917D01*
X213046042Y-59990000D01*
X213072500Y-59963542D01*
X213072500Y-59910625D01*
X213098958Y-59884167D01*
X213098958Y-59804792D01*
X213151874Y-59698959D01*
X213151874Y-59619583D01*
X213178333Y-59593125D01*
X213178333Y-59513750D01*
X213231250Y-59407917D01*
X213231250Y-59355000D01*
X213257708Y-59328542D01*
X213257708Y-59249167D01*
X213310624Y-59143334D01*
X213310624Y-59090417D01*
X213337083Y-59063959D01*
X213337083Y-58984583D01*
X213390000Y-58878750D01*
X213390000Y-58825833D01*
X213416458Y-58799375D01*
X213416458Y-58720000D01*
X213469375Y-58614167D01*
X213469375Y-58534792D01*
X213522291Y-58428958D01*
X213522291Y-58376042D01*
X213548749Y-58349584D01*
X213548749Y-58296667D01*
X213575208Y-58270209D01*
X213575208Y-58190834D01*
X213601666Y-58164375D01*
X213628125Y-58058542D01*
X213707499Y-58058542D01*
X214051458Y-58376042D01*
G37*
G36*
X211299791Y-66260625D02*
G01*
X211485000Y-66445833D01*
X211564375Y-66604583D01*
X211564375Y-66710416D01*
X211511458Y-66763333D01*
X211405625Y-66763333D01*
X211379166Y-66736875D01*
X211326250Y-66736875D01*
X211220416Y-66631042D01*
X211193958Y-66578125D01*
X211193958Y-66419375D01*
X211246875Y-66366458D01*
X211246875Y-66340000D01*
X211114583Y-66234167D01*
X210929375Y-66234167D01*
X210876458Y-66287083D01*
X210850000Y-66287083D01*
X210850000Y-66181250D01*
X210876458Y-66128333D01*
X211035208Y-66128333D01*
X211299791Y-66260625D01*
G37*
G36*
X215242083Y-67266042D02*
G01*
X215242083Y-67292500D01*
X215189166Y-67292500D01*
X215162708Y-67266042D01*
X215083333Y-67266042D01*
X215056875Y-67239583D01*
X214951041Y-67239583D01*
X214924583Y-67266042D01*
X214739374Y-67266042D01*
X214712916Y-67292500D01*
X214633541Y-67292500D01*
X214527708Y-67371875D01*
X214474791Y-67371875D01*
X214448333Y-67345416D01*
X214448333Y-67318958D01*
X214501249Y-67292500D01*
X214501249Y-67266042D01*
X214554166Y-67213125D01*
X214765833Y-67213125D01*
X214792291Y-67186666D01*
X215136249Y-67186666D01*
X215242083Y-67266042D01*
G37*
G36*
X213046042Y-63773541D02*
G01*
X213151874Y-63773541D01*
X213310624Y-63852917D01*
X213363541Y-63905833D01*
X213390000Y-63905833D01*
X213390000Y-63932291D01*
X213204791Y-63826458D01*
X213125416Y-63826458D01*
X213098958Y-63800000D01*
X212940208Y-63800000D01*
X212913749Y-63826458D01*
X212860833Y-63826458D01*
X212754999Y-63879375D01*
X212702083Y-63932291D01*
X212675625Y-63932291D01*
X212675625Y-63905833D01*
X212807916Y-63800000D01*
X212860833Y-63800000D01*
X212887291Y-63773541D01*
X212993125Y-63773541D01*
X213019583Y-63747083D01*
X213046042Y-63773541D01*
G37*
G36*
X214951041Y-68827083D02*
G01*
X215056875Y-68853542D01*
X214924583Y-69171041D01*
X214739374Y-69435624D01*
X214660000Y-69435624D01*
X214527708Y-69356249D01*
X214686458Y-69171041D01*
X214739374Y-69065208D01*
X214712916Y-69012292D01*
X214183750Y-69012292D01*
X214157291Y-69038749D01*
X213866250Y-69038749D01*
X213839792Y-69012292D01*
X213575208Y-69012292D01*
X213601666Y-68853542D01*
X214421875Y-68853542D01*
X214448333Y-68827083D01*
X214818750Y-68827083D01*
X214845208Y-68800625D01*
X214924583Y-68800625D01*
X214951041Y-68827083D01*
G37*
G36*
X210400208Y-67953958D02*
G01*
X210373750Y-67980416D01*
X210453125Y-68086250D01*
X210479583Y-68165625D01*
X210532500Y-68218542D01*
X210558958Y-68297916D01*
X210400208Y-68377291D01*
X210320833Y-68509583D01*
X210215000Y-68456667D01*
X210162083Y-68456667D01*
X210135625Y-68483125D01*
X210109166Y-68562500D01*
X210162083Y-68615417D01*
X210215000Y-68615417D01*
X210320833Y-68668333D01*
X210320833Y-68721249D01*
X210267917Y-68800625D01*
X210241458Y-68800625D01*
X210215000Y-68774166D01*
X210162083Y-68774166D01*
X210056250Y-68721249D01*
X210003333Y-68774166D01*
X210003333Y-68827083D01*
X209923958Y-68959375D01*
X209897500Y-69065208D01*
X209976875Y-69118125D01*
X210029791Y-69118125D01*
X210056250Y-69091666D01*
X209976875Y-69038749D01*
X209976875Y-68985833D01*
X210082708Y-68880000D01*
X210109166Y-68827083D01*
X210188541Y-68853542D01*
X210241458Y-68906458D01*
X210056250Y-69118125D01*
X210162083Y-69171041D01*
X210135625Y-69276875D01*
X210162083Y-69303333D01*
X210215000Y-69303333D01*
X210241458Y-69276875D01*
X210294375Y-69276875D01*
X210320833Y-69250416D01*
X210426666Y-69223959D01*
X210664792Y-69012292D01*
X210611875Y-68959375D01*
X210558958Y-68959375D01*
X210479583Y-68906458D01*
X210347291Y-68880000D01*
X210320833Y-68853542D01*
X210373750Y-68721249D01*
X210453125Y-68721249D01*
X210532500Y-68774166D01*
X210664792Y-68800625D01*
X210691250Y-68827083D01*
X210744166Y-68827083D01*
X210797083Y-68747708D01*
X210797083Y-68694791D01*
X210850000Y-68615417D01*
X210744166Y-68536041D01*
X210691250Y-68536041D01*
X210532500Y-68694791D01*
X210506041Y-68694791D01*
X210400208Y-68588958D01*
X210400208Y-68562500D01*
X210479583Y-68509583D01*
X210479583Y-68483125D01*
X210585416Y-68377291D01*
X210717708Y-68139166D01*
X210876458Y-68218542D01*
X210876458Y-68245000D01*
X210797083Y-68350833D01*
X210823541Y-68403750D01*
X210902916Y-68403750D01*
X210929375Y-68377291D01*
X210982291Y-68165625D01*
X211008750Y-68139166D01*
X211114583Y-68192083D01*
X211167500Y-68192083D01*
X211193958Y-68218542D01*
X211141041Y-68271458D01*
X211141041Y-68324374D01*
X211114583Y-68350833D01*
X211088125Y-68456667D01*
X211141041Y-68509583D01*
X211273333Y-68536041D01*
X211299791Y-68562500D01*
X211379166Y-68562500D01*
X211352708Y-68615417D01*
X211352708Y-68694791D01*
X211326250Y-68721249D01*
X211193958Y-68694791D01*
X211167500Y-68668333D01*
X211088125Y-68668333D01*
X211061666Y-68641875D01*
X211008750Y-68694791D01*
X210982291Y-68827083D01*
X210955833Y-68853542D01*
X210955833Y-68880000D01*
X211008750Y-68932916D01*
X211326250Y-69012292D01*
X211299791Y-69171041D01*
X211141041Y-69144582D01*
X211035208Y-69091666D01*
X210955833Y-69091666D01*
X210929375Y-69118125D01*
X210982291Y-69409167D01*
X211061666Y-69567916D01*
X211167500Y-69673750D01*
X211008750Y-69779583D01*
X210982291Y-69779583D01*
X210902916Y-69700208D01*
X210823541Y-69541457D01*
X210823541Y-69488541D01*
X210797083Y-69462083D01*
X210797083Y-69356249D01*
X210770625Y-69329792D01*
X210770625Y-69250416D01*
X210744166Y-69223959D01*
X210585416Y-69356249D01*
X210426666Y-69435624D01*
X210373750Y-69435624D01*
X210347291Y-69462083D01*
X210241458Y-69462083D01*
X210215000Y-69488541D01*
X210109166Y-69488541D01*
X210029791Y-69303333D01*
X209950416Y-69250416D01*
X209765208Y-69223959D01*
X209659375Y-69171041D01*
X209606458Y-69171041D01*
X209580000Y-69144582D01*
X209500625Y-69144582D01*
X209474167Y-69118125D01*
X209368333Y-69118125D01*
X209368333Y-69065208D01*
X209394791Y-69038749D01*
X209394791Y-68932916D01*
X209606458Y-68985833D01*
X209632916Y-69012292D01*
X209685833Y-69012292D01*
X209738750Y-68959375D01*
X209765208Y-68853542D01*
X209871042Y-68668333D01*
X209818125Y-68615417D01*
X209632916Y-68536041D01*
X209659375Y-68430208D01*
X209685833Y-68403750D01*
X209738750Y-68403750D01*
X209871042Y-68483125D01*
X209923958Y-68483125D01*
X209976875Y-68430208D01*
X209976875Y-68377291D01*
X209923958Y-68324374D01*
X209844583Y-68297916D01*
X209818125Y-68192083D01*
X210029791Y-68192083D01*
X210056250Y-68245000D01*
X210109166Y-68245000D01*
X210241458Y-68324374D01*
X210347291Y-68350833D01*
X210373750Y-68324374D01*
X210320833Y-68192083D01*
X210241458Y-68086250D01*
X210188541Y-68086250D01*
X210135625Y-68139166D01*
X210029791Y-68192083D01*
X209818125Y-68192083D01*
X209765208Y-68112708D01*
X209976875Y-68033333D01*
X210109166Y-67927499D01*
X210135625Y-67927499D01*
X210215000Y-67848125D01*
X210267917Y-67848125D01*
X210400208Y-67953958D01*
G37*
G36*
X209632916Y-68641875D02*
G01*
X209712291Y-68641875D01*
X209738750Y-68668333D01*
X209738750Y-68721249D01*
X209712291Y-68747708D01*
X209712291Y-68880000D01*
X209685833Y-68932916D01*
X209632916Y-68906458D01*
X209553541Y-68906458D01*
X209606458Y-68615417D01*
X209632916Y-68641875D01*
G37*
G36*
X212834375Y-69197500D02*
G01*
X213072500Y-69197500D01*
X213098958Y-69223959D01*
X213231250Y-69223959D01*
X213231250Y-69567916D01*
X213204791Y-69594375D01*
X213204791Y-69779583D01*
X213098958Y-69858958D01*
X212993125Y-69858958D01*
X212913749Y-69726667D01*
X212887291Y-69753124D01*
X212887291Y-69938332D01*
X212860833Y-69964791D01*
X212860833Y-70017709D01*
X212940208Y-70070625D01*
X213046042Y-70070625D01*
X213098958Y-70017709D01*
X213125416Y-69911875D01*
X213257708Y-69991250D01*
X213257708Y-70070625D01*
X213231250Y-70123542D01*
X213178333Y-70176458D01*
X213125416Y-70176458D01*
X213098958Y-70202917D01*
X213019583Y-70202917D01*
X212993125Y-70176458D01*
X212807916Y-70176458D01*
X212702083Y-70097083D01*
X212725601Y-69673750D01*
X212913749Y-69673750D01*
X212993125Y-69726667D01*
X213046042Y-69673750D01*
X213072500Y-69382708D01*
X212966666Y-69329792D01*
X212913749Y-69435624D01*
X212913749Y-69673750D01*
X212725601Y-69673750D01*
X212728541Y-69620834D01*
X212754999Y-69594375D01*
X212754999Y-69435624D01*
X212754999Y-69409167D01*
X212781458Y-69382708D01*
X212781458Y-69197500D01*
X212807916Y-69171041D01*
X212834375Y-69197500D01*
G37*
D11*
X192041728Y-100159438D02*
X191089347Y-100159438D01*
X191089347Y-100159438D02*
X191089347Y-98159438D01*
X192613157Y-100064200D02*
X192898871Y-100159438D01*
X192898871Y-100159438D02*
X193375062Y-100159438D01*
X193375062Y-100159438D02*
X193565538Y-100064200D01*
X193565538Y-100064200D02*
X193660776Y-99968961D01*
X193660776Y-99968961D02*
X193756014Y-99778485D01*
X193756014Y-99778485D02*
X193756014Y-99588009D01*
X193756014Y-99588009D02*
X193660776Y-99397533D01*
X193660776Y-99397533D02*
X193565538Y-99302295D01*
X193565538Y-99302295D02*
X193375062Y-99207057D01*
X193375062Y-99207057D02*
X192994109Y-99111819D01*
X192994109Y-99111819D02*
X192803633Y-99016580D01*
X192803633Y-99016580D02*
X192708395Y-98921342D01*
X192708395Y-98921342D02*
X192613157Y-98730866D01*
X192613157Y-98730866D02*
X192613157Y-98540390D01*
X192613157Y-98540390D02*
X192708395Y-98349914D01*
X192708395Y-98349914D02*
X192803633Y-98254676D01*
X192803633Y-98254676D02*
X192994109Y-98159438D01*
X192994109Y-98159438D02*
X193470300Y-98159438D01*
X193470300Y-98159438D02*
X193756014Y-98254676D01*
X195756014Y-100159438D02*
X195089347Y-99207057D01*
X194613157Y-100159438D02*
X194613157Y-98159438D01*
X194613157Y-98159438D02*
X195375062Y-98159438D01*
X195375062Y-98159438D02*
X195565538Y-98254676D01*
X195565538Y-98254676D02*
X195660776Y-98349914D01*
X195660776Y-98349914D02*
X195756014Y-98540390D01*
X195756014Y-98540390D02*
X195756014Y-98826104D01*
X195756014Y-98826104D02*
X195660776Y-99016580D01*
X195660776Y-99016580D02*
X195565538Y-99111819D01*
X195565538Y-99111819D02*
X195375062Y-99207057D01*
X195375062Y-99207057D02*
X194613157Y-99207057D01*
X198136967Y-100159438D02*
X198136967Y-98159438D01*
X198136967Y-98159438D02*
X198803634Y-99588009D01*
X198803634Y-99588009D02*
X199470300Y-98159438D01*
X199470300Y-98159438D02*
X199470300Y-100159438D01*
X200803633Y-98159438D02*
X201184586Y-98159438D01*
X201184586Y-98159438D02*
X201375062Y-98254676D01*
X201375062Y-98254676D02*
X201565538Y-98445152D01*
X201565538Y-98445152D02*
X201660776Y-98826104D01*
X201660776Y-98826104D02*
X201660776Y-99492771D01*
X201660776Y-99492771D02*
X201565538Y-99873723D01*
X201565538Y-99873723D02*
X201375062Y-100064200D01*
X201375062Y-100064200D02*
X201184586Y-100159438D01*
X201184586Y-100159438D02*
X200803633Y-100159438D01*
X200803633Y-100159438D02*
X200613157Y-100064200D01*
X200613157Y-100064200D02*
X200422681Y-99873723D01*
X200422681Y-99873723D02*
X200327443Y-99492771D01*
X200327443Y-99492771D02*
X200327443Y-98826104D01*
X200327443Y-98826104D02*
X200422681Y-98445152D01*
X200422681Y-98445152D02*
X200613157Y-98254676D01*
X200613157Y-98254676D02*
X200803633Y-98159438D01*
X202517919Y-100159438D02*
X202517919Y-98159438D01*
X202517919Y-98159438D02*
X202994109Y-98159438D01*
X202994109Y-98159438D02*
X203279824Y-98254676D01*
X203279824Y-98254676D02*
X203470300Y-98445152D01*
X203470300Y-98445152D02*
X203565538Y-98635628D01*
X203565538Y-98635628D02*
X203660776Y-99016580D01*
X203660776Y-99016580D02*
X203660776Y-99302295D01*
X203660776Y-99302295D02*
X203565538Y-99683247D01*
X203565538Y-99683247D02*
X203470300Y-99873723D01*
X203470300Y-99873723D02*
X203279824Y-100064200D01*
X203279824Y-100064200D02*
X202994109Y-100159438D01*
X202994109Y-100159438D02*
X202517919Y-100159438D01*
X204517919Y-98159438D02*
X204517919Y-99778485D01*
X204517919Y-99778485D02*
X204613157Y-99968961D01*
X204613157Y-99968961D02*
X204708395Y-100064200D01*
X204708395Y-100064200D02*
X204898871Y-100159438D01*
X204898871Y-100159438D02*
X205279824Y-100159438D01*
X205279824Y-100159438D02*
X205470300Y-100064200D01*
X205470300Y-100064200D02*
X205565538Y-99968961D01*
X205565538Y-99968961D02*
X205660776Y-99778485D01*
X205660776Y-99778485D02*
X205660776Y-98159438D01*
X207565538Y-100159438D02*
X206613157Y-100159438D01*
X206613157Y-100159438D02*
X206613157Y-98159438D01*
X208232205Y-99111819D02*
X208898872Y-99111819D01*
X209184586Y-100159438D02*
X208232205Y-100159438D01*
X208232205Y-100159438D02*
X208232205Y-98159438D01*
X208232205Y-98159438D02*
X209184586Y-98159438D01*
D12*
X181639378Y-79757309D02*
X181401283Y-79757309D01*
X181401283Y-79757309D02*
X181377474Y-79995404D01*
X181377474Y-79995404D02*
X181401283Y-79971595D01*
X181401283Y-79971595D02*
X181448902Y-79947785D01*
X181448902Y-79947785D02*
X181567950Y-79947785D01*
X181567950Y-79947785D02*
X181615569Y-79971595D01*
X181615569Y-79971595D02*
X181639378Y-79995404D01*
X181639378Y-79995404D02*
X181663188Y-80043023D01*
X181663188Y-80043023D02*
X181663188Y-80162071D01*
X181663188Y-80162071D02*
X181639378Y-80209690D01*
X181639378Y-80209690D02*
X181615569Y-80233500D01*
X181615569Y-80233500D02*
X181567950Y-80257309D01*
X181567950Y-80257309D02*
X181448902Y-80257309D01*
X181448902Y-80257309D02*
X181401283Y-80233500D01*
X181401283Y-80233500D02*
X181377474Y-80209690D01*
X181806045Y-79757309D02*
X181972711Y-80257309D01*
X181972711Y-80257309D02*
X182139378Y-79757309D01*
X195889378Y-60107309D02*
X195651283Y-60107309D01*
X195651283Y-60107309D02*
X195627474Y-60345404D01*
X195627474Y-60345404D02*
X195651283Y-60321595D01*
X195651283Y-60321595D02*
X195698902Y-60297785D01*
X195698902Y-60297785D02*
X195817950Y-60297785D01*
X195817950Y-60297785D02*
X195865569Y-60321595D01*
X195865569Y-60321595D02*
X195889378Y-60345404D01*
X195889378Y-60345404D02*
X195913188Y-60393023D01*
X195913188Y-60393023D02*
X195913188Y-60512071D01*
X195913188Y-60512071D02*
X195889378Y-60559690D01*
X195889378Y-60559690D02*
X195865569Y-60583500D01*
X195865569Y-60583500D02*
X195817950Y-60607309D01*
X195817950Y-60607309D02*
X195698902Y-60607309D01*
X195698902Y-60607309D02*
X195651283Y-60583500D01*
X195651283Y-60583500D02*
X195627474Y-60559690D01*
X196056045Y-60107309D02*
X196222711Y-60607309D01*
X196222711Y-60607309D02*
X196389378Y-60107309D01*
D13*
X177988095Y-92554819D02*
X177988095Y-91554819D01*
X177988095Y-91554819D02*
X178321428Y-92269104D01*
X178321428Y-92269104D02*
X178654761Y-91554819D01*
X178654761Y-91554819D02*
X178654761Y-92554819D01*
X179464285Y-92031009D02*
X179607142Y-92078628D01*
X179607142Y-92078628D02*
X179654761Y-92126247D01*
X179654761Y-92126247D02*
X179702380Y-92221485D01*
X179702380Y-92221485D02*
X179702380Y-92364342D01*
X179702380Y-92364342D02*
X179654761Y-92459580D01*
X179654761Y-92459580D02*
X179607142Y-92507200D01*
X179607142Y-92507200D02*
X179511904Y-92554819D01*
X179511904Y-92554819D02*
X179130952Y-92554819D01*
X179130952Y-92554819D02*
X179130952Y-91554819D01*
X179130952Y-91554819D02*
X179464285Y-91554819D01*
X179464285Y-91554819D02*
X179559523Y-91602438D01*
X179559523Y-91602438D02*
X179607142Y-91650057D01*
X179607142Y-91650057D02*
X179654761Y-91745295D01*
X179654761Y-91745295D02*
X179654761Y-91840533D01*
X179654761Y-91840533D02*
X179607142Y-91935771D01*
X179607142Y-91935771D02*
X179559523Y-91983390D01*
X179559523Y-91983390D02*
X179464285Y-92031009D01*
X179464285Y-92031009D02*
X179130952Y-92031009D01*
X179892857Y-92650057D02*
X180654761Y-92650057D01*
X181464285Y-92459580D02*
X181416666Y-92507200D01*
X181416666Y-92507200D02*
X181273809Y-92554819D01*
X181273809Y-92554819D02*
X181178571Y-92554819D01*
X181178571Y-92554819D02*
X181035714Y-92507200D01*
X181035714Y-92507200D02*
X180940476Y-92411961D01*
X180940476Y-92411961D02*
X180892857Y-92316723D01*
X180892857Y-92316723D02*
X180845238Y-92126247D01*
X180845238Y-92126247D02*
X180845238Y-91983390D01*
X180845238Y-91983390D02*
X180892857Y-91792914D01*
X180892857Y-91792914D02*
X180940476Y-91697676D01*
X180940476Y-91697676D02*
X181035714Y-91602438D01*
X181035714Y-91602438D02*
X181178571Y-91554819D01*
X181178571Y-91554819D02*
X181273809Y-91554819D01*
X181273809Y-91554819D02*
X181416666Y-91602438D01*
X181416666Y-91602438D02*
X181464285Y-91650057D01*
X182083333Y-91554819D02*
X182273809Y-91554819D01*
X182273809Y-91554819D02*
X182369047Y-91602438D01*
X182369047Y-91602438D02*
X182464285Y-91697676D01*
X182464285Y-91697676D02*
X182511904Y-91888152D01*
X182511904Y-91888152D02*
X182511904Y-92221485D01*
X182511904Y-92221485D02*
X182464285Y-92411961D01*
X182464285Y-92411961D02*
X182369047Y-92507200D01*
X182369047Y-92507200D02*
X182273809Y-92554819D01*
X182273809Y-92554819D02*
X182083333Y-92554819D01*
X182083333Y-92554819D02*
X181988095Y-92507200D01*
X181988095Y-92507200D02*
X181892857Y-92411961D01*
X181892857Y-92411961D02*
X181845238Y-92221485D01*
X181845238Y-92221485D02*
X181845238Y-91888152D01*
X181845238Y-91888152D02*
X181892857Y-91697676D01*
X181892857Y-91697676D02*
X181988095Y-91602438D01*
X181988095Y-91602438D02*
X182083333Y-91554819D01*
X182940476Y-92554819D02*
X182940476Y-91554819D01*
X182940476Y-91554819D02*
X183511904Y-92554819D01*
X183511904Y-92554819D02*
X183511904Y-91554819D01*
X183988095Y-92554819D02*
X183988095Y-91554819D01*
X183988095Y-91554819D02*
X184559523Y-92554819D01*
X184559523Y-92554819D02*
X184559523Y-91554819D01*
X185559523Y-92554819D02*
X184988095Y-92554819D01*
X185273809Y-92554819D02*
X185273809Y-91554819D01*
X185273809Y-91554819D02*
X185178571Y-91697676D01*
X185178571Y-91697676D02*
X185083333Y-91792914D01*
X185083333Y-91792914D02*
X184988095Y-91840533D01*
X199958333Y-63204819D02*
X199625000Y-62728628D01*
X199386905Y-63204819D02*
X199386905Y-62204819D01*
X199386905Y-62204819D02*
X199767857Y-62204819D01*
X199767857Y-62204819D02*
X199863095Y-62252438D01*
X199863095Y-62252438D02*
X199910714Y-62300057D01*
X199910714Y-62300057D02*
X199958333Y-62395295D01*
X199958333Y-62395295D02*
X199958333Y-62538152D01*
X199958333Y-62538152D02*
X199910714Y-62633390D01*
X199910714Y-62633390D02*
X199863095Y-62681009D01*
X199863095Y-62681009D02*
X199767857Y-62728628D01*
X199767857Y-62728628D02*
X199386905Y-62728628D01*
X200815476Y-62204819D02*
X200625000Y-62204819D01*
X200625000Y-62204819D02*
X200529762Y-62252438D01*
X200529762Y-62252438D02*
X200482143Y-62300057D01*
X200482143Y-62300057D02*
X200386905Y-62442914D01*
X200386905Y-62442914D02*
X200339286Y-62633390D01*
X200339286Y-62633390D02*
X200339286Y-63014342D01*
X200339286Y-63014342D02*
X200386905Y-63109580D01*
X200386905Y-63109580D02*
X200434524Y-63157200D01*
X200434524Y-63157200D02*
X200529762Y-63204819D01*
X200529762Y-63204819D02*
X200720238Y-63204819D01*
X200720238Y-63204819D02*
X200815476Y-63157200D01*
X200815476Y-63157200D02*
X200863095Y-63109580D01*
X200863095Y-63109580D02*
X200910714Y-63014342D01*
X200910714Y-63014342D02*
X200910714Y-62776247D01*
X200910714Y-62776247D02*
X200863095Y-62681009D01*
X200863095Y-62681009D02*
X200815476Y-62633390D01*
X200815476Y-62633390D02*
X200720238Y-62585771D01*
X200720238Y-62585771D02*
X200529762Y-62585771D01*
X200529762Y-62585771D02*
X200434524Y-62633390D01*
X200434524Y-62633390D02*
X200386905Y-62681009D01*
X200386905Y-62681009D02*
X200339286Y-62776247D01*
X197004761Y-88450057D02*
X196909523Y-88402438D01*
X196909523Y-88402438D02*
X196814285Y-88307200D01*
X196814285Y-88307200D02*
X196671428Y-88164342D01*
X196671428Y-88164342D02*
X196576190Y-88116723D01*
X196576190Y-88116723D02*
X196480952Y-88116723D01*
X196528571Y-88354819D02*
X196433333Y-88307200D01*
X196433333Y-88307200D02*
X196338095Y-88211961D01*
X196338095Y-88211961D02*
X196290476Y-88021485D01*
X196290476Y-88021485D02*
X196290476Y-87688152D01*
X196290476Y-87688152D02*
X196338095Y-87497676D01*
X196338095Y-87497676D02*
X196433333Y-87402438D01*
X196433333Y-87402438D02*
X196528571Y-87354819D01*
X196528571Y-87354819D02*
X196719047Y-87354819D01*
X196719047Y-87354819D02*
X196814285Y-87402438D01*
X196814285Y-87402438D02*
X196909523Y-87497676D01*
X196909523Y-87497676D02*
X196957142Y-87688152D01*
X196957142Y-87688152D02*
X196957142Y-88021485D01*
X196957142Y-88021485D02*
X196909523Y-88211961D01*
X196909523Y-88211961D02*
X196814285Y-88307200D01*
X196814285Y-88307200D02*
X196719047Y-88354819D01*
X196719047Y-88354819D02*
X196528571Y-88354819D01*
X197909523Y-88354819D02*
X197338095Y-88354819D01*
X197623809Y-88354819D02*
X197623809Y-87354819D01*
X197623809Y-87354819D02*
X197528571Y-87497676D01*
X197528571Y-87497676D02*
X197433333Y-87592914D01*
X197433333Y-87592914D02*
X197338095Y-87640533D01*
X221614819Y-87255238D02*
X221138628Y-87588571D01*
X221614819Y-87826666D02*
X220614819Y-87826666D01*
X220614819Y-87826666D02*
X220614819Y-87445714D01*
X220614819Y-87445714D02*
X220662438Y-87350476D01*
X220662438Y-87350476D02*
X220710057Y-87302857D01*
X220710057Y-87302857D02*
X220805295Y-87255238D01*
X220805295Y-87255238D02*
X220948152Y-87255238D01*
X220948152Y-87255238D02*
X221043390Y-87302857D01*
X221043390Y-87302857D02*
X221091009Y-87350476D01*
X221091009Y-87350476D02*
X221138628Y-87445714D01*
X221138628Y-87445714D02*
X221138628Y-87826666D01*
X220614819Y-86969523D02*
X221614819Y-86636190D01*
X221614819Y-86636190D02*
X220614819Y-86302857D01*
X221614819Y-85445714D02*
X221614819Y-86017142D01*
X221614819Y-85731428D02*
X220614819Y-85731428D01*
X220614819Y-85731428D02*
X220757676Y-85826666D01*
X220757676Y-85826666D02*
X220852914Y-85921904D01*
X220852914Y-85921904D02*
X220900533Y-86017142D01*
X187033333Y-85354819D02*
X186700000Y-84878628D01*
X186461905Y-85354819D02*
X186461905Y-84354819D01*
X186461905Y-84354819D02*
X186842857Y-84354819D01*
X186842857Y-84354819D02*
X186938095Y-84402438D01*
X186938095Y-84402438D02*
X186985714Y-84450057D01*
X186985714Y-84450057D02*
X187033333Y-84545295D01*
X187033333Y-84545295D02*
X187033333Y-84688152D01*
X187033333Y-84688152D02*
X186985714Y-84783390D01*
X186985714Y-84783390D02*
X186938095Y-84831009D01*
X186938095Y-84831009D02*
X186842857Y-84878628D01*
X186842857Y-84878628D02*
X186461905Y-84878628D01*
X187890476Y-84688152D02*
X187890476Y-85354819D01*
X187652381Y-84307200D02*
X187414286Y-85021485D01*
X187414286Y-85021485D02*
X188033333Y-85021485D01*
X197733333Y-84959580D02*
X197685714Y-85007200D01*
X197685714Y-85007200D02*
X197542857Y-85054819D01*
X197542857Y-85054819D02*
X197447619Y-85054819D01*
X197447619Y-85054819D02*
X197304762Y-85007200D01*
X197304762Y-85007200D02*
X197209524Y-84911961D01*
X197209524Y-84911961D02*
X197161905Y-84816723D01*
X197161905Y-84816723D02*
X197114286Y-84626247D01*
X197114286Y-84626247D02*
X197114286Y-84483390D01*
X197114286Y-84483390D02*
X197161905Y-84292914D01*
X197161905Y-84292914D02*
X197209524Y-84197676D01*
X197209524Y-84197676D02*
X197304762Y-84102438D01*
X197304762Y-84102438D02*
X197447619Y-84054819D01*
X197447619Y-84054819D02*
X197542857Y-84054819D01*
X197542857Y-84054819D02*
X197685714Y-84102438D01*
X197685714Y-84102438D02*
X197733333Y-84150057D01*
X198685714Y-85054819D02*
X198114286Y-85054819D01*
X198400000Y-85054819D02*
X198400000Y-84054819D01*
X198400000Y-84054819D02*
X198304762Y-84197676D01*
X198304762Y-84197676D02*
X198209524Y-84292914D01*
X198209524Y-84292914D02*
X198114286Y-84340533D01*
X185690057Y-65365238D02*
X185642438Y-65460476D01*
X185642438Y-65460476D02*
X185547200Y-65555714D01*
X185547200Y-65555714D02*
X185404342Y-65698571D01*
X185404342Y-65698571D02*
X185356723Y-65793809D01*
X185356723Y-65793809D02*
X185356723Y-65889047D01*
X185594819Y-65841428D02*
X185547200Y-65936666D01*
X185547200Y-65936666D02*
X185451961Y-66031904D01*
X185451961Y-66031904D02*
X185261485Y-66079523D01*
X185261485Y-66079523D02*
X184928152Y-66079523D01*
X184928152Y-66079523D02*
X184737676Y-66031904D01*
X184737676Y-66031904D02*
X184642438Y-65936666D01*
X184642438Y-65936666D02*
X184594819Y-65841428D01*
X184594819Y-65841428D02*
X184594819Y-65650952D01*
X184594819Y-65650952D02*
X184642438Y-65555714D01*
X184642438Y-65555714D02*
X184737676Y-65460476D01*
X184737676Y-65460476D02*
X184928152Y-65412857D01*
X184928152Y-65412857D02*
X185261485Y-65412857D01*
X185261485Y-65412857D02*
X185451961Y-65460476D01*
X185451961Y-65460476D02*
X185547200Y-65555714D01*
X185547200Y-65555714D02*
X185594819Y-65650952D01*
X185594819Y-65650952D02*
X185594819Y-65841428D01*
X184690057Y-65031904D02*
X184642438Y-64984285D01*
X184642438Y-64984285D02*
X184594819Y-64889047D01*
X184594819Y-64889047D02*
X184594819Y-64650952D01*
X184594819Y-64650952D02*
X184642438Y-64555714D01*
X184642438Y-64555714D02*
X184690057Y-64508095D01*
X184690057Y-64508095D02*
X184785295Y-64460476D01*
X184785295Y-64460476D02*
X184880533Y-64460476D01*
X184880533Y-64460476D02*
X185023390Y-64508095D01*
X185023390Y-64508095D02*
X185594819Y-65079523D01*
X185594819Y-65079523D02*
X185594819Y-64460476D01*
X186154819Y-75666666D02*
X185678628Y-75999999D01*
X186154819Y-76238094D02*
X185154819Y-76238094D01*
X185154819Y-76238094D02*
X185154819Y-75857142D01*
X185154819Y-75857142D02*
X185202438Y-75761904D01*
X185202438Y-75761904D02*
X185250057Y-75714285D01*
X185250057Y-75714285D02*
X185345295Y-75666666D01*
X185345295Y-75666666D02*
X185488152Y-75666666D01*
X185488152Y-75666666D02*
X185583390Y-75714285D01*
X185583390Y-75714285D02*
X185631009Y-75761904D01*
X185631009Y-75761904D02*
X185678628Y-75857142D01*
X185678628Y-75857142D02*
X185678628Y-76238094D01*
X185154819Y-74761904D02*
X185154819Y-75238094D01*
X185154819Y-75238094D02*
X185631009Y-75285713D01*
X185631009Y-75285713D02*
X185583390Y-75238094D01*
X185583390Y-75238094D02*
X185535771Y-75142856D01*
X185535771Y-75142856D02*
X185535771Y-74904761D01*
X185535771Y-74904761D02*
X185583390Y-74809523D01*
X185583390Y-74809523D02*
X185631009Y-74761904D01*
X185631009Y-74761904D02*
X185726247Y-74714285D01*
X185726247Y-74714285D02*
X185964342Y-74714285D01*
X185964342Y-74714285D02*
X186059580Y-74761904D01*
X186059580Y-74761904D02*
X186107200Y-74809523D01*
X186107200Y-74809523D02*
X186154819Y-74904761D01*
X186154819Y-74904761D02*
X186154819Y-75142856D01*
X186154819Y-75142856D02*
X186107200Y-75238094D01*
X186107200Y-75238094D02*
X186059580Y-75285713D01*
X213654819Y-76691666D02*
X213178628Y-77024999D01*
X213654819Y-77263094D02*
X212654819Y-77263094D01*
X212654819Y-77263094D02*
X212654819Y-76882142D01*
X212654819Y-76882142D02*
X212702438Y-76786904D01*
X212702438Y-76786904D02*
X212750057Y-76739285D01*
X212750057Y-76739285D02*
X212845295Y-76691666D01*
X212845295Y-76691666D02*
X212988152Y-76691666D01*
X212988152Y-76691666D02*
X213083390Y-76739285D01*
X213083390Y-76739285D02*
X213131009Y-76786904D01*
X213131009Y-76786904D02*
X213178628Y-76882142D01*
X213178628Y-76882142D02*
X213178628Y-77263094D01*
X212654819Y-76358332D02*
X212654819Y-75739285D01*
X212654819Y-75739285D02*
X213035771Y-76072618D01*
X213035771Y-76072618D02*
X213035771Y-75929761D01*
X213035771Y-75929761D02*
X213083390Y-75834523D01*
X213083390Y-75834523D02*
X213131009Y-75786904D01*
X213131009Y-75786904D02*
X213226247Y-75739285D01*
X213226247Y-75739285D02*
X213464342Y-75739285D01*
X213464342Y-75739285D02*
X213559580Y-75786904D01*
X213559580Y-75786904D02*
X213607200Y-75834523D01*
X213607200Y-75834523D02*
X213654819Y-75929761D01*
X213654819Y-75929761D02*
X213654819Y-76215475D01*
X213654819Y-76215475D02*
X213607200Y-76310713D01*
X213607200Y-76310713D02*
X213559580Y-76358332D01*
X202348095Y-67124819D02*
X202348095Y-67934342D01*
X202348095Y-67934342D02*
X202395714Y-68029580D01*
X202395714Y-68029580D02*
X202443333Y-68077200D01*
X202443333Y-68077200D02*
X202538571Y-68124819D01*
X202538571Y-68124819D02*
X202729047Y-68124819D01*
X202729047Y-68124819D02*
X202824285Y-68077200D01*
X202824285Y-68077200D02*
X202871904Y-68029580D01*
X202871904Y-68029580D02*
X202919523Y-67934342D01*
X202919523Y-67934342D02*
X202919523Y-67124819D01*
X203919523Y-68124819D02*
X203348095Y-68124819D01*
X203633809Y-68124819D02*
X203633809Y-67124819D01*
X203633809Y-67124819D02*
X203538571Y-67267676D01*
X203538571Y-67267676D02*
X203443333Y-67362914D01*
X203443333Y-67362914D02*
X203348095Y-67410533D01*
X207433333Y-93454819D02*
X207100000Y-92978628D01*
X206861905Y-93454819D02*
X206861905Y-92454819D01*
X206861905Y-92454819D02*
X207242857Y-92454819D01*
X207242857Y-92454819D02*
X207338095Y-92502438D01*
X207338095Y-92502438D02*
X207385714Y-92550057D01*
X207385714Y-92550057D02*
X207433333Y-92645295D01*
X207433333Y-92645295D02*
X207433333Y-92788152D01*
X207433333Y-92788152D02*
X207385714Y-92883390D01*
X207385714Y-92883390D02*
X207338095Y-92931009D01*
X207338095Y-92931009D02*
X207242857Y-92978628D01*
X207242857Y-92978628D02*
X206861905Y-92978628D01*
X208385714Y-93454819D02*
X207814286Y-93454819D01*
X208100000Y-93454819D02*
X208100000Y-92454819D01*
X208100000Y-92454819D02*
X208004762Y-92597676D01*
X208004762Y-92597676D02*
X207909524Y-92692914D01*
X207909524Y-92692914D02*
X207814286Y-92740533D01*
X207483333Y-88704819D02*
X207150000Y-88228628D01*
X206911905Y-88704819D02*
X206911905Y-87704819D01*
X206911905Y-87704819D02*
X207292857Y-87704819D01*
X207292857Y-87704819D02*
X207388095Y-87752438D01*
X207388095Y-87752438D02*
X207435714Y-87800057D01*
X207435714Y-87800057D02*
X207483333Y-87895295D01*
X207483333Y-87895295D02*
X207483333Y-88038152D01*
X207483333Y-88038152D02*
X207435714Y-88133390D01*
X207435714Y-88133390D02*
X207388095Y-88181009D01*
X207388095Y-88181009D02*
X207292857Y-88228628D01*
X207292857Y-88228628D02*
X206911905Y-88228628D01*
X207864286Y-87800057D02*
X207911905Y-87752438D01*
X207911905Y-87752438D02*
X208007143Y-87704819D01*
X208007143Y-87704819D02*
X208245238Y-87704819D01*
X208245238Y-87704819D02*
X208340476Y-87752438D01*
X208340476Y-87752438D02*
X208388095Y-87800057D01*
X208388095Y-87800057D02*
X208435714Y-87895295D01*
X208435714Y-87895295D02*
X208435714Y-87990533D01*
X208435714Y-87990533D02*
X208388095Y-88133390D01*
X208388095Y-88133390D02*
X207816667Y-88704819D01*
X207816667Y-88704819D02*
X208435714Y-88704819D01*
X185024819Y-69466666D02*
X184548628Y-69799999D01*
X185024819Y-70038094D02*
X184024819Y-70038094D01*
X184024819Y-70038094D02*
X184024819Y-69657142D01*
X184024819Y-69657142D02*
X184072438Y-69561904D01*
X184072438Y-69561904D02*
X184120057Y-69514285D01*
X184120057Y-69514285D02*
X184215295Y-69466666D01*
X184215295Y-69466666D02*
X184358152Y-69466666D01*
X184358152Y-69466666D02*
X184453390Y-69514285D01*
X184453390Y-69514285D02*
X184501009Y-69561904D01*
X184501009Y-69561904D02*
X184548628Y-69657142D01*
X184548628Y-69657142D02*
X184548628Y-70038094D01*
X184024819Y-69133332D02*
X184024819Y-68466666D01*
X184024819Y-68466666D02*
X185024819Y-68895237D01*
X193734580Y-69441666D02*
X193782200Y-69489285D01*
X193782200Y-69489285D02*
X193829819Y-69632142D01*
X193829819Y-69632142D02*
X193829819Y-69727380D01*
X193829819Y-69727380D02*
X193782200Y-69870237D01*
X193782200Y-69870237D02*
X193686961Y-69965475D01*
X193686961Y-69965475D02*
X193591723Y-70013094D01*
X193591723Y-70013094D02*
X193401247Y-70060713D01*
X193401247Y-70060713D02*
X193258390Y-70060713D01*
X193258390Y-70060713D02*
X193067914Y-70013094D01*
X193067914Y-70013094D02*
X192972676Y-69965475D01*
X192972676Y-69965475D02*
X192877438Y-69870237D01*
X192877438Y-69870237D02*
X192829819Y-69727380D01*
X192829819Y-69727380D02*
X192829819Y-69632142D01*
X192829819Y-69632142D02*
X192877438Y-69489285D01*
X192877438Y-69489285D02*
X192925057Y-69441666D01*
X192925057Y-69060713D02*
X192877438Y-69013094D01*
X192877438Y-69013094D02*
X192829819Y-68917856D01*
X192829819Y-68917856D02*
X192829819Y-68679761D01*
X192829819Y-68679761D02*
X192877438Y-68584523D01*
X192877438Y-68584523D02*
X192925057Y-68536904D01*
X192925057Y-68536904D02*
X193020295Y-68489285D01*
X193020295Y-68489285D02*
X193115533Y-68489285D01*
X193115533Y-68489285D02*
X193258390Y-68536904D01*
X193258390Y-68536904D02*
X193829819Y-69108332D01*
X193829819Y-69108332D02*
X193829819Y-68489285D01*
X205980952Y-57254819D02*
X205504762Y-57254819D01*
X205504762Y-57254819D02*
X205504762Y-56254819D01*
X206266667Y-57207200D02*
X206409524Y-57254819D01*
X206409524Y-57254819D02*
X206647619Y-57254819D01*
X206647619Y-57254819D02*
X206742857Y-57207200D01*
X206742857Y-57207200D02*
X206790476Y-57159580D01*
X206790476Y-57159580D02*
X206838095Y-57064342D01*
X206838095Y-57064342D02*
X206838095Y-56969104D01*
X206838095Y-56969104D02*
X206790476Y-56873866D01*
X206790476Y-56873866D02*
X206742857Y-56826247D01*
X206742857Y-56826247D02*
X206647619Y-56778628D01*
X206647619Y-56778628D02*
X206457143Y-56731009D01*
X206457143Y-56731009D02*
X206361905Y-56683390D01*
X206361905Y-56683390D02*
X206314286Y-56635771D01*
X206314286Y-56635771D02*
X206266667Y-56540533D01*
X206266667Y-56540533D02*
X206266667Y-56445295D01*
X206266667Y-56445295D02*
X206314286Y-56350057D01*
X206314286Y-56350057D02*
X206361905Y-56302438D01*
X206361905Y-56302438D02*
X206457143Y-56254819D01*
X206457143Y-56254819D02*
X206695238Y-56254819D01*
X206695238Y-56254819D02*
X206838095Y-56302438D01*
X207838095Y-57254819D02*
X207504762Y-56778628D01*
X207266667Y-57254819D02*
X207266667Y-56254819D01*
X207266667Y-56254819D02*
X207647619Y-56254819D01*
X207647619Y-56254819D02*
X207742857Y-56302438D01*
X207742857Y-56302438D02*
X207790476Y-56350057D01*
X207790476Y-56350057D02*
X207838095Y-56445295D01*
X207838095Y-56445295D02*
X207838095Y-56588152D01*
X207838095Y-56588152D02*
X207790476Y-56683390D01*
X207790476Y-56683390D02*
X207742857Y-56731009D01*
X207742857Y-56731009D02*
X207647619Y-56778628D01*
X207647619Y-56778628D02*
X207266667Y-56778628D01*
X208028572Y-57350057D02*
X208790476Y-57350057D01*
X209600000Y-57159580D02*
X209552381Y-57207200D01*
X209552381Y-57207200D02*
X209409524Y-57254819D01*
X209409524Y-57254819D02*
X209314286Y-57254819D01*
X209314286Y-57254819D02*
X209171429Y-57207200D01*
X209171429Y-57207200D02*
X209076191Y-57111961D01*
X209076191Y-57111961D02*
X209028572Y-57016723D01*
X209028572Y-57016723D02*
X208980953Y-56826247D01*
X208980953Y-56826247D02*
X208980953Y-56683390D01*
X208980953Y-56683390D02*
X209028572Y-56492914D01*
X209028572Y-56492914D02*
X209076191Y-56397676D01*
X209076191Y-56397676D02*
X209171429Y-56302438D01*
X209171429Y-56302438D02*
X209314286Y-56254819D01*
X209314286Y-56254819D02*
X209409524Y-56254819D01*
X209409524Y-56254819D02*
X209552381Y-56302438D01*
X209552381Y-56302438D02*
X209600000Y-56350057D01*
X210219048Y-56254819D02*
X210409524Y-56254819D01*
X210409524Y-56254819D02*
X210504762Y-56302438D01*
X210504762Y-56302438D02*
X210600000Y-56397676D01*
X210600000Y-56397676D02*
X210647619Y-56588152D01*
X210647619Y-56588152D02*
X210647619Y-56921485D01*
X210647619Y-56921485D02*
X210600000Y-57111961D01*
X210600000Y-57111961D02*
X210504762Y-57207200D01*
X210504762Y-57207200D02*
X210409524Y-57254819D01*
X210409524Y-57254819D02*
X210219048Y-57254819D01*
X210219048Y-57254819D02*
X210123810Y-57207200D01*
X210123810Y-57207200D02*
X210028572Y-57111961D01*
X210028572Y-57111961D02*
X209980953Y-56921485D01*
X209980953Y-56921485D02*
X209980953Y-56588152D01*
X209980953Y-56588152D02*
X210028572Y-56397676D01*
X210028572Y-56397676D02*
X210123810Y-56302438D01*
X210123810Y-56302438D02*
X210219048Y-56254819D01*
X211076191Y-57254819D02*
X211076191Y-56254819D01*
X211076191Y-56254819D02*
X211647619Y-57254819D01*
X211647619Y-57254819D02*
X211647619Y-56254819D01*
X212123810Y-57254819D02*
X212123810Y-56254819D01*
X212123810Y-56254819D02*
X212695238Y-57254819D01*
X212695238Y-57254819D02*
X212695238Y-56254819D01*
D14*
%TO.C,MB_CONN1*%
X180220000Y-80940000D02*
X181600000Y-80940000D01*
X180220000Y-82320000D02*
X180220000Y-80940000D01*
X180220000Y-83590000D02*
X180220000Y-88780000D01*
X180220000Y-83590000D02*
X182980000Y-83590000D01*
X180220000Y-88780000D02*
X182980000Y-88780000D01*
X182980000Y-83590000D02*
X182980000Y-88780000D01*
%TO.C,R6*%
X194820000Y-63530000D02*
X201360000Y-63530000D01*
X194820000Y-63860000D02*
X194820000Y-63530000D01*
X194820000Y-65940000D02*
X194820000Y-66270000D01*
X194820000Y-66270000D02*
X201360000Y-66270000D01*
X201360000Y-63530000D02*
X201360000Y-63860000D01*
X201360000Y-66270000D02*
X201360000Y-65940000D01*
%TO.C,Q1*%
X194630000Y-84690000D02*
X191030000Y-84690000D01*
X192830000Y-89140000D02*
G75*
G02*
X190991522Y-84701522I0J2600000D01*
G01*
X194668478Y-84701522D02*
G75*
G02*
X192830000Y-89140001I-1838478J-1838478D01*
G01*
%TO.C,RV1*%
X214970000Y-81785000D02*
X220020000Y-81785000D01*
X214970000Y-91535000D02*
X214970000Y-81785000D01*
X220020000Y-81785000D02*
X220020000Y-91535000D01*
X220020000Y-91535000D02*
X214970000Y-91535000D01*
%TO.C,R4*%
X185840000Y-80730000D02*
X192380000Y-80730000D01*
X185840000Y-81060000D02*
X185840000Y-80730000D01*
X185840000Y-83140000D02*
X185840000Y-83470000D01*
X185840000Y-83470000D02*
X192380000Y-83470000D01*
X192380000Y-80730000D02*
X192380000Y-81060000D01*
X192380000Y-83470000D02*
X192380000Y-83140000D01*
%TO.C,C1*%
X195430000Y-80730000D02*
X200370000Y-80730000D01*
X195430000Y-81060000D02*
X195430000Y-80730000D01*
X195430000Y-83470000D02*
X195430000Y-83140000D01*
X200370000Y-80730000D02*
X200370000Y-81060000D01*
X200370000Y-83140000D02*
X200370000Y-83470000D01*
X200370000Y-83470000D02*
X195430000Y-83470000D01*
%TO.C,Q2*%
X190550000Y-67070000D02*
X190550000Y-63470000D01*
X186100000Y-65270000D02*
G75*
G02*
X190538478Y-63431522I2600000J0D01*
G01*
X190538478Y-67108478D02*
G75*
G02*
X186099999Y-65270000I-1838478J1838478D01*
G01*
%TO.C,R5*%
X186930000Y-71730000D02*
X187260000Y-71730000D01*
X186930000Y-78270000D02*
X186930000Y-71730000D01*
X187260000Y-78270000D02*
X186930000Y-78270000D01*
X189340000Y-78270000D02*
X189670000Y-78270000D01*
X189670000Y-71730000D02*
X189340000Y-71730000D01*
X189670000Y-78270000D02*
X189670000Y-71730000D01*
%TO.C,R3*%
X209330000Y-73220000D02*
X209660000Y-73220000D01*
X209330000Y-79760000D02*
X209330000Y-73220000D01*
X209660000Y-79760000D02*
X209330000Y-79760000D01*
X211740000Y-79760000D02*
X212070000Y-79760000D01*
X212070000Y-73220000D02*
X211740000Y-73220000D01*
X212070000Y-79760000D02*
X212070000Y-73220000D01*
%TO.C,U1*%
X200460000Y-68670000D02*
X200460000Y-78950000D01*
X200460000Y-78950000D02*
X205760000Y-78950000D01*
X202110000Y-68670000D02*
X200460000Y-68670000D01*
X205760000Y-68670000D02*
X204110000Y-68670000D01*
X205760000Y-78950000D02*
X205760000Y-68670000D01*
X204110000Y-68670000D02*
G75*
G02*
X202110000Y-68670000I-1000000J0D01*
G01*
%TO.C,R1*%
X204330000Y-89230000D02*
X210870000Y-89230000D01*
X204330000Y-89560000D02*
X204330000Y-89230000D01*
X204330000Y-91640000D02*
X204330000Y-91970000D01*
X204330000Y-91970000D02*
X210870000Y-91970000D01*
X210870000Y-89230000D02*
X210870000Y-89560000D01*
X210870000Y-91970000D02*
X210870000Y-91640000D01*
%TO.C,R2*%
X204320000Y-84530000D02*
X204320000Y-84860000D01*
X204320000Y-87270000D02*
X204320000Y-86940000D01*
X210860000Y-84530000D02*
X204320000Y-84530000D01*
X210860000Y-84860000D02*
X210860000Y-84530000D01*
X210860000Y-86940000D02*
X210860000Y-87270000D01*
X210860000Y-87270000D02*
X204320000Y-87270000D01*
%TO.C,R7*%
X180830000Y-66030000D02*
X180830000Y-72570000D01*
X180830000Y-72570000D02*
X181160000Y-72570000D01*
X181160000Y-66030000D02*
X180830000Y-66030000D01*
X183240000Y-66030000D02*
X183570000Y-66030000D01*
X183570000Y-66030000D02*
X183570000Y-72570000D01*
X183570000Y-72570000D02*
X183240000Y-72570000D01*
%TO.C,C2*%
X194430000Y-68530000D02*
X194760000Y-68530000D01*
X194430000Y-73470000D02*
X194430000Y-68530000D01*
X194760000Y-73470000D02*
X194430000Y-73470000D01*
X196840000Y-68530000D02*
X197170000Y-68530000D01*
X197170000Y-68530000D02*
X197170000Y-73470000D01*
X197170000Y-73470000D02*
X196840000Y-73470000D01*
%TO.C,LSR_CONN*%
X194780000Y-56848427D02*
X194780000Y-59608427D01*
X199970000Y-56848427D02*
X194780000Y-56848427D01*
X199970000Y-56848427D02*
X199970000Y-59608427D01*
X199970000Y-59608427D02*
X194780000Y-59608427D01*
X201240000Y-56848427D02*
X202620000Y-56848427D01*
X202620000Y-56848427D02*
X202620000Y-58228427D01*
%TD*%
M02*
