%TF.GenerationSoftware,KiCad,Pcbnew,9.0.3*%
%TF.CreationDate,2025-09-29T14:03:59+08:00*%
%TF.ProjectId,RUSSELS LASER FINAL,52555353-454c-4532-904c-415345522046,rev?*%
%TF.SameCoordinates,Original*%
%TF.FileFunction,Soldermask,Bot*%
%TF.FilePolarity,Negative*%
%FSLAX46Y46*%
G04 Gerber Fmt 4.6, Leading zero omitted, Abs format (unit mm)*
G04 Created by KiCad (PCBNEW 9.0.3) date 2025-09-29 14:03:59*
%MOMM*%
%LPD*%
G01*
G04 APERTURE LIST*
G04 Aperture macros list*
%AMRoundRect*
0 Rectangle with rounded corners*
0 $1 Rounding radius*
0 $2 $3 $4 $5 $6 $7 $8 $9 X,Y pos of 4 corners*
0 Add a 4 corners polygon primitive as box body*
4,1,4,$2,$3,$4,$5,$6,$7,$8,$9,$2,$3,0*
0 Add four circle primitives for the rounded corners*
1,1,$1+$1,$2,$3*
1,1,$1+$1,$4,$5*
1,1,$1+$1,$6,$7*
1,1,$1+$1,$8,$9*
0 Add four rect primitives between the rounded corners*
20,1,$1+$1,$2,$3,$4,$5,0*
20,1,$1+$1,$4,$5,$6,$7,0*
20,1,$1+$1,$6,$7,$8,$9,0*
20,1,$1+$1,$8,$9,$2,$3,0*%
G04 Aperture macros list end*
%ADD10R,1.700000X1.700000*%
%ADD11C,1.700000*%
%ADD12C,1.600000*%
%ADD13R,1.050000X1.500000*%
%ADD14O,1.050000X1.500000*%
%ADD15C,1.440000*%
%ADD16C,2.200000*%
%ADD17R,1.500000X1.050000*%
%ADD18O,1.500000X1.050000*%
%ADD19RoundRect,0.250000X-0.550000X-0.550000X0.550000X-0.550000X0.550000X0.550000X-0.550000X0.550000X0*%
G04 APERTURE END LIST*
D10*
%TO.C,MB_CONN1*%
X181600000Y-82320000D03*
D11*
X181600000Y-84860000D03*
X181600000Y-87400000D03*
%TD*%
D12*
%TO.C,R6*%
X194280000Y-64900000D03*
X201900000Y-64900000D03*
%TD*%
D13*
%TO.C,Q1*%
X194100000Y-86540000D03*
D14*
X192830000Y-86540000D03*
X191560000Y-86540000D03*
%TD*%
D15*
%TO.C,RV1*%
X217500000Y-89200000D03*
X217500000Y-86660000D03*
X217500000Y-84120000D03*
%TD*%
D16*
%TO.C,H1*%
X218700000Y-58628427D03*
%TD*%
D12*
%TO.C,R4*%
X185300000Y-82100000D03*
X192920000Y-82100000D03*
%TD*%
%TO.C,C1*%
X200400000Y-82100000D03*
X195400000Y-82100000D03*
%TD*%
D17*
%TO.C,Q2*%
X188700000Y-66540000D03*
D18*
X188700000Y-65270000D03*
X188700000Y-64000000D03*
%TD*%
D12*
%TO.C,R5*%
X188300000Y-78810000D03*
X188300000Y-71190000D03*
%TD*%
%TO.C,R3*%
X210700000Y-80300000D03*
X210700000Y-72680000D03*
%TD*%
D19*
%TO.C,U1*%
X199300000Y-70000000D03*
D12*
X199300000Y-72540000D03*
X199300000Y-75080000D03*
X199300000Y-77620000D03*
X206920000Y-77620000D03*
X206920000Y-75080000D03*
X206920000Y-72540000D03*
X206920000Y-70000000D03*
%TD*%
%TO.C,R1*%
X203790000Y-90600000D03*
X211410000Y-90600000D03*
%TD*%
%TO.C,R2*%
X211400000Y-85900000D03*
X203780000Y-85900000D03*
%TD*%
%TO.C,R7*%
X182200000Y-65490000D03*
X182200000Y-73110000D03*
%TD*%
%TO.C,C2*%
X195800000Y-73500000D03*
X195800000Y-68500000D03*
%TD*%
D16*
%TO.C,H2*%
X218700000Y-97700000D03*
%TD*%
D10*
%TO.C,LSR_CONN*%
X201240000Y-58228427D03*
D11*
X198700000Y-58228427D03*
X196160000Y-58228427D03*
%TD*%
D16*
%TO.C,H3*%
X180000000Y-97700000D03*
%TD*%
%TO.C,H4*%
X180000000Y-58628427D03*
%TD*%
M02*
