M48
; DRILL file {KiCad 9.0.3} date 2025-09-29T14:03:51+0800
; FORMAT={-:-/ absolute / metric / decimal}
; #@! TF.CreationDate,2025-09-29T14:03:51+08:00
; #@! TF.GenerationSoftware,Kicad,Pcbnew,9.0.3
; #@! TF.FileFunction,MixedPlating,1,2
FMAT,2
METRIC
; #@! TA.AperFunction,Plated,PTH,ViaDrill
T1C0.400
; #@! TA.AperFunction,Plated,PTH,ComponentDrill
T2C0.750
; #@! TA.AperFunction,Plated,PTH,ComponentDrill
T3C0.800
; #@! TA.AperFunction,Plated,PTH,ComponentDrill
T4C1.000
; #@! TA.AperFunction,NonPlated,NPTH,ComponentDrill
T5C2.200
%
G90
G05
T1
X180.75Y-77.525
X180.8Y-75.525
X182.6Y-94.45
X183.625Y-77.525
X183.675Y-75.525
X185.092Y-97.075
X185.275Y-68.05
X185.275Y-70.925
X185.525Y-85.775
X185.525Y-88.15
X188.308Y-94.45
X188.325Y-61.425
X188.4Y-85.775
X188.4Y-88.15
X188.425Y-59.225
X190.8Y-97.075
X191.2Y-61.425
X191.3Y-59.225
X192.525Y-75.575
X192.525Y-78.925
X194.017Y-94.45
X195.4Y-75.575
X195.4Y-78.925
X196.508Y-97.075
X197.725Y-86.05
X197.725Y-89.15
X199.725Y-94.45
X200.6Y-86.05
X200.6Y-89.15
X201.425Y-61.925
X201.45Y-70.775
X201.7Y-75.025
X202.217Y-97.075
X204.3Y-61.925
X204.325Y-70.775
X204.575Y-75.025
X205.325Y-80.6
X205.433Y-94.45
X206.225Y-88.25
X207.925Y-97.075
X208.2Y-80.6
X208.625Y-59.075
X209.1Y-88.25
X211.142Y-94.45
X211.5Y-59.075
X213.633Y-97.075
X215.475Y-74.8
X216.65Y-80.5
X216.85Y-94.45
X219.825Y-63.567
X219.825Y-69.275
X219.825Y-74.983
X219.825Y-80.692
T2
X188.7Y-64.0
X188.7Y-65.27
X188.7Y-66.54
X191.56Y-86.54
X192.83Y-86.54
X194.1Y-86.54
T3
X182.2Y-65.49
X182.2Y-73.11
X185.3Y-82.1
X188.3Y-71.19
X188.3Y-78.81
X192.92Y-82.1
X194.28Y-64.9
X195.4Y-82.1
X195.8Y-68.5
X195.8Y-73.5
X199.3Y-70.0
X199.3Y-72.54
X199.3Y-75.08
X199.3Y-77.62
X200.4Y-82.1
X201.9Y-64.9
X203.78Y-85.9
X203.79Y-90.6
X206.92Y-70.0
X206.92Y-72.54
X206.92Y-75.08
X206.92Y-77.62
X210.7Y-72.68
X210.7Y-80.3
X211.4Y-85.9
X211.41Y-90.6
X217.5Y-84.12
X217.5Y-86.66
X217.5Y-89.2
T4
X181.6Y-82.32
X181.6Y-84.86
X181.6Y-87.4
X196.16Y-58.228
X198.7Y-58.228
X201.24Y-58.228
T5
X180.0Y-58.628
X180.0Y-97.7
X218.7Y-58.628
X218.7Y-97.7
M30
